G04 #@! TF.FileFunction,Copper,L1,Top,Signal*
%FSLAX46Y46*%
G04 Gerber Fmt 4.6, Leading zero omitted, Abs format (unit mm)*
G04 Created by KiCad (PCBNEW 4.0.7+dfsg1-1) date Sun Mar 11 20:01:19 2018*
%MOMM*%
%LPD*%
G01*
G04 APERTURE LIST*
%ADD10C,0.100000*%
%ADD11R,1.200000X0.750000*%
%ADD12R,1.200000X1.200000*%
%ADD13C,1.200000*%
%ADD14R,0.750000X1.200000*%
%ADD15R,3.500000X3.500000*%
%ADD16C,3.810000*%
%ADD17C,3.556000*%
%ADD18R,0.900000X0.800000*%
%ADD19R,0.800000X0.900000*%
%ADD20R,1.200000X0.900000*%
%ADD21R,0.900000X1.200000*%
%ADD22C,1.620000*%
%ADD23R,1.600000X1.600000*%
%ADD24O,1.600000X1.600000*%
%ADD25R,1.143000X0.508000*%
%ADD26C,1.500000*%
%ADD27C,1.600000*%
%ADD28R,1.700000X1.700000*%
%ADD29O,1.700000X1.700000*%
%ADD30R,1.524000X1.524000*%
%ADD31C,1.524000*%
%ADD32R,1.800000X1.800000*%
%ADD33C,1.800000*%
%ADD34C,1.998980*%
%ADD35C,0.600000*%
%ADD36C,0.800000*%
%ADD37C,1.000000*%
%ADD38C,0.250000*%
%ADD39C,0.500000*%
%ADD40C,0.400000*%
%ADD41C,0.254000*%
G04 APERTURE END LIST*
D10*
D11*
X173035000Y-41910000D03*
X171135000Y-41910000D03*
D12*
X181610000Y-34290000D03*
D13*
X183110000Y-34290000D03*
D12*
X111760000Y-74930000D03*
D13*
X111760000Y-76430000D03*
D14*
X110490000Y-72710000D03*
X110490000Y-74610000D03*
X165100000Y-35245000D03*
X165100000Y-37145000D03*
D15*
X180500000Y-43000000D03*
X186500000Y-43000000D03*
X183500000Y-47700000D03*
D16*
X169926000Y-72136000D03*
D17*
X173990000Y-76200000D03*
D16*
X178054000Y-72136000D03*
X169926000Y-80264000D03*
X178054000Y-80264000D03*
X145796000Y-72136000D03*
D17*
X149860000Y-76200000D03*
D16*
X153924000Y-72136000D03*
X145796000Y-80264000D03*
X153924000Y-80264000D03*
X119126000Y-72136000D03*
D17*
X123190000Y-76200000D03*
D16*
X127254000Y-72136000D03*
X119126000Y-80264000D03*
X127254000Y-80264000D03*
D18*
X173625000Y-43500000D03*
X173625000Y-45400000D03*
X175625000Y-44450000D03*
D19*
X190820000Y-72120000D03*
X192720000Y-72120000D03*
X191770000Y-70120000D03*
D20*
X176700000Y-55880000D03*
X178900000Y-55880000D03*
X184320000Y-68580000D03*
X186520000Y-68580000D03*
X161460000Y-62230000D03*
X163660000Y-62230000D03*
X173185000Y-40005000D03*
X170985000Y-40005000D03*
D21*
X172085000Y-45550000D03*
X172085000Y-43350000D03*
D20*
X190670000Y-74930000D03*
X192870000Y-74930000D03*
X186520000Y-71120000D03*
X184320000Y-71120000D03*
D21*
X184150000Y-73830000D03*
X184150000Y-76030000D03*
X110490000Y-70950000D03*
X110490000Y-68750000D03*
D20*
X119550000Y-59690000D03*
X121750000Y-59690000D03*
X128100000Y-66040000D03*
X125900000Y-66040000D03*
X121750000Y-66040000D03*
X119550000Y-66040000D03*
X152570000Y-68580000D03*
X154770000Y-68580000D03*
D21*
X123190000Y-69680000D03*
X123190000Y-67480000D03*
D22*
X162560000Y-38020000D03*
X167560000Y-35520000D03*
X162560000Y-33020000D03*
D20*
X171620000Y-34290000D03*
X173820000Y-34290000D03*
X120480000Y-76200000D03*
X118280000Y-76200000D03*
D21*
X149860000Y-70950000D03*
X149860000Y-68750000D03*
X123190000Y-73490000D03*
X123190000Y-71290000D03*
D20*
X125900000Y-76200000D03*
X128100000Y-76200000D03*
X152570000Y-76200000D03*
X154770000Y-76200000D03*
X147150000Y-76200000D03*
X144950000Y-76200000D03*
D23*
X170180000Y-59690000D03*
D24*
X177800000Y-64770000D03*
X170180000Y-62230000D03*
X177800000Y-62230000D03*
X170180000Y-64770000D03*
X177800000Y-59690000D03*
D25*
X117602000Y-67310000D03*
X117602000Y-66040000D03*
X117602000Y-64770000D03*
X117602000Y-63500000D03*
X117602000Y-62230000D03*
X117602000Y-60960000D03*
X117602000Y-59690000D03*
X111252000Y-59690000D03*
X111252000Y-60960000D03*
X111252000Y-63500000D03*
X111252000Y-64770000D03*
X111252000Y-66040000D03*
X111252000Y-67310000D03*
X111252000Y-62230000D03*
D26*
X162560000Y-69850000D03*
X162560000Y-74730000D03*
D27*
X161290000Y-64770000D03*
X163790000Y-64770000D03*
X163830000Y-80010000D03*
X161330000Y-80010000D03*
D28*
X166370000Y-54610000D03*
D29*
X163830000Y-54610000D03*
D28*
X166370000Y-57150000D03*
D29*
X163830000Y-57150000D03*
D28*
X166370000Y-46990000D03*
D29*
X163830000Y-46990000D03*
D30*
X190246000Y-66040000D03*
D31*
X190246000Y-63500000D03*
X190246000Y-60960000D03*
X193294000Y-60960000D03*
X193294000Y-63500000D03*
X193294000Y-66040000D03*
D13*
X185420000Y-64262000D03*
X183515000Y-64262000D03*
D12*
X181610000Y-64262000D03*
X181610000Y-59690000D03*
D13*
X183515000Y-59690000D03*
X185420000Y-59690000D03*
D32*
X171450000Y-50800000D03*
D33*
X173990000Y-50800000D03*
X176530000Y-50800000D03*
D28*
X166370000Y-49530000D03*
D29*
X163830000Y-49530000D03*
D28*
X163830000Y-52070000D03*
D34*
X191770000Y-57150000D03*
X191770000Y-53340000D03*
D35*
X170180000Y-55880000D03*
D26*
X176530000Y-31750000D03*
X189230000Y-68580000D03*
D35*
X165100000Y-60960000D03*
X154940000Y-59055000D03*
X169545000Y-34925000D03*
X175895000Y-45720000D03*
X189230000Y-71755000D03*
X187960000Y-69850000D03*
X160020000Y-62230000D03*
X151765000Y-55880000D03*
X151765000Y-59690000D03*
X161925000Y-51435000D03*
D36*
X158750000Y-58420000D03*
X115570000Y-69850000D03*
X115570000Y-58420000D03*
D35*
X150495000Y-54610000D03*
X169545000Y-39370000D03*
D36*
X155575000Y-53975000D03*
X155575000Y-52705000D03*
D37*
X191770000Y-57150000D02*
X191770000Y-59436000D01*
X191770000Y-59436000D02*
X190246000Y-60960000D01*
D38*
X170180000Y-55880000D02*
X168910000Y-54610000D01*
X168910000Y-54610000D02*
X168910000Y-47625000D01*
X168910000Y-47625000D02*
X168275000Y-46990000D01*
X168275000Y-46990000D02*
X166370000Y-46990000D01*
X173625000Y-43500000D02*
X172990000Y-41955000D01*
X172990000Y-41955000D02*
X173185000Y-41760000D01*
X173185000Y-41760000D02*
X173185000Y-40005000D01*
X183515000Y-59690000D02*
X183515000Y-55880000D01*
X174625000Y-44450000D02*
X173625000Y-43500000D01*
X174625000Y-45720000D02*
X174625000Y-44450000D01*
X179070000Y-50165000D02*
X174625000Y-45720000D01*
X179070000Y-51435000D02*
X179070000Y-50165000D01*
X183515000Y-55880000D02*
X179070000Y-51435000D01*
X173625000Y-40445000D02*
X173035000Y-39855000D01*
X173625000Y-43500000D02*
X172235000Y-43500000D01*
X172235000Y-43500000D02*
X172085000Y-43350000D01*
D39*
X167560000Y-35520000D02*
X167560000Y-35480000D01*
X167560000Y-35480000D02*
X166690000Y-34610000D01*
X166690000Y-34610000D02*
X165100000Y-35245000D01*
X165100000Y-35245000D02*
X165100000Y-33020000D01*
D37*
X110490000Y-72710000D02*
X110490000Y-70950000D01*
X106680000Y-68580000D02*
X106680000Y-69215000D01*
X106680000Y-52070000D02*
X106680000Y-68580000D01*
X125730000Y-33020000D02*
X106680000Y-52070000D01*
X162560000Y-33020000D02*
X125730000Y-33020000D01*
X111760000Y-71755000D02*
X111760000Y-74930000D01*
X110955000Y-70950000D02*
X111760000Y-71755000D01*
X108415000Y-70950000D02*
X110955000Y-70950000D01*
X106680000Y-69215000D02*
X108415000Y-70950000D01*
X170180000Y-31750000D02*
X176530000Y-31750000D01*
X168910000Y-33020000D02*
X170180000Y-31750000D01*
X162560000Y-33020000D02*
X165100000Y-33020000D01*
X165100000Y-33020000D02*
X168910000Y-33020000D01*
D38*
X191770000Y-70120000D02*
X188960000Y-70120000D01*
X187960000Y-71120000D02*
X186520000Y-71120000D01*
X188960000Y-70120000D02*
X187960000Y-71120000D01*
D37*
X189230000Y-68580000D02*
X191405000Y-70120000D01*
X191405000Y-70120000D02*
X191770000Y-70120000D01*
D38*
X165100000Y-60960000D02*
X166370000Y-62230000D01*
X166370000Y-62230000D02*
X170180000Y-62230000D01*
X170180000Y-59690000D02*
X156210000Y-59690000D01*
X156210000Y-59690000D02*
X154940000Y-59055000D01*
X162560000Y-38020000D02*
X164225000Y-38020000D01*
X164225000Y-38020000D02*
X165100000Y-37145000D01*
X171620000Y-34290000D02*
X170180000Y-34290000D01*
X170180000Y-34290000D02*
X169545000Y-34925000D01*
X165100000Y-37145000D02*
X165100000Y-37465000D01*
X165100000Y-37465000D02*
X165735000Y-38100000D01*
X165735000Y-38100000D02*
X167640000Y-38100000D01*
X167640000Y-38100000D02*
X169545000Y-36195000D01*
X169545000Y-36195000D02*
X169545000Y-34925000D01*
D37*
X180500000Y-43000000D02*
X180500000Y-50640000D01*
X188595000Y-64389000D02*
X190246000Y-66040000D01*
X188595000Y-58735000D02*
X188595000Y-64389000D01*
X180500000Y-50640000D02*
X188595000Y-58735000D01*
X173990000Y-76200000D02*
X167640000Y-76200000D01*
X165100000Y-82550000D02*
X158750000Y-82550000D01*
X166370000Y-81280000D02*
X165100000Y-82550000D01*
X166370000Y-77470000D02*
X166370000Y-81280000D01*
X167640000Y-76200000D02*
X166370000Y-77470000D01*
X154770000Y-68580000D02*
X154940000Y-68580000D01*
X154940000Y-68580000D02*
X157480000Y-71120000D01*
X157480000Y-81280000D02*
X158750000Y-82550000D01*
X157480000Y-71120000D02*
X157480000Y-81280000D01*
X128100000Y-66040000D02*
X152230000Y-66040000D01*
X152230000Y-66040000D02*
X154770000Y-68580000D01*
X152570000Y-76200000D02*
X149860000Y-76200000D01*
X147150000Y-76200000D02*
X149860000Y-76200000D01*
X149860000Y-70950000D02*
X149860000Y-76200000D01*
X120480000Y-76200000D02*
X123190000Y-76200000D01*
X125900000Y-76200000D02*
X123190000Y-76200000D01*
X123190000Y-73490000D02*
X123190000Y-76200000D01*
D38*
X190820000Y-72120000D02*
X189595000Y-72120000D01*
X175625000Y-44815000D02*
X175625000Y-44450000D01*
X175895000Y-45720000D02*
X175625000Y-44815000D01*
X189595000Y-72120000D02*
X189230000Y-71755000D01*
X190820000Y-72120000D02*
X190820000Y-74780000D01*
X190820000Y-74780000D02*
X190670000Y-74930000D01*
X187960000Y-69850000D02*
X186690000Y-68580000D01*
X186690000Y-68580000D02*
X186520000Y-68580000D01*
D37*
X190500000Y-63500000D02*
X191770000Y-64770000D01*
X191770000Y-64770000D02*
X191770000Y-67945000D01*
X191770000Y-67945000D02*
X193040000Y-69215000D01*
X193040000Y-69215000D02*
X193040000Y-71800000D01*
X193040000Y-71800000D02*
X192720000Y-72120000D01*
D38*
X192720000Y-72120000D02*
X192720000Y-74780000D01*
X192720000Y-74780000D02*
X192870000Y-74930000D01*
D40*
X176530000Y-50800000D02*
X176530000Y-55710000D01*
X176530000Y-55710000D02*
X176700000Y-55880000D01*
D38*
X184320000Y-68580000D02*
X184320000Y-67140000D01*
X187325000Y-61595000D02*
X185420000Y-59690000D01*
X187325000Y-64135000D02*
X187325000Y-61595000D01*
X184320000Y-67140000D02*
X187325000Y-64135000D01*
X160020000Y-62230000D02*
X161460000Y-62230000D01*
D39*
X163660000Y-62230000D02*
X163660000Y-62400000D01*
D38*
X163660000Y-62400000D02*
X161290000Y-64770000D01*
X170265000Y-40090000D02*
X170900000Y-40090000D01*
X170900000Y-40090000D02*
X170985000Y-40005000D01*
X170350000Y-40005000D02*
X170265000Y-40090000D01*
X170265000Y-40090000D02*
X168445000Y-41910000D01*
X159385000Y-41910000D02*
X151765000Y-49530000D01*
X151765000Y-49530000D02*
X151765000Y-55880000D01*
X168445000Y-41910000D02*
X159385000Y-41910000D01*
X184320000Y-71120000D02*
X181610000Y-71120000D01*
X159385000Y-67310000D02*
X151765000Y-59690000D01*
X177800000Y-67310000D02*
X159385000Y-67310000D01*
X181610000Y-71120000D02*
X177800000Y-67310000D01*
X184320000Y-71120000D02*
X184320000Y-73660000D01*
X184320000Y-73660000D02*
X184150000Y-73830000D01*
D37*
X110490000Y-68750000D02*
X110490000Y-68072000D01*
X110490000Y-68072000D02*
X111252000Y-67310000D01*
X119550000Y-59690000D02*
X117602000Y-59690000D01*
X119550000Y-66040000D02*
X119550000Y-65870000D01*
X119550000Y-65870000D02*
X120650000Y-64770000D01*
X124630000Y-64770000D02*
X125900000Y-66040000D01*
X120650000Y-64770000D02*
X124630000Y-64770000D01*
X117602000Y-66040000D02*
X119550000Y-66040000D01*
X121750000Y-66040000D02*
X123190000Y-67480000D01*
X152570000Y-68580000D02*
X150030000Y-68580000D01*
X150030000Y-68580000D02*
X149860000Y-68750000D01*
X123190000Y-69680000D02*
X123190000Y-71290000D01*
D38*
X163830000Y-80010000D02*
X162560000Y-78740000D01*
X162560000Y-78740000D02*
X162560000Y-74730000D01*
X161925000Y-48260000D02*
X163195000Y-46990000D01*
X161925000Y-51435000D02*
X161925000Y-48260000D01*
X163195000Y-46990000D02*
X163830000Y-46990000D01*
D40*
X116840000Y-57785000D02*
X116205000Y-57785000D01*
X158750000Y-58420000D02*
X158115000Y-57785000D01*
X158115000Y-57785000D02*
X116840000Y-57785000D01*
X117602000Y-67818000D02*
X117602000Y-67310000D01*
X115570000Y-69850000D02*
X117602000Y-67818000D01*
X116205000Y-57785000D02*
X115570000Y-58420000D01*
D38*
X150495000Y-49530000D02*
X150495000Y-54610000D01*
X159385000Y-40640000D02*
X150495000Y-49530000D01*
X168275000Y-40640000D02*
X159385000Y-40640000D01*
X169545000Y-39370000D02*
X168275000Y-40640000D01*
D40*
X163830000Y-57150000D02*
X158750000Y-57150000D01*
X158750000Y-57150000D02*
X155575000Y-53975000D01*
X163830000Y-54610000D02*
X157480000Y-54610000D01*
X157480000Y-54610000D02*
X155575000Y-52705000D01*
D41*
G36*
X169377434Y-30947434D02*
X168439868Y-31885000D01*
X163468736Y-31885000D01*
X163379595Y-31795703D01*
X162848689Y-31575252D01*
X162273833Y-31574750D01*
X161742543Y-31794275D01*
X161651659Y-31885000D01*
X125730000Y-31885000D01*
X125295654Y-31971397D01*
X124927434Y-32217434D01*
X105877434Y-51267434D01*
X105631397Y-51635654D01*
X105545000Y-52070000D01*
X105545000Y-69215000D01*
X105631397Y-69649346D01*
X105842471Y-69965240D01*
X105877434Y-70017566D01*
X107612434Y-71752567D01*
X107980655Y-71998604D01*
X108415000Y-72085000D01*
X109355000Y-72085000D01*
X109355000Y-72710000D01*
X109441397Y-73144346D01*
X109467560Y-73183502D01*
X109467560Y-73310000D01*
X109511838Y-73545317D01*
X109578329Y-73648646D01*
X109576673Y-73650302D01*
X109480000Y-73883691D01*
X109480000Y-74324250D01*
X109638750Y-74483000D01*
X110363000Y-74483000D01*
X110363000Y-74463000D01*
X110512560Y-74463000D01*
X110512560Y-75530000D01*
X110556838Y-75765317D01*
X110638766Y-75892636D01*
X110512193Y-76261036D01*
X110542518Y-76751413D01*
X110671836Y-77063617D01*
X110897265Y-77113130D01*
X111580395Y-76430000D01*
X111566253Y-76415858D01*
X111745858Y-76236253D01*
X111760000Y-76250395D01*
X111774143Y-76236253D01*
X111953748Y-76415858D01*
X111939605Y-76430000D01*
X112622735Y-77113130D01*
X112848164Y-77063617D01*
X113007807Y-76598964D01*
X113000806Y-76485750D01*
X117045000Y-76485750D01*
X117045000Y-76776310D01*
X117141673Y-77009699D01*
X117320302Y-77188327D01*
X117553691Y-77285000D01*
X117994250Y-77285000D01*
X118153000Y-77126250D01*
X118153000Y-76327000D01*
X117203750Y-76327000D01*
X117045000Y-76485750D01*
X113000806Y-76485750D01*
X112977482Y-76108587D01*
X112885289Y-75886010D01*
X112956431Y-75781890D01*
X112988467Y-75623690D01*
X117045000Y-75623690D01*
X117045000Y-75914250D01*
X117203750Y-76073000D01*
X118153000Y-76073000D01*
X118153000Y-75273750D01*
X117994250Y-75115000D01*
X117553691Y-75115000D01*
X117320302Y-75211673D01*
X117141673Y-75390301D01*
X117045000Y-75623690D01*
X112988467Y-75623690D01*
X113007440Y-75530000D01*
X113007440Y-74330000D01*
X112963162Y-74094683D01*
X112895000Y-73988756D01*
X112895000Y-73942440D01*
X117499165Y-73942440D01*
X117708353Y-74303289D01*
X118645650Y-74680824D01*
X119656077Y-74670933D01*
X120543647Y-74303289D01*
X120752835Y-73942440D01*
X119126000Y-72315605D01*
X117499165Y-73942440D01*
X112895000Y-73942440D01*
X112895000Y-71755000D01*
X112875239Y-71655650D01*
X116581176Y-71655650D01*
X116591067Y-72666077D01*
X116958711Y-73553647D01*
X117319560Y-73762835D01*
X118946395Y-72136000D01*
X119305605Y-72136000D01*
X120932440Y-73762835D01*
X121293289Y-73553647D01*
X121670824Y-72616350D01*
X121660933Y-71605923D01*
X121293289Y-70718353D01*
X120932440Y-70509165D01*
X119305605Y-72136000D01*
X118946395Y-72136000D01*
X117319560Y-70509165D01*
X116958711Y-70718353D01*
X116581176Y-71655650D01*
X112875239Y-71655650D01*
X112808603Y-71320654D01*
X112562566Y-70952434D01*
X111757566Y-70147434D01*
X111647019Y-70073569D01*
X111619186Y-70054971D01*
X114534821Y-70054971D01*
X114692058Y-70435515D01*
X114982954Y-70726919D01*
X115363223Y-70884820D01*
X115774971Y-70885179D01*
X116155515Y-70727942D01*
X116446919Y-70437046D01*
X116491550Y-70329560D01*
X117499165Y-70329560D01*
X119126000Y-71956395D01*
X120752835Y-70329560D01*
X120543647Y-69968711D01*
X119606350Y-69591176D01*
X118595923Y-69601067D01*
X117708353Y-69968711D01*
X117499165Y-70329560D01*
X116491550Y-70329560D01*
X116604820Y-70056777D01*
X116604873Y-69995995D01*
X118192434Y-68408434D01*
X118254653Y-68315317D01*
X118345713Y-68179036D01*
X118408817Y-68167162D01*
X118624941Y-68028090D01*
X118769931Y-67815890D01*
X118820940Y-67564000D01*
X118820940Y-67175000D01*
X119550000Y-67175000D01*
X119738826Y-67137440D01*
X120150000Y-67137440D01*
X120385317Y-67093162D01*
X120601441Y-66954090D01*
X120649134Y-66884289D01*
X120685910Y-66941441D01*
X120898110Y-67086431D01*
X121150000Y-67137440D01*
X121242308Y-67137440D01*
X122092560Y-67987693D01*
X122092560Y-68080000D01*
X122136838Y-68315317D01*
X122275910Y-68531441D01*
X122345711Y-68579134D01*
X122288559Y-68615910D01*
X122143569Y-68828110D01*
X122092560Y-69080000D01*
X122092560Y-69491174D01*
X122055000Y-69680000D01*
X122055000Y-71290000D01*
X122092560Y-71478826D01*
X122092560Y-71890000D01*
X122136838Y-72125317D01*
X122275910Y-72341441D01*
X122345711Y-72389134D01*
X122288559Y-72425910D01*
X122143569Y-72638110D01*
X122092560Y-72890000D01*
X122092560Y-73301174D01*
X122055000Y-73490000D01*
X122055000Y-74058103D01*
X121824931Y-74153166D01*
X121145551Y-74831361D01*
X121048536Y-75065000D01*
X120480000Y-75065000D01*
X120291174Y-75102560D01*
X119880000Y-75102560D01*
X119644683Y-75146838D01*
X119428559Y-75285910D01*
X119382031Y-75354006D01*
X119239698Y-75211673D01*
X119006309Y-75115000D01*
X118565750Y-75115000D01*
X118407000Y-75273750D01*
X118407000Y-76073000D01*
X118427000Y-76073000D01*
X118427000Y-76327000D01*
X118407000Y-76327000D01*
X118407000Y-77126250D01*
X118565750Y-77285000D01*
X119006309Y-77285000D01*
X119239698Y-77188327D01*
X119380936Y-77047090D01*
X119415910Y-77101441D01*
X119628110Y-77246431D01*
X119880000Y-77297440D01*
X120291174Y-77297440D01*
X120480000Y-77335000D01*
X121048103Y-77335000D01*
X121143166Y-77565069D01*
X121821361Y-78244449D01*
X122707919Y-78612580D01*
X123667870Y-78613417D01*
X124045072Y-78457560D01*
X125627165Y-78457560D01*
X127254000Y-80084395D01*
X128880835Y-78457560D01*
X144169165Y-78457560D01*
X145796000Y-80084395D01*
X147422835Y-78457560D01*
X147213647Y-78096711D01*
X146276350Y-77719176D01*
X145265923Y-77729067D01*
X144378353Y-78096711D01*
X144169165Y-78457560D01*
X128880835Y-78457560D01*
X128671647Y-78096711D01*
X127734350Y-77719176D01*
X126723923Y-77729067D01*
X125836353Y-78096711D01*
X125627165Y-78457560D01*
X124045072Y-78457560D01*
X124555069Y-78246834D01*
X125234449Y-77568639D01*
X125331464Y-77335000D01*
X125900000Y-77335000D01*
X126088826Y-77297440D01*
X126500000Y-77297440D01*
X126735317Y-77253162D01*
X126951441Y-77114090D01*
X126997969Y-77045994D01*
X127140302Y-77188327D01*
X127373691Y-77285000D01*
X127814250Y-77285000D01*
X127973000Y-77126250D01*
X127973000Y-76327000D01*
X128227000Y-76327000D01*
X128227000Y-77126250D01*
X128385750Y-77285000D01*
X128826309Y-77285000D01*
X129059698Y-77188327D01*
X129238327Y-77009699D01*
X129335000Y-76776310D01*
X129335000Y-76485750D01*
X143715000Y-76485750D01*
X143715000Y-76776310D01*
X143811673Y-77009699D01*
X143990302Y-77188327D01*
X144223691Y-77285000D01*
X144664250Y-77285000D01*
X144823000Y-77126250D01*
X144823000Y-76327000D01*
X143873750Y-76327000D01*
X143715000Y-76485750D01*
X129335000Y-76485750D01*
X129176250Y-76327000D01*
X128227000Y-76327000D01*
X127973000Y-76327000D01*
X127953000Y-76327000D01*
X127953000Y-76073000D01*
X127973000Y-76073000D01*
X127973000Y-75273750D01*
X128227000Y-75273750D01*
X128227000Y-76073000D01*
X129176250Y-76073000D01*
X129335000Y-75914250D01*
X129335000Y-75623690D01*
X143715000Y-75623690D01*
X143715000Y-75914250D01*
X143873750Y-76073000D01*
X144823000Y-76073000D01*
X144823000Y-75273750D01*
X144664250Y-75115000D01*
X144223691Y-75115000D01*
X143990302Y-75211673D01*
X143811673Y-75390301D01*
X143715000Y-75623690D01*
X129335000Y-75623690D01*
X129238327Y-75390301D01*
X129059698Y-75211673D01*
X128826309Y-75115000D01*
X128385750Y-75115000D01*
X128227000Y-75273750D01*
X127973000Y-75273750D01*
X127814250Y-75115000D01*
X127373691Y-75115000D01*
X127140302Y-75211673D01*
X126999064Y-75352910D01*
X126964090Y-75298559D01*
X126751890Y-75153569D01*
X126500000Y-75102560D01*
X126088826Y-75102560D01*
X125900000Y-75065000D01*
X125331897Y-75065000D01*
X125236834Y-74834931D01*
X124558639Y-74155551D01*
X124325000Y-74058536D01*
X124325000Y-73942440D01*
X125627165Y-73942440D01*
X125836353Y-74303289D01*
X126773650Y-74680824D01*
X127784077Y-74670933D01*
X128671647Y-74303289D01*
X128880835Y-73942440D01*
X144169165Y-73942440D01*
X144378353Y-74303289D01*
X145315650Y-74680824D01*
X146326077Y-74670933D01*
X147213647Y-74303289D01*
X147422835Y-73942440D01*
X145796000Y-72315605D01*
X144169165Y-73942440D01*
X128880835Y-73942440D01*
X127254000Y-72315605D01*
X125627165Y-73942440D01*
X124325000Y-73942440D01*
X124325000Y-73490000D01*
X124287440Y-73301174D01*
X124287440Y-72890000D01*
X124243162Y-72654683D01*
X124104090Y-72438559D01*
X124034289Y-72390866D01*
X124091441Y-72354090D01*
X124236431Y-72141890D01*
X124287440Y-71890000D01*
X124287440Y-71655650D01*
X124709176Y-71655650D01*
X124719067Y-72666077D01*
X125086711Y-73553647D01*
X125447560Y-73762835D01*
X127074395Y-72136000D01*
X127433605Y-72136000D01*
X129060440Y-73762835D01*
X129421289Y-73553647D01*
X129798824Y-72616350D01*
X129789420Y-71655650D01*
X143251176Y-71655650D01*
X143261067Y-72666077D01*
X143628711Y-73553647D01*
X143989560Y-73762835D01*
X145616395Y-72136000D01*
X145975605Y-72136000D01*
X147602440Y-73762835D01*
X147963289Y-73553647D01*
X148340824Y-72616350D01*
X148330933Y-71605923D01*
X147963289Y-70718353D01*
X147602440Y-70509165D01*
X145975605Y-72136000D01*
X145616395Y-72136000D01*
X143989560Y-70509165D01*
X143628711Y-70718353D01*
X143251176Y-71655650D01*
X129789420Y-71655650D01*
X129788933Y-71605923D01*
X129421289Y-70718353D01*
X129060440Y-70509165D01*
X127433605Y-72136000D01*
X127074395Y-72136000D01*
X125447560Y-70509165D01*
X125086711Y-70718353D01*
X124709176Y-71655650D01*
X124287440Y-71655650D01*
X124287440Y-71478826D01*
X124325000Y-71290000D01*
X124325000Y-70329560D01*
X125627165Y-70329560D01*
X127254000Y-71956395D01*
X128880835Y-70329560D01*
X144169165Y-70329560D01*
X145796000Y-71956395D01*
X147422835Y-70329560D01*
X147213647Y-69968711D01*
X146276350Y-69591176D01*
X145265923Y-69601067D01*
X144378353Y-69968711D01*
X144169165Y-70329560D01*
X128880835Y-70329560D01*
X128671647Y-69968711D01*
X127734350Y-69591176D01*
X126723923Y-69601067D01*
X125836353Y-69968711D01*
X125627165Y-70329560D01*
X124325000Y-70329560D01*
X124325000Y-69680000D01*
X124287440Y-69491174D01*
X124287440Y-69080000D01*
X124243162Y-68844683D01*
X124104090Y-68628559D01*
X124034289Y-68580866D01*
X124091441Y-68544090D01*
X124236431Y-68331890D01*
X124287440Y-68080000D01*
X124287440Y-67668829D01*
X124325000Y-67480000D01*
X124287440Y-67291172D01*
X124287440Y-66880000D01*
X124243162Y-66644683D01*
X124104090Y-66428559D01*
X123891890Y-66283569D01*
X123640000Y-66232560D01*
X123547693Y-66232560D01*
X123220132Y-65905000D01*
X124159868Y-65905000D01*
X124652560Y-66397692D01*
X124652560Y-66490000D01*
X124696838Y-66725317D01*
X124835910Y-66941441D01*
X125048110Y-67086431D01*
X125300000Y-67137440D01*
X125711174Y-67137440D01*
X125900000Y-67175000D01*
X126088826Y-67137440D01*
X126500000Y-67137440D01*
X126735317Y-67093162D01*
X126951441Y-66954090D01*
X126999134Y-66884289D01*
X127035910Y-66941441D01*
X127248110Y-67086431D01*
X127500000Y-67137440D01*
X127911174Y-67137440D01*
X128100000Y-67175000D01*
X151759868Y-67175000D01*
X152029868Y-67445000D01*
X150030000Y-67445000D01*
X149740627Y-67502560D01*
X149410000Y-67502560D01*
X149174683Y-67546838D01*
X148958559Y-67685910D01*
X148813569Y-67898110D01*
X148762560Y-68150000D01*
X148762560Y-68561174D01*
X148725000Y-68750000D01*
X148762560Y-68938826D01*
X148762560Y-69350000D01*
X148806838Y-69585317D01*
X148945910Y-69801441D01*
X149015711Y-69849134D01*
X148958559Y-69885910D01*
X148813569Y-70098110D01*
X148762560Y-70350000D01*
X148762560Y-70761174D01*
X148725000Y-70950000D01*
X148725000Y-74058103D01*
X148494931Y-74153166D01*
X147815551Y-74831361D01*
X147718536Y-75065000D01*
X147150000Y-75065000D01*
X146961174Y-75102560D01*
X146550000Y-75102560D01*
X146314683Y-75146838D01*
X146098559Y-75285910D01*
X146052031Y-75354006D01*
X145909698Y-75211673D01*
X145676309Y-75115000D01*
X145235750Y-75115000D01*
X145077000Y-75273750D01*
X145077000Y-76073000D01*
X145097000Y-76073000D01*
X145097000Y-76327000D01*
X145077000Y-76327000D01*
X145077000Y-77126250D01*
X145235750Y-77285000D01*
X145676309Y-77285000D01*
X145909698Y-77188327D01*
X146050936Y-77047090D01*
X146085910Y-77101441D01*
X146298110Y-77246431D01*
X146550000Y-77297440D01*
X146961174Y-77297440D01*
X147150000Y-77335000D01*
X147718103Y-77335000D01*
X147813166Y-77565069D01*
X148491361Y-78244449D01*
X149377919Y-78612580D01*
X150337870Y-78613417D01*
X150715072Y-78457560D01*
X152297165Y-78457560D01*
X153924000Y-80084395D01*
X155550835Y-78457560D01*
X155341647Y-78096711D01*
X154404350Y-77719176D01*
X153393923Y-77729067D01*
X152506353Y-78096711D01*
X152297165Y-78457560D01*
X150715072Y-78457560D01*
X151225069Y-78246834D01*
X151904449Y-77568639D01*
X152001464Y-77335000D01*
X152570000Y-77335000D01*
X152758826Y-77297440D01*
X153170000Y-77297440D01*
X153405317Y-77253162D01*
X153621441Y-77114090D01*
X153667969Y-77045994D01*
X153810302Y-77188327D01*
X154043691Y-77285000D01*
X154484250Y-77285000D01*
X154643000Y-77126250D01*
X154643000Y-76327000D01*
X154897000Y-76327000D01*
X154897000Y-77126250D01*
X155055750Y-77285000D01*
X155496309Y-77285000D01*
X155729698Y-77188327D01*
X155908327Y-77009699D01*
X156005000Y-76776310D01*
X156005000Y-76485750D01*
X155846250Y-76327000D01*
X154897000Y-76327000D01*
X154643000Y-76327000D01*
X154623000Y-76327000D01*
X154623000Y-76073000D01*
X154643000Y-76073000D01*
X154643000Y-75273750D01*
X154897000Y-75273750D01*
X154897000Y-76073000D01*
X155846250Y-76073000D01*
X156005000Y-75914250D01*
X156005000Y-75623690D01*
X155908327Y-75390301D01*
X155729698Y-75211673D01*
X155496309Y-75115000D01*
X155055750Y-75115000D01*
X154897000Y-75273750D01*
X154643000Y-75273750D01*
X154484250Y-75115000D01*
X154043691Y-75115000D01*
X153810302Y-75211673D01*
X153669064Y-75352910D01*
X153634090Y-75298559D01*
X153421890Y-75153569D01*
X153170000Y-75102560D01*
X152758826Y-75102560D01*
X152570000Y-75065000D01*
X152001897Y-75065000D01*
X151906834Y-74834931D01*
X151228639Y-74155551D01*
X150995000Y-74058536D01*
X150995000Y-73942440D01*
X152297165Y-73942440D01*
X152506353Y-74303289D01*
X153443650Y-74680824D01*
X154454077Y-74670933D01*
X155341647Y-74303289D01*
X155550835Y-73942440D01*
X153924000Y-72315605D01*
X152297165Y-73942440D01*
X150995000Y-73942440D01*
X150995000Y-71655650D01*
X151379176Y-71655650D01*
X151389067Y-72666077D01*
X151756711Y-73553647D01*
X152117560Y-73762835D01*
X153744395Y-72136000D01*
X152117560Y-70509165D01*
X151756711Y-70718353D01*
X151379176Y-71655650D01*
X150995000Y-71655650D01*
X150995000Y-70950000D01*
X150957440Y-70761174D01*
X150957440Y-70350000D01*
X150913162Y-70114683D01*
X150774090Y-69898559D01*
X150704289Y-69850866D01*
X150761441Y-69814090D01*
X150829146Y-69715000D01*
X152570000Y-69715000D01*
X152758826Y-69677440D01*
X153170000Y-69677440D01*
X153242457Y-69663806D01*
X152506353Y-69968711D01*
X152297165Y-70329560D01*
X153924000Y-71956395D01*
X153938143Y-71942253D01*
X154117748Y-72121858D01*
X154103605Y-72136000D01*
X155730440Y-73762835D01*
X156091289Y-73553647D01*
X156345000Y-72923765D01*
X156345000Y-79458865D01*
X156091289Y-78846353D01*
X155730440Y-78637165D01*
X154103605Y-80264000D01*
X155730440Y-81890835D01*
X156091289Y-81681647D01*
X156345000Y-81051765D01*
X156345000Y-81280000D01*
X156431397Y-81714346D01*
X156661430Y-82058614D01*
X156677434Y-82082566D01*
X157947434Y-83352566D01*
X158315654Y-83598603D01*
X158750000Y-83685000D01*
X165100000Y-83685000D01*
X165534346Y-83598603D01*
X165902566Y-83352566D01*
X167172566Y-82082566D01*
X167180668Y-82070440D01*
X168299165Y-82070440D01*
X168508353Y-82431289D01*
X169445650Y-82808824D01*
X170456077Y-82798933D01*
X171343647Y-82431289D01*
X171552835Y-82070440D01*
X176427165Y-82070440D01*
X176636353Y-82431289D01*
X177573650Y-82808824D01*
X178584077Y-82798933D01*
X179471647Y-82431289D01*
X179680835Y-82070440D01*
X178054000Y-80443605D01*
X176427165Y-82070440D01*
X171552835Y-82070440D01*
X169926000Y-80443605D01*
X168299165Y-82070440D01*
X167180668Y-82070440D01*
X167188570Y-82058614D01*
X167418603Y-81714346D01*
X167505000Y-81280000D01*
X167505000Y-81069135D01*
X167758711Y-81681647D01*
X168119560Y-81890835D01*
X169746395Y-80264000D01*
X170105605Y-80264000D01*
X171732440Y-81890835D01*
X172093289Y-81681647D01*
X172470824Y-80744350D01*
X172461420Y-79783650D01*
X175509176Y-79783650D01*
X175519067Y-80794077D01*
X175886711Y-81681647D01*
X176247560Y-81890835D01*
X177874395Y-80264000D01*
X178233605Y-80264000D01*
X179860440Y-81890835D01*
X180221289Y-81681647D01*
X180598824Y-80744350D01*
X180588933Y-79733923D01*
X180221289Y-78846353D01*
X179860440Y-78637165D01*
X178233605Y-80264000D01*
X177874395Y-80264000D01*
X176247560Y-78637165D01*
X175886711Y-78846353D01*
X175509176Y-79783650D01*
X172461420Y-79783650D01*
X172460933Y-79733923D01*
X172093289Y-78846353D01*
X171732440Y-78637165D01*
X170105605Y-80264000D01*
X169746395Y-80264000D01*
X168119560Y-78637165D01*
X167758711Y-78846353D01*
X167505000Y-79476235D01*
X167505000Y-78457560D01*
X168299165Y-78457560D01*
X169926000Y-80084395D01*
X171552835Y-78457560D01*
X171343647Y-78096711D01*
X170406350Y-77719176D01*
X169395923Y-77729067D01*
X168508353Y-78096711D01*
X168299165Y-78457560D01*
X167505000Y-78457560D01*
X167505000Y-77940132D01*
X168110132Y-77335000D01*
X171848103Y-77335000D01*
X171943166Y-77565069D01*
X172621361Y-78244449D01*
X173507919Y-78612580D01*
X174467870Y-78613417D01*
X174845072Y-78457560D01*
X176427165Y-78457560D01*
X178054000Y-80084395D01*
X179680835Y-78457560D01*
X179471647Y-78096711D01*
X178534350Y-77719176D01*
X177523923Y-77729067D01*
X176636353Y-78096711D01*
X176427165Y-78457560D01*
X174845072Y-78457560D01*
X175355069Y-78246834D01*
X176034449Y-77568639D01*
X176402580Y-76682081D01*
X176402899Y-76315750D01*
X183065000Y-76315750D01*
X183065000Y-76756309D01*
X183161673Y-76989698D01*
X183340301Y-77168327D01*
X183573690Y-77265000D01*
X183864250Y-77265000D01*
X184023000Y-77106250D01*
X184023000Y-76157000D01*
X184277000Y-76157000D01*
X184277000Y-77106250D01*
X184435750Y-77265000D01*
X184726310Y-77265000D01*
X184959699Y-77168327D01*
X185138327Y-76989698D01*
X185235000Y-76756309D01*
X185235000Y-76315750D01*
X185076250Y-76157000D01*
X184277000Y-76157000D01*
X184023000Y-76157000D01*
X183223750Y-76157000D01*
X183065000Y-76315750D01*
X176402899Y-76315750D01*
X176403417Y-75722130D01*
X176036834Y-74834931D01*
X175358639Y-74155551D01*
X174845411Y-73942440D01*
X176427165Y-73942440D01*
X176636353Y-74303289D01*
X177573650Y-74680824D01*
X178584077Y-74670933D01*
X179471647Y-74303289D01*
X179680835Y-73942440D01*
X178054000Y-72315605D01*
X176427165Y-73942440D01*
X174845411Y-73942440D01*
X174472081Y-73787420D01*
X173512130Y-73786583D01*
X172624931Y-74153166D01*
X171945551Y-74831361D01*
X171848536Y-75065000D01*
X167640000Y-75065000D01*
X167205654Y-75151397D01*
X166957212Y-75317401D01*
X166837434Y-75397434D01*
X165567434Y-76667434D01*
X165321397Y-77035654D01*
X165235000Y-77470000D01*
X165235000Y-79652607D01*
X165047243Y-79198200D01*
X164643923Y-78794176D01*
X164116691Y-78575250D01*
X163545813Y-78574752D01*
X163491851Y-78597049D01*
X163320000Y-78425198D01*
X163320000Y-75914547D01*
X163343515Y-75904831D01*
X163733461Y-75515564D01*
X163944759Y-75006702D01*
X163945240Y-74455715D01*
X163734831Y-73946485D01*
X163730794Y-73942440D01*
X168299165Y-73942440D01*
X168508353Y-74303289D01*
X169445650Y-74680824D01*
X170456077Y-74670933D01*
X171343647Y-74303289D01*
X171552835Y-73942440D01*
X169926000Y-72315605D01*
X168299165Y-73942440D01*
X163730794Y-73942440D01*
X163345564Y-73556539D01*
X162836702Y-73345241D01*
X162285715Y-73344760D01*
X161776485Y-73555169D01*
X161386539Y-73944436D01*
X161175241Y-74453298D01*
X161174760Y-75004285D01*
X161385169Y-75513515D01*
X161774436Y-75903461D01*
X161800000Y-75914076D01*
X161800000Y-78654053D01*
X161546777Y-78563035D01*
X160976546Y-78590222D01*
X160575995Y-78756136D01*
X160501861Y-79002255D01*
X161330000Y-79830395D01*
X161344142Y-79816252D01*
X161523748Y-79995858D01*
X161509605Y-80010000D01*
X162337745Y-80838139D01*
X162583864Y-80764005D01*
X162586196Y-80757517D01*
X162612757Y-80821800D01*
X163016077Y-81225824D01*
X163471663Y-81415000D01*
X161719131Y-81415000D01*
X162084005Y-81263864D01*
X162158139Y-81017745D01*
X161330000Y-80189605D01*
X160501861Y-81017745D01*
X160575995Y-81263864D01*
X160996472Y-81415000D01*
X159220132Y-81415000D01*
X158615000Y-80809868D01*
X158615000Y-79793223D01*
X159883035Y-79793223D01*
X159910222Y-80363454D01*
X160076136Y-80764005D01*
X160322255Y-80838139D01*
X161150395Y-80010000D01*
X160322255Y-79181861D01*
X160076136Y-79255995D01*
X159883035Y-79793223D01*
X158615000Y-79793223D01*
X158615000Y-71655650D01*
X167381176Y-71655650D01*
X167391067Y-72666077D01*
X167758711Y-73553647D01*
X168119560Y-73762835D01*
X169746395Y-72136000D01*
X170105605Y-72136000D01*
X171732440Y-73762835D01*
X172093289Y-73553647D01*
X172470824Y-72616350D01*
X172461420Y-71655650D01*
X175509176Y-71655650D01*
X175519067Y-72666077D01*
X175886711Y-73553647D01*
X176247560Y-73762835D01*
X177874395Y-72136000D01*
X176247560Y-70509165D01*
X175886711Y-70718353D01*
X175509176Y-71655650D01*
X172461420Y-71655650D01*
X172460933Y-71605923D01*
X172093289Y-70718353D01*
X171732440Y-70509165D01*
X170105605Y-72136000D01*
X169746395Y-72136000D01*
X168119560Y-70509165D01*
X167758711Y-70718353D01*
X167381176Y-71655650D01*
X158615000Y-71655650D01*
X158615000Y-71120000D01*
X158528603Y-70685654D01*
X158459744Y-70582599D01*
X158282566Y-70317433D01*
X158089418Y-70124285D01*
X161174760Y-70124285D01*
X161385169Y-70633515D01*
X161774436Y-71023461D01*
X162283298Y-71234759D01*
X162834285Y-71235240D01*
X163343515Y-71024831D01*
X163733461Y-70635564D01*
X163860524Y-70329560D01*
X168299165Y-70329560D01*
X169926000Y-71956395D01*
X171552835Y-70329560D01*
X171343647Y-69968711D01*
X170406350Y-69591176D01*
X169395923Y-69601067D01*
X168508353Y-69968711D01*
X168299165Y-70329560D01*
X163860524Y-70329560D01*
X163944759Y-70126702D01*
X163945240Y-69575715D01*
X163734831Y-69066485D01*
X163345564Y-68676539D01*
X162836702Y-68465241D01*
X162285715Y-68464760D01*
X161776485Y-68675169D01*
X161386539Y-69064436D01*
X161175241Y-69573298D01*
X161174760Y-70124285D01*
X158089418Y-70124285D01*
X155999433Y-68034301D01*
X155973162Y-67894683D01*
X155834090Y-67678559D01*
X155621890Y-67533569D01*
X155370000Y-67482560D01*
X155277693Y-67482560D01*
X153032566Y-65237434D01*
X152950857Y-65182838D01*
X152664346Y-64991397D01*
X152230000Y-64905000D01*
X128100000Y-64905000D01*
X127911174Y-64942560D01*
X127500000Y-64942560D01*
X127264683Y-64986838D01*
X127048559Y-65125910D01*
X127000866Y-65195711D01*
X126964090Y-65138559D01*
X126751890Y-64993569D01*
X126500000Y-64942560D01*
X126407692Y-64942560D01*
X125432566Y-63967434D01*
X125350857Y-63912838D01*
X125064346Y-63721397D01*
X124630000Y-63635000D01*
X120650000Y-63635000D01*
X120215654Y-63721397D01*
X119929143Y-63912838D01*
X119847434Y-63967434D01*
X118909868Y-64905000D01*
X118657750Y-64905000D01*
X118649750Y-64897000D01*
X117729000Y-64897000D01*
X117729000Y-64905000D01*
X117602000Y-64905000D01*
X117541672Y-64917000D01*
X117475000Y-64917000D01*
X117475000Y-64897000D01*
X116554250Y-64897000D01*
X116395500Y-65055750D01*
X116395500Y-65150309D01*
X116492173Y-65383698D01*
X116518709Y-65410235D01*
X116434069Y-65534110D01*
X116383060Y-65786000D01*
X116383060Y-66294000D01*
X116427338Y-66529317D01*
X116521666Y-66675907D01*
X116434069Y-66804110D01*
X116383060Y-67056000D01*
X116383060Y-67564000D01*
X116427338Y-67799317D01*
X116432223Y-67806909D01*
X115424259Y-68814873D01*
X115365029Y-68814821D01*
X114984485Y-68972058D01*
X114693081Y-69262954D01*
X114535180Y-69643223D01*
X114534821Y-70054971D01*
X111619186Y-70054971D01*
X111418415Y-69920820D01*
X111404090Y-69898559D01*
X111334289Y-69850866D01*
X111391441Y-69814090D01*
X111536431Y-69601890D01*
X111587440Y-69350000D01*
X111587440Y-68938826D01*
X111625000Y-68750000D01*
X111625000Y-68542132D01*
X111986331Y-68180801D01*
X112058817Y-68167162D01*
X112274941Y-68028090D01*
X112419931Y-67815890D01*
X112470940Y-67564000D01*
X112470940Y-67056000D01*
X112426662Y-66820683D01*
X112335896Y-66679629D01*
X112361827Y-66653698D01*
X112458500Y-66420309D01*
X112458500Y-66325750D01*
X112299750Y-66167000D01*
X111379000Y-66167000D01*
X111379000Y-66187000D01*
X111312328Y-66187000D01*
X111252000Y-66175000D01*
X111191672Y-66187000D01*
X111125000Y-66187000D01*
X111125000Y-66167000D01*
X110204250Y-66167000D01*
X110045500Y-66325750D01*
X110045500Y-66420309D01*
X110142173Y-66653698D01*
X110168709Y-66680235D01*
X110084069Y-66804110D01*
X110066627Y-66890241D01*
X109687434Y-67269434D01*
X109441397Y-67637654D01*
X109355000Y-68072000D01*
X109355000Y-68750000D01*
X109392560Y-68938826D01*
X109392560Y-69350000D01*
X109436838Y-69585317D01*
X109575910Y-69801441D01*
X109595754Y-69815000D01*
X108885133Y-69815000D01*
X107815000Y-68744868D01*
X107815000Y-64516000D01*
X110033060Y-64516000D01*
X110033060Y-65024000D01*
X110077338Y-65259317D01*
X110168104Y-65400371D01*
X110142173Y-65426302D01*
X110045500Y-65659691D01*
X110045500Y-65754250D01*
X110204250Y-65913000D01*
X111125000Y-65913000D01*
X111125000Y-65893000D01*
X111379000Y-65893000D01*
X111379000Y-65913000D01*
X112299750Y-65913000D01*
X112458500Y-65754250D01*
X112458500Y-65659691D01*
X112361827Y-65426302D01*
X112335291Y-65399765D01*
X112419931Y-65275890D01*
X112470940Y-65024000D01*
X112470940Y-64516000D01*
X112426662Y-64280683D01*
X112335896Y-64139629D01*
X112361827Y-64113698D01*
X112458500Y-63880309D01*
X112458500Y-63785750D01*
X112299750Y-63627000D01*
X111379000Y-63627000D01*
X111379000Y-63647000D01*
X111125000Y-63647000D01*
X111125000Y-63627000D01*
X110204250Y-63627000D01*
X110045500Y-63785750D01*
X110045500Y-63880309D01*
X110142173Y-64113698D01*
X110168709Y-64140235D01*
X110084069Y-64264110D01*
X110033060Y-64516000D01*
X107815000Y-64516000D01*
X107815000Y-61976000D01*
X110033060Y-61976000D01*
X110033060Y-62484000D01*
X110077338Y-62719317D01*
X110168104Y-62860371D01*
X110142173Y-62886302D01*
X110045500Y-63119691D01*
X110045500Y-63214250D01*
X110204250Y-63373000D01*
X111125000Y-63373000D01*
X111125000Y-63353000D01*
X111379000Y-63353000D01*
X111379000Y-63373000D01*
X112299750Y-63373000D01*
X112426750Y-63246000D01*
X116383060Y-63246000D01*
X116383060Y-63754000D01*
X116427338Y-63989317D01*
X116518104Y-64130371D01*
X116492173Y-64156302D01*
X116395500Y-64389691D01*
X116395500Y-64484250D01*
X116554250Y-64643000D01*
X117475000Y-64643000D01*
X117475000Y-64623000D01*
X117729000Y-64623000D01*
X117729000Y-64643000D01*
X118649750Y-64643000D01*
X118808500Y-64484250D01*
X118808500Y-64389691D01*
X118711827Y-64156302D01*
X118685291Y-64129765D01*
X118769931Y-64005890D01*
X118820940Y-63754000D01*
X118820940Y-63246000D01*
X118776662Y-63010683D01*
X118685896Y-62869629D01*
X118711827Y-62843698D01*
X118808500Y-62610309D01*
X118808500Y-62515750D01*
X118649750Y-62357000D01*
X117729000Y-62357000D01*
X117729000Y-62377000D01*
X117475000Y-62377000D01*
X117475000Y-62357000D01*
X116554250Y-62357000D01*
X116395500Y-62515750D01*
X116395500Y-62610309D01*
X116492173Y-62843698D01*
X116518709Y-62870235D01*
X116434069Y-62994110D01*
X116383060Y-63246000D01*
X112426750Y-63246000D01*
X112458500Y-63214250D01*
X112458500Y-63119691D01*
X112361827Y-62886302D01*
X112335291Y-62859765D01*
X112419931Y-62735890D01*
X112470940Y-62484000D01*
X112470940Y-61976000D01*
X112426662Y-61740683D01*
X112335896Y-61599629D01*
X112361827Y-61573698D01*
X112458500Y-61340309D01*
X112458500Y-61245750D01*
X112299750Y-61087000D01*
X111379000Y-61087000D01*
X111379000Y-61107000D01*
X111125000Y-61107000D01*
X111125000Y-61087000D01*
X110204250Y-61087000D01*
X110045500Y-61245750D01*
X110045500Y-61340309D01*
X110142173Y-61573698D01*
X110168709Y-61600235D01*
X110084069Y-61724110D01*
X110033060Y-61976000D01*
X107815000Y-61976000D01*
X107815000Y-59436000D01*
X110033060Y-59436000D01*
X110033060Y-59944000D01*
X110077338Y-60179317D01*
X110168104Y-60320371D01*
X110142173Y-60346302D01*
X110045500Y-60579691D01*
X110045500Y-60674250D01*
X110204250Y-60833000D01*
X111125000Y-60833000D01*
X111125000Y-60813000D01*
X111379000Y-60813000D01*
X111379000Y-60833000D01*
X112299750Y-60833000D01*
X112458500Y-60674250D01*
X112458500Y-60579691D01*
X112361827Y-60346302D01*
X112335291Y-60319765D01*
X112419931Y-60195890D01*
X112470940Y-59944000D01*
X112470940Y-59436000D01*
X112426662Y-59200683D01*
X112287590Y-58984559D01*
X112075390Y-58839569D01*
X111823500Y-58788560D01*
X110680500Y-58788560D01*
X110445183Y-58832838D01*
X110229059Y-58971910D01*
X110084069Y-59184110D01*
X110033060Y-59436000D01*
X107815000Y-59436000D01*
X107815000Y-58624971D01*
X114534821Y-58624971D01*
X114692058Y-59005515D01*
X114982954Y-59296919D01*
X115363223Y-59454820D01*
X115774971Y-59455179D01*
X116155515Y-59297942D01*
X116446919Y-59007046D01*
X116604820Y-58626777D01*
X116604826Y-58620000D01*
X117275224Y-58620000D01*
X117167654Y-58641397D01*
X116914838Y-58810323D01*
X116795183Y-58832838D01*
X116579059Y-58971910D01*
X116434069Y-59184110D01*
X116383060Y-59436000D01*
X116383060Y-59944000D01*
X116427338Y-60179317D01*
X116521666Y-60325907D01*
X116434069Y-60454110D01*
X116383060Y-60706000D01*
X116383060Y-61214000D01*
X116427338Y-61449317D01*
X116518104Y-61590371D01*
X116492173Y-61616302D01*
X116395500Y-61849691D01*
X116395500Y-61944250D01*
X116554250Y-62103000D01*
X117475000Y-62103000D01*
X117475000Y-62083000D01*
X117729000Y-62083000D01*
X117729000Y-62103000D01*
X118649750Y-62103000D01*
X118808500Y-61944250D01*
X118808500Y-61849691D01*
X118711827Y-61616302D01*
X118685291Y-61589765D01*
X118769931Y-61465890D01*
X118820940Y-61214000D01*
X118820940Y-60825000D01*
X119550000Y-60825000D01*
X119738826Y-60787440D01*
X120150000Y-60787440D01*
X120385317Y-60743162D01*
X120601441Y-60604090D01*
X120647969Y-60535994D01*
X120790302Y-60678327D01*
X121023691Y-60775000D01*
X121464250Y-60775000D01*
X121623000Y-60616250D01*
X121623000Y-59817000D01*
X121877000Y-59817000D01*
X121877000Y-60616250D01*
X122035750Y-60775000D01*
X122476309Y-60775000D01*
X122709698Y-60678327D01*
X122888327Y-60499699D01*
X122985000Y-60266310D01*
X122985000Y-59975750D01*
X122826250Y-59817000D01*
X121877000Y-59817000D01*
X121623000Y-59817000D01*
X121603000Y-59817000D01*
X121603000Y-59563000D01*
X121623000Y-59563000D01*
X121623000Y-59543000D01*
X121877000Y-59543000D01*
X121877000Y-59563000D01*
X122826250Y-59563000D01*
X122985000Y-59404250D01*
X122985000Y-59113690D01*
X122888327Y-58880301D01*
X122709698Y-58701673D01*
X122512522Y-58620000D01*
X154108225Y-58620000D01*
X154005162Y-58868201D01*
X154004838Y-59240167D01*
X154146883Y-59583943D01*
X154409673Y-59847192D01*
X154753201Y-59989838D01*
X155110887Y-59990150D01*
X155870118Y-60369765D01*
X155896457Y-60376978D01*
X155919161Y-60392148D01*
X156038637Y-60415913D01*
X156156124Y-60448087D01*
X156183214Y-60444672D01*
X156210000Y-60450000D01*
X164299367Y-60450000D01*
X164165162Y-60773201D01*
X164164849Y-61132560D01*
X163060000Y-61132560D01*
X162824683Y-61176838D01*
X162608559Y-61315910D01*
X162560866Y-61385711D01*
X162524090Y-61328559D01*
X162311890Y-61183569D01*
X162060000Y-61132560D01*
X160860000Y-61132560D01*
X160624683Y-61176838D01*
X160408559Y-61315910D01*
X160375011Y-61365010D01*
X160206799Y-61295162D01*
X159834833Y-61294838D01*
X159491057Y-61436883D01*
X159227808Y-61699673D01*
X159085162Y-62043201D01*
X159084838Y-62415167D01*
X159226883Y-62758943D01*
X159489673Y-63022192D01*
X159833201Y-63164838D01*
X160205167Y-63165162D01*
X160372988Y-63095820D01*
X160395910Y-63131441D01*
X160608110Y-63276431D01*
X160860000Y-63327440D01*
X161657758Y-63327440D01*
X161628454Y-63356744D01*
X161576691Y-63335250D01*
X161005813Y-63334752D01*
X160478200Y-63552757D01*
X160074176Y-63956077D01*
X159855250Y-64483309D01*
X159854752Y-65054187D01*
X160072757Y-65581800D01*
X160476077Y-65985824D01*
X161003309Y-66204750D01*
X161574187Y-66205248D01*
X162101800Y-65987243D01*
X162311663Y-65777745D01*
X162961861Y-65777745D01*
X163035995Y-66023864D01*
X163573223Y-66216965D01*
X164143454Y-66189778D01*
X164544005Y-66023864D01*
X164618139Y-65777745D01*
X163790000Y-64949605D01*
X162961861Y-65777745D01*
X162311663Y-65777745D01*
X162505824Y-65583923D01*
X162533423Y-65517456D01*
X162536136Y-65524005D01*
X162782255Y-65598139D01*
X163610395Y-64770000D01*
X163969605Y-64770000D01*
X164797745Y-65598139D01*
X165043864Y-65524005D01*
X165236965Y-64986777D01*
X165209778Y-64416546D01*
X165043864Y-64015995D01*
X164797745Y-63941861D01*
X163969605Y-64770000D01*
X163610395Y-64770000D01*
X163596252Y-64755858D01*
X163775858Y-64576252D01*
X163790000Y-64590395D01*
X164618139Y-63762255D01*
X164544005Y-63516136D01*
X164019032Y-63327440D01*
X164260000Y-63327440D01*
X164495317Y-63283162D01*
X164711441Y-63144090D01*
X164856431Y-62931890D01*
X164907440Y-62680000D01*
X164907440Y-61892446D01*
X164913201Y-61894838D01*
X164960077Y-61894879D01*
X165832599Y-62767401D01*
X166079160Y-62932148D01*
X166370000Y-62990000D01*
X168967005Y-62990000D01*
X169137189Y-63244698D01*
X169519275Y-63500000D01*
X169137189Y-63755302D01*
X168826120Y-64220849D01*
X168716887Y-64770000D01*
X168826120Y-65319151D01*
X169137189Y-65784698D01*
X169602736Y-66095767D01*
X170151887Y-66205000D01*
X170208113Y-66205000D01*
X170757264Y-66095767D01*
X171222811Y-65784698D01*
X171533880Y-65319151D01*
X171573684Y-65119039D01*
X176408096Y-65119039D01*
X176568959Y-65507423D01*
X176944866Y-65922389D01*
X177450959Y-66161914D01*
X177673000Y-66040629D01*
X177673000Y-64897000D01*
X177927000Y-64897000D01*
X177927000Y-66040629D01*
X178149041Y-66161914D01*
X178655134Y-65922389D01*
X179031041Y-65507423D01*
X179191904Y-65119039D01*
X179069915Y-64897000D01*
X177927000Y-64897000D01*
X177673000Y-64897000D01*
X176530085Y-64897000D01*
X176408096Y-65119039D01*
X171573684Y-65119039D01*
X171643113Y-64770000D01*
X171533880Y-64220849D01*
X171222811Y-63755302D01*
X170840725Y-63500000D01*
X171222811Y-63244698D01*
X171533880Y-62779151D01*
X171573684Y-62579039D01*
X176408096Y-62579039D01*
X176568959Y-62967423D01*
X176944866Y-63382389D01*
X177193367Y-63500000D01*
X176944866Y-63617611D01*
X176568959Y-64032577D01*
X176408096Y-64420961D01*
X176530085Y-64643000D01*
X177673000Y-64643000D01*
X177673000Y-62357000D01*
X177927000Y-62357000D01*
X177927000Y-64643000D01*
X179069915Y-64643000D01*
X179191904Y-64420961D01*
X179031041Y-64032577D01*
X178695345Y-63662000D01*
X180362560Y-63662000D01*
X180362560Y-64862000D01*
X180406838Y-65097317D01*
X180545910Y-65313441D01*
X180758110Y-65458431D01*
X181010000Y-65509440D01*
X182210000Y-65509440D01*
X182445317Y-65465162D01*
X182661441Y-65326090D01*
X182728150Y-65228458D01*
X182831871Y-65124737D01*
X182881383Y-65350164D01*
X183346036Y-65509807D01*
X183836413Y-65479482D01*
X184148617Y-65350164D01*
X184198130Y-65124735D01*
X183515000Y-64441605D01*
X183500858Y-64455748D01*
X183321253Y-64276143D01*
X183335395Y-64262000D01*
X183321253Y-64247858D01*
X183500858Y-64068253D01*
X183515000Y-64082395D01*
X184198130Y-63399265D01*
X184148617Y-63173836D01*
X183683964Y-63014193D01*
X183193587Y-63044518D01*
X182881383Y-63173836D01*
X182831871Y-63399263D01*
X182729903Y-63297295D01*
X182674090Y-63210559D01*
X182461890Y-63065569D01*
X182210000Y-63014560D01*
X181010000Y-63014560D01*
X180774683Y-63058838D01*
X180558559Y-63197910D01*
X180413569Y-63410110D01*
X180362560Y-63662000D01*
X178695345Y-63662000D01*
X178655134Y-63617611D01*
X178406633Y-63500000D01*
X178655134Y-63382389D01*
X179031041Y-62967423D01*
X179191904Y-62579039D01*
X179069915Y-62357000D01*
X177927000Y-62357000D01*
X177673000Y-62357000D01*
X176530085Y-62357000D01*
X176408096Y-62579039D01*
X171573684Y-62579039D01*
X171643113Y-62230000D01*
X171533880Y-61680849D01*
X171222811Y-61215302D01*
X171078535Y-61118899D01*
X171215317Y-61093162D01*
X171431441Y-60954090D01*
X171576431Y-60741890D01*
X171627440Y-60490000D01*
X171627440Y-60039039D01*
X176408096Y-60039039D01*
X176568959Y-60427423D01*
X176944866Y-60842389D01*
X177193367Y-60960000D01*
X176944866Y-61077611D01*
X176568959Y-61492577D01*
X176408096Y-61880961D01*
X176530085Y-62103000D01*
X177673000Y-62103000D01*
X177673000Y-59817000D01*
X177927000Y-59817000D01*
X177927000Y-62103000D01*
X179069915Y-62103000D01*
X179191904Y-61880961D01*
X179031041Y-61492577D01*
X178655134Y-61077611D01*
X178406633Y-60960000D01*
X178655134Y-60842389D01*
X179031041Y-60427423D01*
X179191904Y-60039039D01*
X179069915Y-59817000D01*
X177927000Y-59817000D01*
X177673000Y-59817000D01*
X176530085Y-59817000D01*
X176408096Y-60039039D01*
X171627440Y-60039039D01*
X171627440Y-59340961D01*
X176408096Y-59340961D01*
X176530085Y-59563000D01*
X177673000Y-59563000D01*
X177673000Y-58419371D01*
X177927000Y-58419371D01*
X177927000Y-59563000D01*
X179069915Y-59563000D01*
X179191904Y-59340961D01*
X179031041Y-58952577D01*
X178655134Y-58537611D01*
X178149041Y-58298086D01*
X177927000Y-58419371D01*
X177673000Y-58419371D01*
X177450959Y-58298086D01*
X176944866Y-58537611D01*
X176568959Y-58952577D01*
X176408096Y-59340961D01*
X171627440Y-59340961D01*
X171627440Y-58890000D01*
X171583162Y-58654683D01*
X171444090Y-58438559D01*
X171231890Y-58293569D01*
X170980000Y-58242560D01*
X169380000Y-58242560D01*
X169144683Y-58286838D01*
X168928559Y-58425910D01*
X168783569Y-58638110D01*
X168732560Y-58890000D01*
X168732560Y-58930000D01*
X159658911Y-58930000D01*
X159784820Y-58626777D01*
X159785179Y-58215029D01*
X159690133Y-57985000D01*
X162607159Y-57985000D01*
X162750853Y-58200054D01*
X163232622Y-58521961D01*
X163800907Y-58635000D01*
X163859093Y-58635000D01*
X164427378Y-58521961D01*
X164909147Y-58200054D01*
X164909971Y-58198821D01*
X164916838Y-58235317D01*
X165055910Y-58451441D01*
X165268110Y-58596431D01*
X165520000Y-58647440D01*
X167220000Y-58647440D01*
X167455317Y-58603162D01*
X167671441Y-58464090D01*
X167816431Y-58251890D01*
X167867440Y-58000000D01*
X167867440Y-56300000D01*
X167823162Y-56064683D01*
X167702985Y-55877923D01*
X167816431Y-55711890D01*
X167867440Y-55460000D01*
X167867440Y-53760000D01*
X167823162Y-53524683D01*
X167684090Y-53308559D01*
X167471890Y-53163569D01*
X167220000Y-53112560D01*
X165520000Y-53112560D01*
X165284683Y-53156838D01*
X165263597Y-53170406D01*
X165315000Y-53046309D01*
X165315000Y-52355750D01*
X165156250Y-52197000D01*
X163957000Y-52197000D01*
X163957000Y-52217000D01*
X163703000Y-52217000D01*
X163703000Y-52197000D01*
X163683000Y-52197000D01*
X163683000Y-51943000D01*
X163703000Y-51943000D01*
X163703000Y-51923000D01*
X163957000Y-51923000D01*
X163957000Y-51943000D01*
X165156250Y-51943000D01*
X165315000Y-51784250D01*
X165315000Y-51093691D01*
X165265766Y-50974829D01*
X165268110Y-50976431D01*
X165520000Y-51027440D01*
X167220000Y-51027440D01*
X167455317Y-50983162D01*
X167671441Y-50844090D01*
X167816431Y-50631890D01*
X167867440Y-50380000D01*
X167867440Y-48680000D01*
X167823162Y-48444683D01*
X167702985Y-48257923D01*
X167816431Y-48091890D01*
X167867440Y-47840000D01*
X167867440Y-47750000D01*
X167960198Y-47750000D01*
X168150000Y-47939802D01*
X168150000Y-54610000D01*
X168207852Y-54900839D01*
X168372599Y-55147401D01*
X169244878Y-56019680D01*
X169244838Y-56065167D01*
X169386883Y-56408943D01*
X169649673Y-56672192D01*
X169993201Y-56814838D01*
X170365167Y-56815162D01*
X170708943Y-56673117D01*
X170972192Y-56410327D01*
X171114838Y-56066799D01*
X171115162Y-55694833D01*
X170973117Y-55351057D01*
X170710327Y-55087808D01*
X170366799Y-54945162D01*
X170319923Y-54945121D01*
X169670000Y-54295198D01*
X169670000Y-47625000D01*
X169612148Y-47334161D01*
X169447401Y-47087599D01*
X168812401Y-46452599D01*
X168565839Y-46287852D01*
X168275000Y-46230000D01*
X167867440Y-46230000D01*
X167867440Y-46140000D01*
X167823162Y-45904683D01*
X167778805Y-45835750D01*
X171000000Y-45835750D01*
X171000000Y-46276309D01*
X171096673Y-46509698D01*
X171275301Y-46688327D01*
X171508690Y-46785000D01*
X171799250Y-46785000D01*
X171958000Y-46626250D01*
X171958000Y-45677000D01*
X171158750Y-45677000D01*
X171000000Y-45835750D01*
X167778805Y-45835750D01*
X167684090Y-45688559D01*
X167471890Y-45543569D01*
X167220000Y-45492560D01*
X165520000Y-45492560D01*
X165284683Y-45536838D01*
X165068559Y-45675910D01*
X164923569Y-45888110D01*
X164912159Y-45944454D01*
X164909147Y-45939946D01*
X164427378Y-45618039D01*
X163859093Y-45505000D01*
X163800907Y-45505000D01*
X163232622Y-45618039D01*
X162750853Y-45939946D01*
X162428946Y-46421715D01*
X162364502Y-46745696D01*
X161387599Y-47722599D01*
X161222852Y-47969161D01*
X161165000Y-48260000D01*
X161165000Y-50872537D01*
X161132808Y-50904673D01*
X160990162Y-51248201D01*
X160989838Y-51620167D01*
X161131883Y-51963943D01*
X161394673Y-52227192D01*
X161738201Y-52369838D01*
X162110167Y-52370162D01*
X162453943Y-52228117D01*
X162485112Y-52197002D01*
X162503748Y-52197002D01*
X162345000Y-52355750D01*
X162345000Y-53046309D01*
X162441673Y-53279698D01*
X162620301Y-53458327D01*
X162794777Y-53530597D01*
X162750853Y-53559946D01*
X162607159Y-53775000D01*
X157825868Y-53775000D01*
X156610127Y-52559259D01*
X156610179Y-52500029D01*
X156452942Y-52119485D01*
X156162046Y-51828081D01*
X155781777Y-51670180D01*
X155370029Y-51669821D01*
X154989485Y-51827058D01*
X154698081Y-52117954D01*
X154540180Y-52498223D01*
X154539821Y-52909971D01*
X154697058Y-53290515D01*
X154746288Y-53339831D01*
X154698081Y-53387954D01*
X154540180Y-53768223D01*
X154539821Y-54179971D01*
X154697058Y-54560515D01*
X154987954Y-54851919D01*
X155368223Y-55009820D01*
X155429005Y-55009873D01*
X157369132Y-56950000D01*
X116205000Y-56950000D01*
X115885460Y-57013560D01*
X115614566Y-57194566D01*
X115424259Y-57384873D01*
X115365029Y-57384821D01*
X114984485Y-57542058D01*
X114693081Y-57832954D01*
X114535180Y-58213223D01*
X114534821Y-58624971D01*
X107815000Y-58624971D01*
X107815000Y-52540132D01*
X126200132Y-34155000D01*
X161651264Y-34155000D01*
X161740405Y-34244297D01*
X162271311Y-34464748D01*
X162846167Y-34465250D01*
X163377457Y-34245725D01*
X163468341Y-34155000D01*
X164215000Y-34155000D01*
X164215000Y-34266614D01*
X164128569Y-34393110D01*
X164077560Y-34645000D01*
X164077560Y-35845000D01*
X164121838Y-36080317D01*
X164195620Y-36194978D01*
X164128569Y-36293110D01*
X164077560Y-36545000D01*
X164077560Y-37092638D01*
X163910198Y-37260000D01*
X163809466Y-37260000D01*
X163785725Y-37202543D01*
X163379595Y-36795703D01*
X162848689Y-36575252D01*
X162273833Y-36574750D01*
X161742543Y-36794275D01*
X161335703Y-37200405D01*
X161115252Y-37731311D01*
X161114750Y-38306167D01*
X161334275Y-38837457D01*
X161740405Y-39244297D01*
X162271311Y-39464748D01*
X162846167Y-39465250D01*
X163377457Y-39245725D01*
X163784297Y-38839595D01*
X163809043Y-38780000D01*
X164225000Y-38780000D01*
X164515839Y-38722148D01*
X164762401Y-38557401D01*
X164927362Y-38392440D01*
X164952638Y-38392440D01*
X165197599Y-38637401D01*
X165444161Y-38802148D01*
X165735000Y-38860000D01*
X167640000Y-38860000D01*
X167930839Y-38802148D01*
X168177401Y-38637401D01*
X170082401Y-36732401D01*
X170247148Y-36485839D01*
X170305000Y-36195000D01*
X170305000Y-35487463D01*
X170337192Y-35455327D01*
X170479838Y-35111799D01*
X170479872Y-35073274D01*
X170555910Y-35191441D01*
X170768110Y-35336431D01*
X171020000Y-35387440D01*
X172220000Y-35387440D01*
X172455317Y-35343162D01*
X172671441Y-35204090D01*
X172717969Y-35135994D01*
X172860302Y-35278327D01*
X173093691Y-35375000D01*
X173534250Y-35375000D01*
X173693000Y-35216250D01*
X173693000Y-34417000D01*
X173947000Y-34417000D01*
X173947000Y-35216250D01*
X174105750Y-35375000D01*
X174546309Y-35375000D01*
X174779698Y-35278327D01*
X174958327Y-35099699D01*
X175055000Y-34866310D01*
X175055000Y-34575750D01*
X174896250Y-34417000D01*
X173947000Y-34417000D01*
X173693000Y-34417000D01*
X173673000Y-34417000D01*
X173673000Y-34163000D01*
X173693000Y-34163000D01*
X173693000Y-33363750D01*
X173947000Y-33363750D01*
X173947000Y-34163000D01*
X174896250Y-34163000D01*
X175055000Y-34004250D01*
X175055000Y-33713690D01*
X175045188Y-33690000D01*
X180362560Y-33690000D01*
X180362560Y-34890000D01*
X180406838Y-35125317D01*
X180545910Y-35341441D01*
X180758110Y-35486431D01*
X181010000Y-35537440D01*
X182210000Y-35537440D01*
X182445317Y-35493162D01*
X182572636Y-35411234D01*
X182941036Y-35537807D01*
X183431413Y-35507482D01*
X183743617Y-35378164D01*
X183793130Y-35152735D01*
X183110000Y-34469605D01*
X183095858Y-34483748D01*
X182916253Y-34304143D01*
X182930395Y-34290000D01*
X183289605Y-34290000D01*
X183972735Y-34973130D01*
X184198164Y-34923617D01*
X184357807Y-34458964D01*
X184327482Y-33968587D01*
X184198164Y-33656383D01*
X183972735Y-33606870D01*
X183289605Y-34290000D01*
X182930395Y-34290000D01*
X182916253Y-34275858D01*
X183095858Y-34096253D01*
X183110000Y-34110395D01*
X183720395Y-33500000D01*
X188790000Y-33500000D01*
X188958226Y-34345730D01*
X189437294Y-35062706D01*
X190154270Y-35541774D01*
X191000000Y-35710000D01*
X191845730Y-35541774D01*
X192562706Y-35062706D01*
X193041774Y-34345730D01*
X193210000Y-33500000D01*
X193041774Y-32654270D01*
X192562706Y-31937294D01*
X191845730Y-31458226D01*
X191000000Y-31290000D01*
X190154270Y-31458226D01*
X189437294Y-31937294D01*
X188958226Y-32654270D01*
X188790000Y-33500000D01*
X183720395Y-33500000D01*
X183793130Y-33427265D01*
X183743617Y-33201836D01*
X183278964Y-33042193D01*
X182788587Y-33072518D01*
X182566010Y-33164711D01*
X182461890Y-33093569D01*
X182210000Y-33042560D01*
X181010000Y-33042560D01*
X180774683Y-33086838D01*
X180558559Y-33225910D01*
X180413569Y-33438110D01*
X180362560Y-33690000D01*
X175045188Y-33690000D01*
X174958327Y-33480301D01*
X174779698Y-33301673D01*
X174546309Y-33205000D01*
X174105750Y-33205000D01*
X173947000Y-33363750D01*
X173693000Y-33363750D01*
X173534250Y-33205000D01*
X173093691Y-33205000D01*
X172860302Y-33301673D01*
X172719064Y-33442910D01*
X172684090Y-33388559D01*
X172471890Y-33243569D01*
X172220000Y-33192560D01*
X171020000Y-33192560D01*
X170784683Y-33236838D01*
X170568559Y-33375910D01*
X170463274Y-33530000D01*
X170180000Y-33530000D01*
X169961711Y-33573421D01*
X170650132Y-32885000D01*
X175706042Y-32885000D01*
X175744436Y-32923461D01*
X176253298Y-33134759D01*
X176804285Y-33135240D01*
X177313515Y-32924831D01*
X177703461Y-32535564D01*
X177914759Y-32026702D01*
X177915240Y-31475715D01*
X177704831Y-30966485D01*
X177448793Y-30710000D01*
X194183000Y-30710000D01*
X194183000Y-59873170D01*
X194086370Y-59776371D01*
X193573100Y-59563243D01*
X193017339Y-59562758D01*
X192867469Y-59624683D01*
X192905000Y-59436000D01*
X192905000Y-58326484D01*
X193154846Y-58077073D01*
X193404206Y-57476547D01*
X193404774Y-56826306D01*
X193156462Y-56225345D01*
X192697073Y-55765154D01*
X192096547Y-55515794D01*
X191446306Y-55515226D01*
X190845345Y-55763538D01*
X190385154Y-56222927D01*
X190135794Y-56823453D01*
X190135226Y-57473694D01*
X190383538Y-58074655D01*
X190635000Y-58326556D01*
X190635000Y-58965867D01*
X190038050Y-59562818D01*
X189969339Y-59562758D01*
X189730000Y-59661651D01*
X189730000Y-58735000D01*
X189643603Y-58300654D01*
X189397566Y-57932434D01*
X185957295Y-54492163D01*
X190797443Y-54492163D01*
X190896042Y-54758965D01*
X191505582Y-54985401D01*
X192155377Y-54961341D01*
X192643958Y-54758965D01*
X192742557Y-54492163D01*
X191770000Y-53519605D01*
X190797443Y-54492163D01*
X185957295Y-54492163D01*
X184540714Y-53075582D01*
X190124599Y-53075582D01*
X190148659Y-53725377D01*
X190351035Y-54213958D01*
X190617837Y-54312557D01*
X191590395Y-53340000D01*
X191949605Y-53340000D01*
X192922163Y-54312557D01*
X193188965Y-54213958D01*
X193415401Y-53604418D01*
X193391341Y-52954623D01*
X193188965Y-52466042D01*
X192922163Y-52367443D01*
X191949605Y-53340000D01*
X191590395Y-53340000D01*
X190617837Y-52367443D01*
X190351035Y-52466042D01*
X190124599Y-53075582D01*
X184540714Y-53075582D01*
X183652969Y-52187837D01*
X190797443Y-52187837D01*
X191770000Y-53160395D01*
X192742557Y-52187837D01*
X192643958Y-51921035D01*
X192034418Y-51694599D01*
X191384623Y-51718659D01*
X190896042Y-51921035D01*
X190797443Y-52187837D01*
X183652969Y-52187837D01*
X181635000Y-50169868D01*
X181635000Y-50074152D01*
X181750000Y-50097440D01*
X185250000Y-50097440D01*
X185485317Y-50053162D01*
X185701441Y-49914090D01*
X185846431Y-49701890D01*
X185897440Y-49450000D01*
X185897440Y-45950000D01*
X185853162Y-45714683D01*
X185714090Y-45498559D01*
X185547891Y-45385000D01*
X186214250Y-45385000D01*
X186373000Y-45226250D01*
X186373000Y-43127000D01*
X186627000Y-43127000D01*
X186627000Y-45226250D01*
X186785750Y-45385000D01*
X188376309Y-45385000D01*
X188609698Y-45288327D01*
X188788327Y-45109699D01*
X188885000Y-44876310D01*
X188885000Y-43285750D01*
X188726250Y-43127000D01*
X186627000Y-43127000D01*
X186373000Y-43127000D01*
X184273750Y-43127000D01*
X184115000Y-43285750D01*
X184115000Y-44876310D01*
X184211673Y-45109699D01*
X184390302Y-45288327D01*
X184424663Y-45302560D01*
X182563955Y-45302560D01*
X182701441Y-45214090D01*
X182846431Y-45001890D01*
X182897440Y-44750000D01*
X182897440Y-41250000D01*
X182873674Y-41123690D01*
X184115000Y-41123690D01*
X184115000Y-42714250D01*
X184273750Y-42873000D01*
X186373000Y-42873000D01*
X186373000Y-40773750D01*
X186627000Y-40773750D01*
X186627000Y-42873000D01*
X188726250Y-42873000D01*
X188885000Y-42714250D01*
X188885000Y-41123690D01*
X188788327Y-40890301D01*
X188609698Y-40711673D01*
X188376309Y-40615000D01*
X186785750Y-40615000D01*
X186627000Y-40773750D01*
X186373000Y-40773750D01*
X186214250Y-40615000D01*
X184623691Y-40615000D01*
X184390302Y-40711673D01*
X184211673Y-40890301D01*
X184115000Y-41123690D01*
X182873674Y-41123690D01*
X182853162Y-41014683D01*
X182714090Y-40798559D01*
X182501890Y-40653569D01*
X182250000Y-40602560D01*
X178750000Y-40602560D01*
X178514683Y-40646838D01*
X178298559Y-40785910D01*
X178153569Y-40998110D01*
X178102560Y-41250000D01*
X178102560Y-44750000D01*
X178146838Y-44985317D01*
X178285910Y-45201441D01*
X178498110Y-45346431D01*
X178750000Y-45397440D01*
X179365000Y-45397440D01*
X179365000Y-49385198D01*
X176458461Y-46478659D01*
X176687192Y-46250327D01*
X176829838Y-45906799D01*
X176830162Y-45534833D01*
X176688117Y-45191057D01*
X176642042Y-45144902D01*
X176671431Y-45101890D01*
X176722440Y-44850000D01*
X176722440Y-44050000D01*
X176678162Y-43814683D01*
X176539090Y-43598559D01*
X176326890Y-43453569D01*
X176075000Y-43402560D01*
X175175000Y-43402560D01*
X174939683Y-43446838D01*
X174780388Y-43549342D01*
X174722440Y-43494291D01*
X174722440Y-43100000D01*
X174678162Y-42864683D01*
X174539090Y-42648559D01*
X174326890Y-42503569D01*
X174241673Y-42486312D01*
X174282440Y-42285000D01*
X174282440Y-41535000D01*
X174238162Y-41299683D01*
X174099090Y-41083559D01*
X174055540Y-41053803D01*
X174162401Y-40982401D01*
X174180766Y-40954916D01*
X174236441Y-40919090D01*
X174381431Y-40706890D01*
X174432440Y-40455000D01*
X174432440Y-39555000D01*
X174388162Y-39319683D01*
X174249090Y-39103559D01*
X174036890Y-38958569D01*
X173785000Y-38907560D01*
X172585000Y-38907560D01*
X172349683Y-38951838D01*
X172133559Y-39090910D01*
X172085866Y-39160711D01*
X172049090Y-39103559D01*
X171836890Y-38958569D01*
X171585000Y-38907560D01*
X170385000Y-38907560D01*
X170366995Y-38910948D01*
X170338117Y-38841057D01*
X170075327Y-38577808D01*
X169731799Y-38435162D01*
X169359833Y-38434838D01*
X169016057Y-38576883D01*
X168752808Y-38839673D01*
X168610162Y-39183201D01*
X168610121Y-39230077D01*
X167960198Y-39880000D01*
X159385000Y-39880000D01*
X159094161Y-39937852D01*
X158847599Y-40102599D01*
X149957599Y-48992599D01*
X149792852Y-49239161D01*
X149735000Y-49530000D01*
X149735000Y-54047537D01*
X149702808Y-54079673D01*
X149560162Y-54423201D01*
X149559838Y-54795167D01*
X149701883Y-55138943D01*
X149964673Y-55402192D01*
X150308201Y-55544838D01*
X150680167Y-55545162D01*
X150935430Y-55439690D01*
X150830162Y-55693201D01*
X150829838Y-56065167D01*
X150971883Y-56408943D01*
X151234673Y-56672192D01*
X151578201Y-56814838D01*
X151950167Y-56815162D01*
X152293943Y-56673117D01*
X152557192Y-56410327D01*
X152699838Y-56066799D01*
X152700162Y-55694833D01*
X152558117Y-55351057D01*
X152525000Y-55317882D01*
X152525000Y-49844802D01*
X159699802Y-42670000D01*
X168445000Y-42670000D01*
X168735839Y-42612148D01*
X168982401Y-42447401D01*
X169900000Y-41529802D01*
X169900000Y-41624250D01*
X170058750Y-41783000D01*
X171008000Y-41783000D01*
X171008000Y-41763000D01*
X171262000Y-41763000D01*
X171262000Y-41783000D01*
X171282000Y-41783000D01*
X171282000Y-42037000D01*
X171262000Y-42037000D01*
X171262000Y-42057000D01*
X171008000Y-42057000D01*
X171008000Y-42037000D01*
X170058750Y-42037000D01*
X169900000Y-42195750D01*
X169900000Y-42411310D01*
X169996673Y-42644699D01*
X170175302Y-42823327D01*
X170408691Y-42920000D01*
X170849250Y-42920000D01*
X170987560Y-42781690D01*
X170987560Y-43950000D01*
X171031838Y-44185317D01*
X171170910Y-44401441D01*
X171239006Y-44447969D01*
X171096673Y-44590302D01*
X171000000Y-44823691D01*
X171000000Y-45264250D01*
X171158750Y-45423000D01*
X171958000Y-45423000D01*
X171958000Y-45403000D01*
X172212000Y-45403000D01*
X172212000Y-45423000D01*
X172232000Y-45423000D01*
X172232000Y-45677000D01*
X172212000Y-45677000D01*
X172212000Y-46626250D01*
X172370750Y-46785000D01*
X172661310Y-46785000D01*
X172894699Y-46688327D01*
X173073327Y-46509698D01*
X173104268Y-46435000D01*
X173339250Y-46435000D01*
X173498000Y-46276250D01*
X173498000Y-45527000D01*
X173478000Y-45527000D01*
X173478000Y-45273000D01*
X173498000Y-45273000D01*
X173498000Y-45253000D01*
X173752000Y-45253000D01*
X173752000Y-45273000D01*
X173772000Y-45273000D01*
X173772000Y-45527000D01*
X173752000Y-45527000D01*
X173752000Y-46276250D01*
X173910750Y-46435000D01*
X174201309Y-46435000D01*
X174246485Y-46416287D01*
X177279233Y-49449035D01*
X176836670Y-49265267D01*
X176226009Y-49264735D01*
X175661629Y-49497932D01*
X175259677Y-49899182D01*
X174860643Y-49499449D01*
X174296670Y-49265267D01*
X173686009Y-49264735D01*
X173121629Y-49497932D01*
X172953387Y-49665880D01*
X172953162Y-49664683D01*
X172814090Y-49448559D01*
X172601890Y-49303569D01*
X172350000Y-49252560D01*
X170550000Y-49252560D01*
X170314683Y-49296838D01*
X170098559Y-49435910D01*
X169953569Y-49648110D01*
X169902560Y-49900000D01*
X169902560Y-51700000D01*
X169946838Y-51935317D01*
X170085910Y-52151441D01*
X170298110Y-52296431D01*
X170550000Y-52347440D01*
X172350000Y-52347440D01*
X172585317Y-52303162D01*
X172801441Y-52164090D01*
X172946431Y-51951890D01*
X172950567Y-51931466D01*
X173119357Y-52100551D01*
X173683330Y-52334733D01*
X174293991Y-52335265D01*
X174858371Y-52102068D01*
X175260323Y-51700818D01*
X175659357Y-52100551D01*
X175695000Y-52115351D01*
X175695000Y-54936026D01*
X175648559Y-54965910D01*
X175503569Y-55178110D01*
X175452560Y-55430000D01*
X175452560Y-56330000D01*
X175496838Y-56565317D01*
X175635910Y-56781441D01*
X175848110Y-56926431D01*
X176100000Y-56977440D01*
X177300000Y-56977440D01*
X177535317Y-56933162D01*
X177751441Y-56794090D01*
X177797969Y-56725994D01*
X177940302Y-56868327D01*
X178173691Y-56965000D01*
X178614250Y-56965000D01*
X178773000Y-56806250D01*
X178773000Y-56007000D01*
X179027000Y-56007000D01*
X179027000Y-56806250D01*
X179185750Y-56965000D01*
X179626309Y-56965000D01*
X179859698Y-56868327D01*
X180038327Y-56689699D01*
X180135000Y-56456310D01*
X180135000Y-56165750D01*
X179976250Y-56007000D01*
X179027000Y-56007000D01*
X178773000Y-56007000D01*
X178753000Y-56007000D01*
X178753000Y-55753000D01*
X178773000Y-55753000D01*
X178773000Y-54953750D01*
X179027000Y-54953750D01*
X179027000Y-55753000D01*
X179976250Y-55753000D01*
X180135000Y-55594250D01*
X180135000Y-55303690D01*
X180038327Y-55070301D01*
X179859698Y-54891673D01*
X179626309Y-54795000D01*
X179185750Y-54795000D01*
X179027000Y-54953750D01*
X178773000Y-54953750D01*
X178614250Y-54795000D01*
X178173691Y-54795000D01*
X177940302Y-54891673D01*
X177799064Y-55032910D01*
X177764090Y-54978559D01*
X177551890Y-54833569D01*
X177365000Y-54795723D01*
X177365000Y-52115857D01*
X177398371Y-52102068D01*
X177830551Y-51670643D01*
X178064733Y-51106670D01*
X178065265Y-50496009D01*
X177881527Y-50051329D01*
X178310000Y-50479802D01*
X178310000Y-51435000D01*
X178367852Y-51725839D01*
X178532599Y-51972401D01*
X182755000Y-56194802D01*
X182755000Y-58703644D01*
X182731236Y-58727366D01*
X182674090Y-58638559D01*
X182461890Y-58493569D01*
X182210000Y-58442560D01*
X181010000Y-58442560D01*
X180774683Y-58486838D01*
X180558559Y-58625910D01*
X180413569Y-58838110D01*
X180362560Y-59090000D01*
X180362560Y-60290000D01*
X180406838Y-60525317D01*
X180545910Y-60741441D01*
X180758110Y-60886431D01*
X181010000Y-60937440D01*
X182210000Y-60937440D01*
X182445317Y-60893162D01*
X182661441Y-60754090D01*
X182730828Y-60652538D01*
X182814515Y-60736371D01*
X183268266Y-60924785D01*
X183759579Y-60925214D01*
X184213657Y-60737592D01*
X184467638Y-60484054D01*
X184719515Y-60736371D01*
X185173266Y-60924785D01*
X185580338Y-60925140D01*
X186565000Y-61909802D01*
X186565000Y-63799087D01*
X186467592Y-63563343D01*
X186120485Y-63215629D01*
X185666734Y-63027215D01*
X185175421Y-63026786D01*
X184721343Y-63214408D01*
X184373629Y-63561515D01*
X184358390Y-63598215D01*
X183694605Y-64262000D01*
X184357724Y-64925119D01*
X184372408Y-64960657D01*
X184719515Y-65308371D01*
X184971990Y-65413208D01*
X183782599Y-66602599D01*
X183617852Y-66849161D01*
X183560000Y-67140000D01*
X183560000Y-67512666D01*
X183484683Y-67526838D01*
X183268559Y-67665910D01*
X183123569Y-67878110D01*
X183072560Y-68130000D01*
X183072560Y-69030000D01*
X183116838Y-69265317D01*
X183255910Y-69481441D01*
X183468110Y-69626431D01*
X183720000Y-69677440D01*
X184920000Y-69677440D01*
X185155317Y-69633162D01*
X185371441Y-69494090D01*
X185419134Y-69424289D01*
X185455910Y-69481441D01*
X185668110Y-69626431D01*
X185920000Y-69677440D01*
X186712638Y-69677440D01*
X187024878Y-69989680D01*
X187024849Y-70022560D01*
X185920000Y-70022560D01*
X185684683Y-70066838D01*
X185468559Y-70205910D01*
X185420866Y-70275711D01*
X185384090Y-70218559D01*
X185171890Y-70073569D01*
X184920000Y-70022560D01*
X183720000Y-70022560D01*
X183484683Y-70066838D01*
X183268559Y-70205910D01*
X183163274Y-70360000D01*
X181924802Y-70360000D01*
X178337401Y-66772599D01*
X178090839Y-66607852D01*
X177800000Y-66550000D01*
X159699802Y-66550000D01*
X152700122Y-59550320D01*
X152700162Y-59504833D01*
X152558117Y-59161057D01*
X152295327Y-58897808D01*
X151951799Y-58755162D01*
X151579833Y-58754838D01*
X151236057Y-58896883D01*
X150972808Y-59159673D01*
X150830162Y-59503201D01*
X150829838Y-59875167D01*
X150971883Y-60218943D01*
X151234673Y-60482192D01*
X151578201Y-60624838D01*
X151625077Y-60624879D01*
X158847599Y-67847401D01*
X159094160Y-68012148D01*
X159385000Y-68070000D01*
X177485198Y-68070000D01*
X179324734Y-69909536D01*
X178534350Y-69591176D01*
X177523923Y-69601067D01*
X176636353Y-69968711D01*
X176427165Y-70329560D01*
X178054000Y-71956395D01*
X178068143Y-71942253D01*
X178247748Y-72121858D01*
X178233605Y-72136000D01*
X179860440Y-73762835D01*
X180221289Y-73553647D01*
X180598824Y-72616350D01*
X180588933Y-71605923D01*
X180283329Y-70868131D01*
X181072599Y-71657401D01*
X181319161Y-71822148D01*
X181610000Y-71880000D01*
X183164895Y-71880000D01*
X183255910Y-72021441D01*
X183468110Y-72166431D01*
X183560000Y-72185039D01*
X183560000Y-72608903D01*
X183464683Y-72626838D01*
X183248559Y-72765910D01*
X183103569Y-72978110D01*
X183052560Y-73230000D01*
X183052560Y-74430000D01*
X183096838Y-74665317D01*
X183235910Y-74881441D01*
X183304006Y-74927969D01*
X183161673Y-75070302D01*
X183065000Y-75303691D01*
X183065000Y-75744250D01*
X183223750Y-75903000D01*
X184023000Y-75903000D01*
X184023000Y-75883000D01*
X184277000Y-75883000D01*
X184277000Y-75903000D01*
X185076250Y-75903000D01*
X185235000Y-75744250D01*
X185235000Y-75303691D01*
X185138327Y-75070302D01*
X184997090Y-74929064D01*
X185051441Y-74894090D01*
X185196431Y-74681890D01*
X185247440Y-74430000D01*
X185247440Y-73230000D01*
X185203162Y-72994683D01*
X185080000Y-72803284D01*
X185080000Y-72187334D01*
X185155317Y-72173162D01*
X185371441Y-72034090D01*
X185419134Y-71964289D01*
X185455910Y-72021441D01*
X185668110Y-72166431D01*
X185920000Y-72217440D01*
X187120000Y-72217440D01*
X187355317Y-72173162D01*
X187571441Y-72034090D01*
X187676726Y-71880000D01*
X187960000Y-71880000D01*
X188250839Y-71822148D01*
X188294966Y-71792663D01*
X188294838Y-71940167D01*
X188436883Y-72283943D01*
X188699673Y-72547192D01*
X189043201Y-72689838D01*
X189106227Y-72689893D01*
X189304161Y-72822148D01*
X189595000Y-72880000D01*
X189864895Y-72880000D01*
X189955910Y-73021441D01*
X190060000Y-73092563D01*
X190060000Y-73834442D01*
X189834683Y-73876838D01*
X189618559Y-74015910D01*
X189473569Y-74228110D01*
X189422560Y-74480000D01*
X189422560Y-75380000D01*
X189466838Y-75615317D01*
X189605910Y-75831441D01*
X189818110Y-75976431D01*
X190070000Y-76027440D01*
X191270000Y-76027440D01*
X191505317Y-75983162D01*
X191721441Y-75844090D01*
X191769134Y-75774289D01*
X191805910Y-75831441D01*
X192018110Y-75976431D01*
X192270000Y-76027440D01*
X193470000Y-76027440D01*
X193705317Y-75983162D01*
X193921441Y-75844090D01*
X194066431Y-75631890D01*
X194117440Y-75380000D01*
X194117440Y-74480000D01*
X194073162Y-74244683D01*
X193934090Y-74028559D01*
X193721890Y-73883569D01*
X193480000Y-73834585D01*
X193480000Y-73092931D01*
X193571441Y-73034090D01*
X193716431Y-72821890D01*
X193740094Y-72705038D01*
X193842566Y-72602566D01*
X194088603Y-72234346D01*
X194102112Y-72166431D01*
X194175000Y-71800000D01*
X194175000Y-69215000D01*
X194088603Y-68780654D01*
X193842566Y-68412434D01*
X192905000Y-67474868D01*
X192905000Y-67391123D01*
X193014900Y-67436757D01*
X193570661Y-67437242D01*
X194084303Y-67225010D01*
X194183000Y-67126485D01*
X194183000Y-83693000D01*
X191585465Y-83693000D01*
X192345730Y-83541774D01*
X193062706Y-83062706D01*
X193541774Y-82345730D01*
X193710000Y-81500000D01*
X193541774Y-80654270D01*
X193062706Y-79937294D01*
X192345730Y-79458226D01*
X191500000Y-79290000D01*
X190654270Y-79458226D01*
X189937294Y-79937294D01*
X189458226Y-80654270D01*
X189290000Y-81500000D01*
X189458226Y-82345730D01*
X189937294Y-83062706D01*
X190654270Y-83541774D01*
X191414535Y-83693000D01*
X103585465Y-83693000D01*
X104345730Y-83541774D01*
X105062706Y-83062706D01*
X105541774Y-82345730D01*
X105596532Y-82070440D01*
X117499165Y-82070440D01*
X117708353Y-82431289D01*
X118645650Y-82808824D01*
X119656077Y-82798933D01*
X120543647Y-82431289D01*
X120752835Y-82070440D01*
X125627165Y-82070440D01*
X125836353Y-82431289D01*
X126773650Y-82808824D01*
X127784077Y-82798933D01*
X128671647Y-82431289D01*
X128880835Y-82070440D01*
X144169165Y-82070440D01*
X144378353Y-82431289D01*
X145315650Y-82808824D01*
X146326077Y-82798933D01*
X147213647Y-82431289D01*
X147422835Y-82070440D01*
X152297165Y-82070440D01*
X152506353Y-82431289D01*
X153443650Y-82808824D01*
X154454077Y-82798933D01*
X155341647Y-82431289D01*
X155550835Y-82070440D01*
X153924000Y-80443605D01*
X152297165Y-82070440D01*
X147422835Y-82070440D01*
X145796000Y-80443605D01*
X144169165Y-82070440D01*
X128880835Y-82070440D01*
X127254000Y-80443605D01*
X125627165Y-82070440D01*
X120752835Y-82070440D01*
X119126000Y-80443605D01*
X117499165Y-82070440D01*
X105596532Y-82070440D01*
X105710000Y-81500000D01*
X105541774Y-80654270D01*
X105062706Y-79937294D01*
X104832762Y-79783650D01*
X116581176Y-79783650D01*
X116591067Y-80794077D01*
X116958711Y-81681647D01*
X117319560Y-81890835D01*
X118946395Y-80264000D01*
X119305605Y-80264000D01*
X120932440Y-81890835D01*
X121293289Y-81681647D01*
X121670824Y-80744350D01*
X121661420Y-79783650D01*
X124709176Y-79783650D01*
X124719067Y-80794077D01*
X125086711Y-81681647D01*
X125447560Y-81890835D01*
X127074395Y-80264000D01*
X127433605Y-80264000D01*
X129060440Y-81890835D01*
X129421289Y-81681647D01*
X129798824Y-80744350D01*
X129789420Y-79783650D01*
X143251176Y-79783650D01*
X143261067Y-80794077D01*
X143628711Y-81681647D01*
X143989560Y-81890835D01*
X145616395Y-80264000D01*
X145975605Y-80264000D01*
X147602440Y-81890835D01*
X147963289Y-81681647D01*
X148340824Y-80744350D01*
X148331420Y-79783650D01*
X151379176Y-79783650D01*
X151389067Y-80794077D01*
X151756711Y-81681647D01*
X152117560Y-81890835D01*
X153744395Y-80264000D01*
X152117560Y-78637165D01*
X151756711Y-78846353D01*
X151379176Y-79783650D01*
X148331420Y-79783650D01*
X148330933Y-79733923D01*
X147963289Y-78846353D01*
X147602440Y-78637165D01*
X145975605Y-80264000D01*
X145616395Y-80264000D01*
X143989560Y-78637165D01*
X143628711Y-78846353D01*
X143251176Y-79783650D01*
X129789420Y-79783650D01*
X129788933Y-79733923D01*
X129421289Y-78846353D01*
X129060440Y-78637165D01*
X127433605Y-80264000D01*
X127074395Y-80264000D01*
X125447560Y-78637165D01*
X125086711Y-78846353D01*
X124709176Y-79783650D01*
X121661420Y-79783650D01*
X121660933Y-79733923D01*
X121293289Y-78846353D01*
X120932440Y-78637165D01*
X119305605Y-80264000D01*
X118946395Y-80264000D01*
X117319560Y-78637165D01*
X116958711Y-78846353D01*
X116581176Y-79783650D01*
X104832762Y-79783650D01*
X104345730Y-79458226D01*
X103500000Y-79290000D01*
X102654270Y-79458226D01*
X101937294Y-79937294D01*
X101458226Y-80654270D01*
X101290000Y-81500000D01*
X101458226Y-82345730D01*
X101937294Y-83062706D01*
X102654270Y-83541774D01*
X103414535Y-83693000D01*
X100710000Y-83693000D01*
X100710000Y-78457560D01*
X117499165Y-78457560D01*
X119126000Y-80084395D01*
X120752835Y-78457560D01*
X120543647Y-78096711D01*
X119606350Y-77719176D01*
X118595923Y-77729067D01*
X117708353Y-78096711D01*
X117499165Y-78457560D01*
X100710000Y-78457560D01*
X100710000Y-77292735D01*
X111076870Y-77292735D01*
X111126383Y-77518164D01*
X111591036Y-77677807D01*
X112081413Y-77647482D01*
X112393617Y-77518164D01*
X112443130Y-77292735D01*
X111760000Y-76609605D01*
X111076870Y-77292735D01*
X100710000Y-77292735D01*
X100710000Y-74895750D01*
X109480000Y-74895750D01*
X109480000Y-75336309D01*
X109576673Y-75569698D01*
X109755301Y-75748327D01*
X109988690Y-75845000D01*
X110204250Y-75845000D01*
X110363000Y-75686250D01*
X110363000Y-74737000D01*
X109638750Y-74737000D01*
X109480000Y-74895750D01*
X100710000Y-74895750D01*
X100710000Y-33500000D01*
X101290000Y-33500000D01*
X101458226Y-34345730D01*
X101937294Y-35062706D01*
X102654270Y-35541774D01*
X103500000Y-35710000D01*
X104345730Y-35541774D01*
X105062706Y-35062706D01*
X105541774Y-34345730D01*
X105710000Y-33500000D01*
X105541774Y-32654270D01*
X105062706Y-31937294D01*
X104345730Y-31458226D01*
X103500000Y-31290000D01*
X102654270Y-31458226D01*
X101937294Y-31937294D01*
X101458226Y-32654270D01*
X101290000Y-33500000D01*
X100710000Y-33500000D01*
X100710000Y-30710000D01*
X169732779Y-30710000D01*
X169377434Y-30947434D01*
X169377434Y-30947434D01*
G37*
X169377434Y-30947434D02*
X168439868Y-31885000D01*
X163468736Y-31885000D01*
X163379595Y-31795703D01*
X162848689Y-31575252D01*
X162273833Y-31574750D01*
X161742543Y-31794275D01*
X161651659Y-31885000D01*
X125730000Y-31885000D01*
X125295654Y-31971397D01*
X124927434Y-32217434D01*
X105877434Y-51267434D01*
X105631397Y-51635654D01*
X105545000Y-52070000D01*
X105545000Y-69215000D01*
X105631397Y-69649346D01*
X105842471Y-69965240D01*
X105877434Y-70017566D01*
X107612434Y-71752567D01*
X107980655Y-71998604D01*
X108415000Y-72085000D01*
X109355000Y-72085000D01*
X109355000Y-72710000D01*
X109441397Y-73144346D01*
X109467560Y-73183502D01*
X109467560Y-73310000D01*
X109511838Y-73545317D01*
X109578329Y-73648646D01*
X109576673Y-73650302D01*
X109480000Y-73883691D01*
X109480000Y-74324250D01*
X109638750Y-74483000D01*
X110363000Y-74483000D01*
X110363000Y-74463000D01*
X110512560Y-74463000D01*
X110512560Y-75530000D01*
X110556838Y-75765317D01*
X110638766Y-75892636D01*
X110512193Y-76261036D01*
X110542518Y-76751413D01*
X110671836Y-77063617D01*
X110897265Y-77113130D01*
X111580395Y-76430000D01*
X111566253Y-76415858D01*
X111745858Y-76236253D01*
X111760000Y-76250395D01*
X111774143Y-76236253D01*
X111953748Y-76415858D01*
X111939605Y-76430000D01*
X112622735Y-77113130D01*
X112848164Y-77063617D01*
X113007807Y-76598964D01*
X113000806Y-76485750D01*
X117045000Y-76485750D01*
X117045000Y-76776310D01*
X117141673Y-77009699D01*
X117320302Y-77188327D01*
X117553691Y-77285000D01*
X117994250Y-77285000D01*
X118153000Y-77126250D01*
X118153000Y-76327000D01*
X117203750Y-76327000D01*
X117045000Y-76485750D01*
X113000806Y-76485750D01*
X112977482Y-76108587D01*
X112885289Y-75886010D01*
X112956431Y-75781890D01*
X112988467Y-75623690D01*
X117045000Y-75623690D01*
X117045000Y-75914250D01*
X117203750Y-76073000D01*
X118153000Y-76073000D01*
X118153000Y-75273750D01*
X117994250Y-75115000D01*
X117553691Y-75115000D01*
X117320302Y-75211673D01*
X117141673Y-75390301D01*
X117045000Y-75623690D01*
X112988467Y-75623690D01*
X113007440Y-75530000D01*
X113007440Y-74330000D01*
X112963162Y-74094683D01*
X112895000Y-73988756D01*
X112895000Y-73942440D01*
X117499165Y-73942440D01*
X117708353Y-74303289D01*
X118645650Y-74680824D01*
X119656077Y-74670933D01*
X120543647Y-74303289D01*
X120752835Y-73942440D01*
X119126000Y-72315605D01*
X117499165Y-73942440D01*
X112895000Y-73942440D01*
X112895000Y-71755000D01*
X112875239Y-71655650D01*
X116581176Y-71655650D01*
X116591067Y-72666077D01*
X116958711Y-73553647D01*
X117319560Y-73762835D01*
X118946395Y-72136000D01*
X119305605Y-72136000D01*
X120932440Y-73762835D01*
X121293289Y-73553647D01*
X121670824Y-72616350D01*
X121660933Y-71605923D01*
X121293289Y-70718353D01*
X120932440Y-70509165D01*
X119305605Y-72136000D01*
X118946395Y-72136000D01*
X117319560Y-70509165D01*
X116958711Y-70718353D01*
X116581176Y-71655650D01*
X112875239Y-71655650D01*
X112808603Y-71320654D01*
X112562566Y-70952434D01*
X111757566Y-70147434D01*
X111647019Y-70073569D01*
X111619186Y-70054971D01*
X114534821Y-70054971D01*
X114692058Y-70435515D01*
X114982954Y-70726919D01*
X115363223Y-70884820D01*
X115774971Y-70885179D01*
X116155515Y-70727942D01*
X116446919Y-70437046D01*
X116491550Y-70329560D01*
X117499165Y-70329560D01*
X119126000Y-71956395D01*
X120752835Y-70329560D01*
X120543647Y-69968711D01*
X119606350Y-69591176D01*
X118595923Y-69601067D01*
X117708353Y-69968711D01*
X117499165Y-70329560D01*
X116491550Y-70329560D01*
X116604820Y-70056777D01*
X116604873Y-69995995D01*
X118192434Y-68408434D01*
X118254653Y-68315317D01*
X118345713Y-68179036D01*
X118408817Y-68167162D01*
X118624941Y-68028090D01*
X118769931Y-67815890D01*
X118820940Y-67564000D01*
X118820940Y-67175000D01*
X119550000Y-67175000D01*
X119738826Y-67137440D01*
X120150000Y-67137440D01*
X120385317Y-67093162D01*
X120601441Y-66954090D01*
X120649134Y-66884289D01*
X120685910Y-66941441D01*
X120898110Y-67086431D01*
X121150000Y-67137440D01*
X121242308Y-67137440D01*
X122092560Y-67987693D01*
X122092560Y-68080000D01*
X122136838Y-68315317D01*
X122275910Y-68531441D01*
X122345711Y-68579134D01*
X122288559Y-68615910D01*
X122143569Y-68828110D01*
X122092560Y-69080000D01*
X122092560Y-69491174D01*
X122055000Y-69680000D01*
X122055000Y-71290000D01*
X122092560Y-71478826D01*
X122092560Y-71890000D01*
X122136838Y-72125317D01*
X122275910Y-72341441D01*
X122345711Y-72389134D01*
X122288559Y-72425910D01*
X122143569Y-72638110D01*
X122092560Y-72890000D01*
X122092560Y-73301174D01*
X122055000Y-73490000D01*
X122055000Y-74058103D01*
X121824931Y-74153166D01*
X121145551Y-74831361D01*
X121048536Y-75065000D01*
X120480000Y-75065000D01*
X120291174Y-75102560D01*
X119880000Y-75102560D01*
X119644683Y-75146838D01*
X119428559Y-75285910D01*
X119382031Y-75354006D01*
X119239698Y-75211673D01*
X119006309Y-75115000D01*
X118565750Y-75115000D01*
X118407000Y-75273750D01*
X118407000Y-76073000D01*
X118427000Y-76073000D01*
X118427000Y-76327000D01*
X118407000Y-76327000D01*
X118407000Y-77126250D01*
X118565750Y-77285000D01*
X119006309Y-77285000D01*
X119239698Y-77188327D01*
X119380936Y-77047090D01*
X119415910Y-77101441D01*
X119628110Y-77246431D01*
X119880000Y-77297440D01*
X120291174Y-77297440D01*
X120480000Y-77335000D01*
X121048103Y-77335000D01*
X121143166Y-77565069D01*
X121821361Y-78244449D01*
X122707919Y-78612580D01*
X123667870Y-78613417D01*
X124045072Y-78457560D01*
X125627165Y-78457560D01*
X127254000Y-80084395D01*
X128880835Y-78457560D01*
X144169165Y-78457560D01*
X145796000Y-80084395D01*
X147422835Y-78457560D01*
X147213647Y-78096711D01*
X146276350Y-77719176D01*
X145265923Y-77729067D01*
X144378353Y-78096711D01*
X144169165Y-78457560D01*
X128880835Y-78457560D01*
X128671647Y-78096711D01*
X127734350Y-77719176D01*
X126723923Y-77729067D01*
X125836353Y-78096711D01*
X125627165Y-78457560D01*
X124045072Y-78457560D01*
X124555069Y-78246834D01*
X125234449Y-77568639D01*
X125331464Y-77335000D01*
X125900000Y-77335000D01*
X126088826Y-77297440D01*
X126500000Y-77297440D01*
X126735317Y-77253162D01*
X126951441Y-77114090D01*
X126997969Y-77045994D01*
X127140302Y-77188327D01*
X127373691Y-77285000D01*
X127814250Y-77285000D01*
X127973000Y-77126250D01*
X127973000Y-76327000D01*
X128227000Y-76327000D01*
X128227000Y-77126250D01*
X128385750Y-77285000D01*
X128826309Y-77285000D01*
X129059698Y-77188327D01*
X129238327Y-77009699D01*
X129335000Y-76776310D01*
X129335000Y-76485750D01*
X143715000Y-76485750D01*
X143715000Y-76776310D01*
X143811673Y-77009699D01*
X143990302Y-77188327D01*
X144223691Y-77285000D01*
X144664250Y-77285000D01*
X144823000Y-77126250D01*
X144823000Y-76327000D01*
X143873750Y-76327000D01*
X143715000Y-76485750D01*
X129335000Y-76485750D01*
X129176250Y-76327000D01*
X128227000Y-76327000D01*
X127973000Y-76327000D01*
X127953000Y-76327000D01*
X127953000Y-76073000D01*
X127973000Y-76073000D01*
X127973000Y-75273750D01*
X128227000Y-75273750D01*
X128227000Y-76073000D01*
X129176250Y-76073000D01*
X129335000Y-75914250D01*
X129335000Y-75623690D01*
X143715000Y-75623690D01*
X143715000Y-75914250D01*
X143873750Y-76073000D01*
X144823000Y-76073000D01*
X144823000Y-75273750D01*
X144664250Y-75115000D01*
X144223691Y-75115000D01*
X143990302Y-75211673D01*
X143811673Y-75390301D01*
X143715000Y-75623690D01*
X129335000Y-75623690D01*
X129238327Y-75390301D01*
X129059698Y-75211673D01*
X128826309Y-75115000D01*
X128385750Y-75115000D01*
X128227000Y-75273750D01*
X127973000Y-75273750D01*
X127814250Y-75115000D01*
X127373691Y-75115000D01*
X127140302Y-75211673D01*
X126999064Y-75352910D01*
X126964090Y-75298559D01*
X126751890Y-75153569D01*
X126500000Y-75102560D01*
X126088826Y-75102560D01*
X125900000Y-75065000D01*
X125331897Y-75065000D01*
X125236834Y-74834931D01*
X124558639Y-74155551D01*
X124325000Y-74058536D01*
X124325000Y-73942440D01*
X125627165Y-73942440D01*
X125836353Y-74303289D01*
X126773650Y-74680824D01*
X127784077Y-74670933D01*
X128671647Y-74303289D01*
X128880835Y-73942440D01*
X144169165Y-73942440D01*
X144378353Y-74303289D01*
X145315650Y-74680824D01*
X146326077Y-74670933D01*
X147213647Y-74303289D01*
X147422835Y-73942440D01*
X145796000Y-72315605D01*
X144169165Y-73942440D01*
X128880835Y-73942440D01*
X127254000Y-72315605D01*
X125627165Y-73942440D01*
X124325000Y-73942440D01*
X124325000Y-73490000D01*
X124287440Y-73301174D01*
X124287440Y-72890000D01*
X124243162Y-72654683D01*
X124104090Y-72438559D01*
X124034289Y-72390866D01*
X124091441Y-72354090D01*
X124236431Y-72141890D01*
X124287440Y-71890000D01*
X124287440Y-71655650D01*
X124709176Y-71655650D01*
X124719067Y-72666077D01*
X125086711Y-73553647D01*
X125447560Y-73762835D01*
X127074395Y-72136000D01*
X127433605Y-72136000D01*
X129060440Y-73762835D01*
X129421289Y-73553647D01*
X129798824Y-72616350D01*
X129789420Y-71655650D01*
X143251176Y-71655650D01*
X143261067Y-72666077D01*
X143628711Y-73553647D01*
X143989560Y-73762835D01*
X145616395Y-72136000D01*
X145975605Y-72136000D01*
X147602440Y-73762835D01*
X147963289Y-73553647D01*
X148340824Y-72616350D01*
X148330933Y-71605923D01*
X147963289Y-70718353D01*
X147602440Y-70509165D01*
X145975605Y-72136000D01*
X145616395Y-72136000D01*
X143989560Y-70509165D01*
X143628711Y-70718353D01*
X143251176Y-71655650D01*
X129789420Y-71655650D01*
X129788933Y-71605923D01*
X129421289Y-70718353D01*
X129060440Y-70509165D01*
X127433605Y-72136000D01*
X127074395Y-72136000D01*
X125447560Y-70509165D01*
X125086711Y-70718353D01*
X124709176Y-71655650D01*
X124287440Y-71655650D01*
X124287440Y-71478826D01*
X124325000Y-71290000D01*
X124325000Y-70329560D01*
X125627165Y-70329560D01*
X127254000Y-71956395D01*
X128880835Y-70329560D01*
X144169165Y-70329560D01*
X145796000Y-71956395D01*
X147422835Y-70329560D01*
X147213647Y-69968711D01*
X146276350Y-69591176D01*
X145265923Y-69601067D01*
X144378353Y-69968711D01*
X144169165Y-70329560D01*
X128880835Y-70329560D01*
X128671647Y-69968711D01*
X127734350Y-69591176D01*
X126723923Y-69601067D01*
X125836353Y-69968711D01*
X125627165Y-70329560D01*
X124325000Y-70329560D01*
X124325000Y-69680000D01*
X124287440Y-69491174D01*
X124287440Y-69080000D01*
X124243162Y-68844683D01*
X124104090Y-68628559D01*
X124034289Y-68580866D01*
X124091441Y-68544090D01*
X124236431Y-68331890D01*
X124287440Y-68080000D01*
X124287440Y-67668829D01*
X124325000Y-67480000D01*
X124287440Y-67291172D01*
X124287440Y-66880000D01*
X124243162Y-66644683D01*
X124104090Y-66428559D01*
X123891890Y-66283569D01*
X123640000Y-66232560D01*
X123547693Y-66232560D01*
X123220132Y-65905000D01*
X124159868Y-65905000D01*
X124652560Y-66397692D01*
X124652560Y-66490000D01*
X124696838Y-66725317D01*
X124835910Y-66941441D01*
X125048110Y-67086431D01*
X125300000Y-67137440D01*
X125711174Y-67137440D01*
X125900000Y-67175000D01*
X126088826Y-67137440D01*
X126500000Y-67137440D01*
X126735317Y-67093162D01*
X126951441Y-66954090D01*
X126999134Y-66884289D01*
X127035910Y-66941441D01*
X127248110Y-67086431D01*
X127500000Y-67137440D01*
X127911174Y-67137440D01*
X128100000Y-67175000D01*
X151759868Y-67175000D01*
X152029868Y-67445000D01*
X150030000Y-67445000D01*
X149740627Y-67502560D01*
X149410000Y-67502560D01*
X149174683Y-67546838D01*
X148958559Y-67685910D01*
X148813569Y-67898110D01*
X148762560Y-68150000D01*
X148762560Y-68561174D01*
X148725000Y-68750000D01*
X148762560Y-68938826D01*
X148762560Y-69350000D01*
X148806838Y-69585317D01*
X148945910Y-69801441D01*
X149015711Y-69849134D01*
X148958559Y-69885910D01*
X148813569Y-70098110D01*
X148762560Y-70350000D01*
X148762560Y-70761174D01*
X148725000Y-70950000D01*
X148725000Y-74058103D01*
X148494931Y-74153166D01*
X147815551Y-74831361D01*
X147718536Y-75065000D01*
X147150000Y-75065000D01*
X146961174Y-75102560D01*
X146550000Y-75102560D01*
X146314683Y-75146838D01*
X146098559Y-75285910D01*
X146052031Y-75354006D01*
X145909698Y-75211673D01*
X145676309Y-75115000D01*
X145235750Y-75115000D01*
X145077000Y-75273750D01*
X145077000Y-76073000D01*
X145097000Y-76073000D01*
X145097000Y-76327000D01*
X145077000Y-76327000D01*
X145077000Y-77126250D01*
X145235750Y-77285000D01*
X145676309Y-77285000D01*
X145909698Y-77188327D01*
X146050936Y-77047090D01*
X146085910Y-77101441D01*
X146298110Y-77246431D01*
X146550000Y-77297440D01*
X146961174Y-77297440D01*
X147150000Y-77335000D01*
X147718103Y-77335000D01*
X147813166Y-77565069D01*
X148491361Y-78244449D01*
X149377919Y-78612580D01*
X150337870Y-78613417D01*
X150715072Y-78457560D01*
X152297165Y-78457560D01*
X153924000Y-80084395D01*
X155550835Y-78457560D01*
X155341647Y-78096711D01*
X154404350Y-77719176D01*
X153393923Y-77729067D01*
X152506353Y-78096711D01*
X152297165Y-78457560D01*
X150715072Y-78457560D01*
X151225069Y-78246834D01*
X151904449Y-77568639D01*
X152001464Y-77335000D01*
X152570000Y-77335000D01*
X152758826Y-77297440D01*
X153170000Y-77297440D01*
X153405317Y-77253162D01*
X153621441Y-77114090D01*
X153667969Y-77045994D01*
X153810302Y-77188327D01*
X154043691Y-77285000D01*
X154484250Y-77285000D01*
X154643000Y-77126250D01*
X154643000Y-76327000D01*
X154897000Y-76327000D01*
X154897000Y-77126250D01*
X155055750Y-77285000D01*
X155496309Y-77285000D01*
X155729698Y-77188327D01*
X155908327Y-77009699D01*
X156005000Y-76776310D01*
X156005000Y-76485750D01*
X155846250Y-76327000D01*
X154897000Y-76327000D01*
X154643000Y-76327000D01*
X154623000Y-76327000D01*
X154623000Y-76073000D01*
X154643000Y-76073000D01*
X154643000Y-75273750D01*
X154897000Y-75273750D01*
X154897000Y-76073000D01*
X155846250Y-76073000D01*
X156005000Y-75914250D01*
X156005000Y-75623690D01*
X155908327Y-75390301D01*
X155729698Y-75211673D01*
X155496309Y-75115000D01*
X155055750Y-75115000D01*
X154897000Y-75273750D01*
X154643000Y-75273750D01*
X154484250Y-75115000D01*
X154043691Y-75115000D01*
X153810302Y-75211673D01*
X153669064Y-75352910D01*
X153634090Y-75298559D01*
X153421890Y-75153569D01*
X153170000Y-75102560D01*
X152758826Y-75102560D01*
X152570000Y-75065000D01*
X152001897Y-75065000D01*
X151906834Y-74834931D01*
X151228639Y-74155551D01*
X150995000Y-74058536D01*
X150995000Y-73942440D01*
X152297165Y-73942440D01*
X152506353Y-74303289D01*
X153443650Y-74680824D01*
X154454077Y-74670933D01*
X155341647Y-74303289D01*
X155550835Y-73942440D01*
X153924000Y-72315605D01*
X152297165Y-73942440D01*
X150995000Y-73942440D01*
X150995000Y-71655650D01*
X151379176Y-71655650D01*
X151389067Y-72666077D01*
X151756711Y-73553647D01*
X152117560Y-73762835D01*
X153744395Y-72136000D01*
X152117560Y-70509165D01*
X151756711Y-70718353D01*
X151379176Y-71655650D01*
X150995000Y-71655650D01*
X150995000Y-70950000D01*
X150957440Y-70761174D01*
X150957440Y-70350000D01*
X150913162Y-70114683D01*
X150774090Y-69898559D01*
X150704289Y-69850866D01*
X150761441Y-69814090D01*
X150829146Y-69715000D01*
X152570000Y-69715000D01*
X152758826Y-69677440D01*
X153170000Y-69677440D01*
X153242457Y-69663806D01*
X152506353Y-69968711D01*
X152297165Y-70329560D01*
X153924000Y-71956395D01*
X153938143Y-71942253D01*
X154117748Y-72121858D01*
X154103605Y-72136000D01*
X155730440Y-73762835D01*
X156091289Y-73553647D01*
X156345000Y-72923765D01*
X156345000Y-79458865D01*
X156091289Y-78846353D01*
X155730440Y-78637165D01*
X154103605Y-80264000D01*
X155730440Y-81890835D01*
X156091289Y-81681647D01*
X156345000Y-81051765D01*
X156345000Y-81280000D01*
X156431397Y-81714346D01*
X156661430Y-82058614D01*
X156677434Y-82082566D01*
X157947434Y-83352566D01*
X158315654Y-83598603D01*
X158750000Y-83685000D01*
X165100000Y-83685000D01*
X165534346Y-83598603D01*
X165902566Y-83352566D01*
X167172566Y-82082566D01*
X167180668Y-82070440D01*
X168299165Y-82070440D01*
X168508353Y-82431289D01*
X169445650Y-82808824D01*
X170456077Y-82798933D01*
X171343647Y-82431289D01*
X171552835Y-82070440D01*
X176427165Y-82070440D01*
X176636353Y-82431289D01*
X177573650Y-82808824D01*
X178584077Y-82798933D01*
X179471647Y-82431289D01*
X179680835Y-82070440D01*
X178054000Y-80443605D01*
X176427165Y-82070440D01*
X171552835Y-82070440D01*
X169926000Y-80443605D01*
X168299165Y-82070440D01*
X167180668Y-82070440D01*
X167188570Y-82058614D01*
X167418603Y-81714346D01*
X167505000Y-81280000D01*
X167505000Y-81069135D01*
X167758711Y-81681647D01*
X168119560Y-81890835D01*
X169746395Y-80264000D01*
X170105605Y-80264000D01*
X171732440Y-81890835D01*
X172093289Y-81681647D01*
X172470824Y-80744350D01*
X172461420Y-79783650D01*
X175509176Y-79783650D01*
X175519067Y-80794077D01*
X175886711Y-81681647D01*
X176247560Y-81890835D01*
X177874395Y-80264000D01*
X178233605Y-80264000D01*
X179860440Y-81890835D01*
X180221289Y-81681647D01*
X180598824Y-80744350D01*
X180588933Y-79733923D01*
X180221289Y-78846353D01*
X179860440Y-78637165D01*
X178233605Y-80264000D01*
X177874395Y-80264000D01*
X176247560Y-78637165D01*
X175886711Y-78846353D01*
X175509176Y-79783650D01*
X172461420Y-79783650D01*
X172460933Y-79733923D01*
X172093289Y-78846353D01*
X171732440Y-78637165D01*
X170105605Y-80264000D01*
X169746395Y-80264000D01*
X168119560Y-78637165D01*
X167758711Y-78846353D01*
X167505000Y-79476235D01*
X167505000Y-78457560D01*
X168299165Y-78457560D01*
X169926000Y-80084395D01*
X171552835Y-78457560D01*
X171343647Y-78096711D01*
X170406350Y-77719176D01*
X169395923Y-77729067D01*
X168508353Y-78096711D01*
X168299165Y-78457560D01*
X167505000Y-78457560D01*
X167505000Y-77940132D01*
X168110132Y-77335000D01*
X171848103Y-77335000D01*
X171943166Y-77565069D01*
X172621361Y-78244449D01*
X173507919Y-78612580D01*
X174467870Y-78613417D01*
X174845072Y-78457560D01*
X176427165Y-78457560D01*
X178054000Y-80084395D01*
X179680835Y-78457560D01*
X179471647Y-78096711D01*
X178534350Y-77719176D01*
X177523923Y-77729067D01*
X176636353Y-78096711D01*
X176427165Y-78457560D01*
X174845072Y-78457560D01*
X175355069Y-78246834D01*
X176034449Y-77568639D01*
X176402580Y-76682081D01*
X176402899Y-76315750D01*
X183065000Y-76315750D01*
X183065000Y-76756309D01*
X183161673Y-76989698D01*
X183340301Y-77168327D01*
X183573690Y-77265000D01*
X183864250Y-77265000D01*
X184023000Y-77106250D01*
X184023000Y-76157000D01*
X184277000Y-76157000D01*
X184277000Y-77106250D01*
X184435750Y-77265000D01*
X184726310Y-77265000D01*
X184959699Y-77168327D01*
X185138327Y-76989698D01*
X185235000Y-76756309D01*
X185235000Y-76315750D01*
X185076250Y-76157000D01*
X184277000Y-76157000D01*
X184023000Y-76157000D01*
X183223750Y-76157000D01*
X183065000Y-76315750D01*
X176402899Y-76315750D01*
X176403417Y-75722130D01*
X176036834Y-74834931D01*
X175358639Y-74155551D01*
X174845411Y-73942440D01*
X176427165Y-73942440D01*
X176636353Y-74303289D01*
X177573650Y-74680824D01*
X178584077Y-74670933D01*
X179471647Y-74303289D01*
X179680835Y-73942440D01*
X178054000Y-72315605D01*
X176427165Y-73942440D01*
X174845411Y-73942440D01*
X174472081Y-73787420D01*
X173512130Y-73786583D01*
X172624931Y-74153166D01*
X171945551Y-74831361D01*
X171848536Y-75065000D01*
X167640000Y-75065000D01*
X167205654Y-75151397D01*
X166957212Y-75317401D01*
X166837434Y-75397434D01*
X165567434Y-76667434D01*
X165321397Y-77035654D01*
X165235000Y-77470000D01*
X165235000Y-79652607D01*
X165047243Y-79198200D01*
X164643923Y-78794176D01*
X164116691Y-78575250D01*
X163545813Y-78574752D01*
X163491851Y-78597049D01*
X163320000Y-78425198D01*
X163320000Y-75914547D01*
X163343515Y-75904831D01*
X163733461Y-75515564D01*
X163944759Y-75006702D01*
X163945240Y-74455715D01*
X163734831Y-73946485D01*
X163730794Y-73942440D01*
X168299165Y-73942440D01*
X168508353Y-74303289D01*
X169445650Y-74680824D01*
X170456077Y-74670933D01*
X171343647Y-74303289D01*
X171552835Y-73942440D01*
X169926000Y-72315605D01*
X168299165Y-73942440D01*
X163730794Y-73942440D01*
X163345564Y-73556539D01*
X162836702Y-73345241D01*
X162285715Y-73344760D01*
X161776485Y-73555169D01*
X161386539Y-73944436D01*
X161175241Y-74453298D01*
X161174760Y-75004285D01*
X161385169Y-75513515D01*
X161774436Y-75903461D01*
X161800000Y-75914076D01*
X161800000Y-78654053D01*
X161546777Y-78563035D01*
X160976546Y-78590222D01*
X160575995Y-78756136D01*
X160501861Y-79002255D01*
X161330000Y-79830395D01*
X161344142Y-79816252D01*
X161523748Y-79995858D01*
X161509605Y-80010000D01*
X162337745Y-80838139D01*
X162583864Y-80764005D01*
X162586196Y-80757517D01*
X162612757Y-80821800D01*
X163016077Y-81225824D01*
X163471663Y-81415000D01*
X161719131Y-81415000D01*
X162084005Y-81263864D01*
X162158139Y-81017745D01*
X161330000Y-80189605D01*
X160501861Y-81017745D01*
X160575995Y-81263864D01*
X160996472Y-81415000D01*
X159220132Y-81415000D01*
X158615000Y-80809868D01*
X158615000Y-79793223D01*
X159883035Y-79793223D01*
X159910222Y-80363454D01*
X160076136Y-80764005D01*
X160322255Y-80838139D01*
X161150395Y-80010000D01*
X160322255Y-79181861D01*
X160076136Y-79255995D01*
X159883035Y-79793223D01*
X158615000Y-79793223D01*
X158615000Y-71655650D01*
X167381176Y-71655650D01*
X167391067Y-72666077D01*
X167758711Y-73553647D01*
X168119560Y-73762835D01*
X169746395Y-72136000D01*
X170105605Y-72136000D01*
X171732440Y-73762835D01*
X172093289Y-73553647D01*
X172470824Y-72616350D01*
X172461420Y-71655650D01*
X175509176Y-71655650D01*
X175519067Y-72666077D01*
X175886711Y-73553647D01*
X176247560Y-73762835D01*
X177874395Y-72136000D01*
X176247560Y-70509165D01*
X175886711Y-70718353D01*
X175509176Y-71655650D01*
X172461420Y-71655650D01*
X172460933Y-71605923D01*
X172093289Y-70718353D01*
X171732440Y-70509165D01*
X170105605Y-72136000D01*
X169746395Y-72136000D01*
X168119560Y-70509165D01*
X167758711Y-70718353D01*
X167381176Y-71655650D01*
X158615000Y-71655650D01*
X158615000Y-71120000D01*
X158528603Y-70685654D01*
X158459744Y-70582599D01*
X158282566Y-70317433D01*
X158089418Y-70124285D01*
X161174760Y-70124285D01*
X161385169Y-70633515D01*
X161774436Y-71023461D01*
X162283298Y-71234759D01*
X162834285Y-71235240D01*
X163343515Y-71024831D01*
X163733461Y-70635564D01*
X163860524Y-70329560D01*
X168299165Y-70329560D01*
X169926000Y-71956395D01*
X171552835Y-70329560D01*
X171343647Y-69968711D01*
X170406350Y-69591176D01*
X169395923Y-69601067D01*
X168508353Y-69968711D01*
X168299165Y-70329560D01*
X163860524Y-70329560D01*
X163944759Y-70126702D01*
X163945240Y-69575715D01*
X163734831Y-69066485D01*
X163345564Y-68676539D01*
X162836702Y-68465241D01*
X162285715Y-68464760D01*
X161776485Y-68675169D01*
X161386539Y-69064436D01*
X161175241Y-69573298D01*
X161174760Y-70124285D01*
X158089418Y-70124285D01*
X155999433Y-68034301D01*
X155973162Y-67894683D01*
X155834090Y-67678559D01*
X155621890Y-67533569D01*
X155370000Y-67482560D01*
X155277693Y-67482560D01*
X153032566Y-65237434D01*
X152950857Y-65182838D01*
X152664346Y-64991397D01*
X152230000Y-64905000D01*
X128100000Y-64905000D01*
X127911174Y-64942560D01*
X127500000Y-64942560D01*
X127264683Y-64986838D01*
X127048559Y-65125910D01*
X127000866Y-65195711D01*
X126964090Y-65138559D01*
X126751890Y-64993569D01*
X126500000Y-64942560D01*
X126407692Y-64942560D01*
X125432566Y-63967434D01*
X125350857Y-63912838D01*
X125064346Y-63721397D01*
X124630000Y-63635000D01*
X120650000Y-63635000D01*
X120215654Y-63721397D01*
X119929143Y-63912838D01*
X119847434Y-63967434D01*
X118909868Y-64905000D01*
X118657750Y-64905000D01*
X118649750Y-64897000D01*
X117729000Y-64897000D01*
X117729000Y-64905000D01*
X117602000Y-64905000D01*
X117541672Y-64917000D01*
X117475000Y-64917000D01*
X117475000Y-64897000D01*
X116554250Y-64897000D01*
X116395500Y-65055750D01*
X116395500Y-65150309D01*
X116492173Y-65383698D01*
X116518709Y-65410235D01*
X116434069Y-65534110D01*
X116383060Y-65786000D01*
X116383060Y-66294000D01*
X116427338Y-66529317D01*
X116521666Y-66675907D01*
X116434069Y-66804110D01*
X116383060Y-67056000D01*
X116383060Y-67564000D01*
X116427338Y-67799317D01*
X116432223Y-67806909D01*
X115424259Y-68814873D01*
X115365029Y-68814821D01*
X114984485Y-68972058D01*
X114693081Y-69262954D01*
X114535180Y-69643223D01*
X114534821Y-70054971D01*
X111619186Y-70054971D01*
X111418415Y-69920820D01*
X111404090Y-69898559D01*
X111334289Y-69850866D01*
X111391441Y-69814090D01*
X111536431Y-69601890D01*
X111587440Y-69350000D01*
X111587440Y-68938826D01*
X111625000Y-68750000D01*
X111625000Y-68542132D01*
X111986331Y-68180801D01*
X112058817Y-68167162D01*
X112274941Y-68028090D01*
X112419931Y-67815890D01*
X112470940Y-67564000D01*
X112470940Y-67056000D01*
X112426662Y-66820683D01*
X112335896Y-66679629D01*
X112361827Y-66653698D01*
X112458500Y-66420309D01*
X112458500Y-66325750D01*
X112299750Y-66167000D01*
X111379000Y-66167000D01*
X111379000Y-66187000D01*
X111312328Y-66187000D01*
X111252000Y-66175000D01*
X111191672Y-66187000D01*
X111125000Y-66187000D01*
X111125000Y-66167000D01*
X110204250Y-66167000D01*
X110045500Y-66325750D01*
X110045500Y-66420309D01*
X110142173Y-66653698D01*
X110168709Y-66680235D01*
X110084069Y-66804110D01*
X110066627Y-66890241D01*
X109687434Y-67269434D01*
X109441397Y-67637654D01*
X109355000Y-68072000D01*
X109355000Y-68750000D01*
X109392560Y-68938826D01*
X109392560Y-69350000D01*
X109436838Y-69585317D01*
X109575910Y-69801441D01*
X109595754Y-69815000D01*
X108885133Y-69815000D01*
X107815000Y-68744868D01*
X107815000Y-64516000D01*
X110033060Y-64516000D01*
X110033060Y-65024000D01*
X110077338Y-65259317D01*
X110168104Y-65400371D01*
X110142173Y-65426302D01*
X110045500Y-65659691D01*
X110045500Y-65754250D01*
X110204250Y-65913000D01*
X111125000Y-65913000D01*
X111125000Y-65893000D01*
X111379000Y-65893000D01*
X111379000Y-65913000D01*
X112299750Y-65913000D01*
X112458500Y-65754250D01*
X112458500Y-65659691D01*
X112361827Y-65426302D01*
X112335291Y-65399765D01*
X112419931Y-65275890D01*
X112470940Y-65024000D01*
X112470940Y-64516000D01*
X112426662Y-64280683D01*
X112335896Y-64139629D01*
X112361827Y-64113698D01*
X112458500Y-63880309D01*
X112458500Y-63785750D01*
X112299750Y-63627000D01*
X111379000Y-63627000D01*
X111379000Y-63647000D01*
X111125000Y-63647000D01*
X111125000Y-63627000D01*
X110204250Y-63627000D01*
X110045500Y-63785750D01*
X110045500Y-63880309D01*
X110142173Y-64113698D01*
X110168709Y-64140235D01*
X110084069Y-64264110D01*
X110033060Y-64516000D01*
X107815000Y-64516000D01*
X107815000Y-61976000D01*
X110033060Y-61976000D01*
X110033060Y-62484000D01*
X110077338Y-62719317D01*
X110168104Y-62860371D01*
X110142173Y-62886302D01*
X110045500Y-63119691D01*
X110045500Y-63214250D01*
X110204250Y-63373000D01*
X111125000Y-63373000D01*
X111125000Y-63353000D01*
X111379000Y-63353000D01*
X111379000Y-63373000D01*
X112299750Y-63373000D01*
X112426750Y-63246000D01*
X116383060Y-63246000D01*
X116383060Y-63754000D01*
X116427338Y-63989317D01*
X116518104Y-64130371D01*
X116492173Y-64156302D01*
X116395500Y-64389691D01*
X116395500Y-64484250D01*
X116554250Y-64643000D01*
X117475000Y-64643000D01*
X117475000Y-64623000D01*
X117729000Y-64623000D01*
X117729000Y-64643000D01*
X118649750Y-64643000D01*
X118808500Y-64484250D01*
X118808500Y-64389691D01*
X118711827Y-64156302D01*
X118685291Y-64129765D01*
X118769931Y-64005890D01*
X118820940Y-63754000D01*
X118820940Y-63246000D01*
X118776662Y-63010683D01*
X118685896Y-62869629D01*
X118711827Y-62843698D01*
X118808500Y-62610309D01*
X118808500Y-62515750D01*
X118649750Y-62357000D01*
X117729000Y-62357000D01*
X117729000Y-62377000D01*
X117475000Y-62377000D01*
X117475000Y-62357000D01*
X116554250Y-62357000D01*
X116395500Y-62515750D01*
X116395500Y-62610309D01*
X116492173Y-62843698D01*
X116518709Y-62870235D01*
X116434069Y-62994110D01*
X116383060Y-63246000D01*
X112426750Y-63246000D01*
X112458500Y-63214250D01*
X112458500Y-63119691D01*
X112361827Y-62886302D01*
X112335291Y-62859765D01*
X112419931Y-62735890D01*
X112470940Y-62484000D01*
X112470940Y-61976000D01*
X112426662Y-61740683D01*
X112335896Y-61599629D01*
X112361827Y-61573698D01*
X112458500Y-61340309D01*
X112458500Y-61245750D01*
X112299750Y-61087000D01*
X111379000Y-61087000D01*
X111379000Y-61107000D01*
X111125000Y-61107000D01*
X111125000Y-61087000D01*
X110204250Y-61087000D01*
X110045500Y-61245750D01*
X110045500Y-61340309D01*
X110142173Y-61573698D01*
X110168709Y-61600235D01*
X110084069Y-61724110D01*
X110033060Y-61976000D01*
X107815000Y-61976000D01*
X107815000Y-59436000D01*
X110033060Y-59436000D01*
X110033060Y-59944000D01*
X110077338Y-60179317D01*
X110168104Y-60320371D01*
X110142173Y-60346302D01*
X110045500Y-60579691D01*
X110045500Y-60674250D01*
X110204250Y-60833000D01*
X111125000Y-60833000D01*
X111125000Y-60813000D01*
X111379000Y-60813000D01*
X111379000Y-60833000D01*
X112299750Y-60833000D01*
X112458500Y-60674250D01*
X112458500Y-60579691D01*
X112361827Y-60346302D01*
X112335291Y-60319765D01*
X112419931Y-60195890D01*
X112470940Y-59944000D01*
X112470940Y-59436000D01*
X112426662Y-59200683D01*
X112287590Y-58984559D01*
X112075390Y-58839569D01*
X111823500Y-58788560D01*
X110680500Y-58788560D01*
X110445183Y-58832838D01*
X110229059Y-58971910D01*
X110084069Y-59184110D01*
X110033060Y-59436000D01*
X107815000Y-59436000D01*
X107815000Y-58624971D01*
X114534821Y-58624971D01*
X114692058Y-59005515D01*
X114982954Y-59296919D01*
X115363223Y-59454820D01*
X115774971Y-59455179D01*
X116155515Y-59297942D01*
X116446919Y-59007046D01*
X116604820Y-58626777D01*
X116604826Y-58620000D01*
X117275224Y-58620000D01*
X117167654Y-58641397D01*
X116914838Y-58810323D01*
X116795183Y-58832838D01*
X116579059Y-58971910D01*
X116434069Y-59184110D01*
X116383060Y-59436000D01*
X116383060Y-59944000D01*
X116427338Y-60179317D01*
X116521666Y-60325907D01*
X116434069Y-60454110D01*
X116383060Y-60706000D01*
X116383060Y-61214000D01*
X116427338Y-61449317D01*
X116518104Y-61590371D01*
X116492173Y-61616302D01*
X116395500Y-61849691D01*
X116395500Y-61944250D01*
X116554250Y-62103000D01*
X117475000Y-62103000D01*
X117475000Y-62083000D01*
X117729000Y-62083000D01*
X117729000Y-62103000D01*
X118649750Y-62103000D01*
X118808500Y-61944250D01*
X118808500Y-61849691D01*
X118711827Y-61616302D01*
X118685291Y-61589765D01*
X118769931Y-61465890D01*
X118820940Y-61214000D01*
X118820940Y-60825000D01*
X119550000Y-60825000D01*
X119738826Y-60787440D01*
X120150000Y-60787440D01*
X120385317Y-60743162D01*
X120601441Y-60604090D01*
X120647969Y-60535994D01*
X120790302Y-60678327D01*
X121023691Y-60775000D01*
X121464250Y-60775000D01*
X121623000Y-60616250D01*
X121623000Y-59817000D01*
X121877000Y-59817000D01*
X121877000Y-60616250D01*
X122035750Y-60775000D01*
X122476309Y-60775000D01*
X122709698Y-60678327D01*
X122888327Y-60499699D01*
X122985000Y-60266310D01*
X122985000Y-59975750D01*
X122826250Y-59817000D01*
X121877000Y-59817000D01*
X121623000Y-59817000D01*
X121603000Y-59817000D01*
X121603000Y-59563000D01*
X121623000Y-59563000D01*
X121623000Y-59543000D01*
X121877000Y-59543000D01*
X121877000Y-59563000D01*
X122826250Y-59563000D01*
X122985000Y-59404250D01*
X122985000Y-59113690D01*
X122888327Y-58880301D01*
X122709698Y-58701673D01*
X122512522Y-58620000D01*
X154108225Y-58620000D01*
X154005162Y-58868201D01*
X154004838Y-59240167D01*
X154146883Y-59583943D01*
X154409673Y-59847192D01*
X154753201Y-59989838D01*
X155110887Y-59990150D01*
X155870118Y-60369765D01*
X155896457Y-60376978D01*
X155919161Y-60392148D01*
X156038637Y-60415913D01*
X156156124Y-60448087D01*
X156183214Y-60444672D01*
X156210000Y-60450000D01*
X164299367Y-60450000D01*
X164165162Y-60773201D01*
X164164849Y-61132560D01*
X163060000Y-61132560D01*
X162824683Y-61176838D01*
X162608559Y-61315910D01*
X162560866Y-61385711D01*
X162524090Y-61328559D01*
X162311890Y-61183569D01*
X162060000Y-61132560D01*
X160860000Y-61132560D01*
X160624683Y-61176838D01*
X160408559Y-61315910D01*
X160375011Y-61365010D01*
X160206799Y-61295162D01*
X159834833Y-61294838D01*
X159491057Y-61436883D01*
X159227808Y-61699673D01*
X159085162Y-62043201D01*
X159084838Y-62415167D01*
X159226883Y-62758943D01*
X159489673Y-63022192D01*
X159833201Y-63164838D01*
X160205167Y-63165162D01*
X160372988Y-63095820D01*
X160395910Y-63131441D01*
X160608110Y-63276431D01*
X160860000Y-63327440D01*
X161657758Y-63327440D01*
X161628454Y-63356744D01*
X161576691Y-63335250D01*
X161005813Y-63334752D01*
X160478200Y-63552757D01*
X160074176Y-63956077D01*
X159855250Y-64483309D01*
X159854752Y-65054187D01*
X160072757Y-65581800D01*
X160476077Y-65985824D01*
X161003309Y-66204750D01*
X161574187Y-66205248D01*
X162101800Y-65987243D01*
X162311663Y-65777745D01*
X162961861Y-65777745D01*
X163035995Y-66023864D01*
X163573223Y-66216965D01*
X164143454Y-66189778D01*
X164544005Y-66023864D01*
X164618139Y-65777745D01*
X163790000Y-64949605D01*
X162961861Y-65777745D01*
X162311663Y-65777745D01*
X162505824Y-65583923D01*
X162533423Y-65517456D01*
X162536136Y-65524005D01*
X162782255Y-65598139D01*
X163610395Y-64770000D01*
X163969605Y-64770000D01*
X164797745Y-65598139D01*
X165043864Y-65524005D01*
X165236965Y-64986777D01*
X165209778Y-64416546D01*
X165043864Y-64015995D01*
X164797745Y-63941861D01*
X163969605Y-64770000D01*
X163610395Y-64770000D01*
X163596252Y-64755858D01*
X163775858Y-64576252D01*
X163790000Y-64590395D01*
X164618139Y-63762255D01*
X164544005Y-63516136D01*
X164019032Y-63327440D01*
X164260000Y-63327440D01*
X164495317Y-63283162D01*
X164711441Y-63144090D01*
X164856431Y-62931890D01*
X164907440Y-62680000D01*
X164907440Y-61892446D01*
X164913201Y-61894838D01*
X164960077Y-61894879D01*
X165832599Y-62767401D01*
X166079160Y-62932148D01*
X166370000Y-62990000D01*
X168967005Y-62990000D01*
X169137189Y-63244698D01*
X169519275Y-63500000D01*
X169137189Y-63755302D01*
X168826120Y-64220849D01*
X168716887Y-64770000D01*
X168826120Y-65319151D01*
X169137189Y-65784698D01*
X169602736Y-66095767D01*
X170151887Y-66205000D01*
X170208113Y-66205000D01*
X170757264Y-66095767D01*
X171222811Y-65784698D01*
X171533880Y-65319151D01*
X171573684Y-65119039D01*
X176408096Y-65119039D01*
X176568959Y-65507423D01*
X176944866Y-65922389D01*
X177450959Y-66161914D01*
X177673000Y-66040629D01*
X177673000Y-64897000D01*
X177927000Y-64897000D01*
X177927000Y-66040629D01*
X178149041Y-66161914D01*
X178655134Y-65922389D01*
X179031041Y-65507423D01*
X179191904Y-65119039D01*
X179069915Y-64897000D01*
X177927000Y-64897000D01*
X177673000Y-64897000D01*
X176530085Y-64897000D01*
X176408096Y-65119039D01*
X171573684Y-65119039D01*
X171643113Y-64770000D01*
X171533880Y-64220849D01*
X171222811Y-63755302D01*
X170840725Y-63500000D01*
X171222811Y-63244698D01*
X171533880Y-62779151D01*
X171573684Y-62579039D01*
X176408096Y-62579039D01*
X176568959Y-62967423D01*
X176944866Y-63382389D01*
X177193367Y-63500000D01*
X176944866Y-63617611D01*
X176568959Y-64032577D01*
X176408096Y-64420961D01*
X176530085Y-64643000D01*
X177673000Y-64643000D01*
X177673000Y-62357000D01*
X177927000Y-62357000D01*
X177927000Y-64643000D01*
X179069915Y-64643000D01*
X179191904Y-64420961D01*
X179031041Y-64032577D01*
X178695345Y-63662000D01*
X180362560Y-63662000D01*
X180362560Y-64862000D01*
X180406838Y-65097317D01*
X180545910Y-65313441D01*
X180758110Y-65458431D01*
X181010000Y-65509440D01*
X182210000Y-65509440D01*
X182445317Y-65465162D01*
X182661441Y-65326090D01*
X182728150Y-65228458D01*
X182831871Y-65124737D01*
X182881383Y-65350164D01*
X183346036Y-65509807D01*
X183836413Y-65479482D01*
X184148617Y-65350164D01*
X184198130Y-65124735D01*
X183515000Y-64441605D01*
X183500858Y-64455748D01*
X183321253Y-64276143D01*
X183335395Y-64262000D01*
X183321253Y-64247858D01*
X183500858Y-64068253D01*
X183515000Y-64082395D01*
X184198130Y-63399265D01*
X184148617Y-63173836D01*
X183683964Y-63014193D01*
X183193587Y-63044518D01*
X182881383Y-63173836D01*
X182831871Y-63399263D01*
X182729903Y-63297295D01*
X182674090Y-63210559D01*
X182461890Y-63065569D01*
X182210000Y-63014560D01*
X181010000Y-63014560D01*
X180774683Y-63058838D01*
X180558559Y-63197910D01*
X180413569Y-63410110D01*
X180362560Y-63662000D01*
X178695345Y-63662000D01*
X178655134Y-63617611D01*
X178406633Y-63500000D01*
X178655134Y-63382389D01*
X179031041Y-62967423D01*
X179191904Y-62579039D01*
X179069915Y-62357000D01*
X177927000Y-62357000D01*
X177673000Y-62357000D01*
X176530085Y-62357000D01*
X176408096Y-62579039D01*
X171573684Y-62579039D01*
X171643113Y-62230000D01*
X171533880Y-61680849D01*
X171222811Y-61215302D01*
X171078535Y-61118899D01*
X171215317Y-61093162D01*
X171431441Y-60954090D01*
X171576431Y-60741890D01*
X171627440Y-60490000D01*
X171627440Y-60039039D01*
X176408096Y-60039039D01*
X176568959Y-60427423D01*
X176944866Y-60842389D01*
X177193367Y-60960000D01*
X176944866Y-61077611D01*
X176568959Y-61492577D01*
X176408096Y-61880961D01*
X176530085Y-62103000D01*
X177673000Y-62103000D01*
X177673000Y-59817000D01*
X177927000Y-59817000D01*
X177927000Y-62103000D01*
X179069915Y-62103000D01*
X179191904Y-61880961D01*
X179031041Y-61492577D01*
X178655134Y-61077611D01*
X178406633Y-60960000D01*
X178655134Y-60842389D01*
X179031041Y-60427423D01*
X179191904Y-60039039D01*
X179069915Y-59817000D01*
X177927000Y-59817000D01*
X177673000Y-59817000D01*
X176530085Y-59817000D01*
X176408096Y-60039039D01*
X171627440Y-60039039D01*
X171627440Y-59340961D01*
X176408096Y-59340961D01*
X176530085Y-59563000D01*
X177673000Y-59563000D01*
X177673000Y-58419371D01*
X177927000Y-58419371D01*
X177927000Y-59563000D01*
X179069915Y-59563000D01*
X179191904Y-59340961D01*
X179031041Y-58952577D01*
X178655134Y-58537611D01*
X178149041Y-58298086D01*
X177927000Y-58419371D01*
X177673000Y-58419371D01*
X177450959Y-58298086D01*
X176944866Y-58537611D01*
X176568959Y-58952577D01*
X176408096Y-59340961D01*
X171627440Y-59340961D01*
X171627440Y-58890000D01*
X171583162Y-58654683D01*
X171444090Y-58438559D01*
X171231890Y-58293569D01*
X170980000Y-58242560D01*
X169380000Y-58242560D01*
X169144683Y-58286838D01*
X168928559Y-58425910D01*
X168783569Y-58638110D01*
X168732560Y-58890000D01*
X168732560Y-58930000D01*
X159658911Y-58930000D01*
X159784820Y-58626777D01*
X159785179Y-58215029D01*
X159690133Y-57985000D01*
X162607159Y-57985000D01*
X162750853Y-58200054D01*
X163232622Y-58521961D01*
X163800907Y-58635000D01*
X163859093Y-58635000D01*
X164427378Y-58521961D01*
X164909147Y-58200054D01*
X164909971Y-58198821D01*
X164916838Y-58235317D01*
X165055910Y-58451441D01*
X165268110Y-58596431D01*
X165520000Y-58647440D01*
X167220000Y-58647440D01*
X167455317Y-58603162D01*
X167671441Y-58464090D01*
X167816431Y-58251890D01*
X167867440Y-58000000D01*
X167867440Y-56300000D01*
X167823162Y-56064683D01*
X167702985Y-55877923D01*
X167816431Y-55711890D01*
X167867440Y-55460000D01*
X167867440Y-53760000D01*
X167823162Y-53524683D01*
X167684090Y-53308559D01*
X167471890Y-53163569D01*
X167220000Y-53112560D01*
X165520000Y-53112560D01*
X165284683Y-53156838D01*
X165263597Y-53170406D01*
X165315000Y-53046309D01*
X165315000Y-52355750D01*
X165156250Y-52197000D01*
X163957000Y-52197000D01*
X163957000Y-52217000D01*
X163703000Y-52217000D01*
X163703000Y-52197000D01*
X163683000Y-52197000D01*
X163683000Y-51943000D01*
X163703000Y-51943000D01*
X163703000Y-51923000D01*
X163957000Y-51923000D01*
X163957000Y-51943000D01*
X165156250Y-51943000D01*
X165315000Y-51784250D01*
X165315000Y-51093691D01*
X165265766Y-50974829D01*
X165268110Y-50976431D01*
X165520000Y-51027440D01*
X167220000Y-51027440D01*
X167455317Y-50983162D01*
X167671441Y-50844090D01*
X167816431Y-50631890D01*
X167867440Y-50380000D01*
X167867440Y-48680000D01*
X167823162Y-48444683D01*
X167702985Y-48257923D01*
X167816431Y-48091890D01*
X167867440Y-47840000D01*
X167867440Y-47750000D01*
X167960198Y-47750000D01*
X168150000Y-47939802D01*
X168150000Y-54610000D01*
X168207852Y-54900839D01*
X168372599Y-55147401D01*
X169244878Y-56019680D01*
X169244838Y-56065167D01*
X169386883Y-56408943D01*
X169649673Y-56672192D01*
X169993201Y-56814838D01*
X170365167Y-56815162D01*
X170708943Y-56673117D01*
X170972192Y-56410327D01*
X171114838Y-56066799D01*
X171115162Y-55694833D01*
X170973117Y-55351057D01*
X170710327Y-55087808D01*
X170366799Y-54945162D01*
X170319923Y-54945121D01*
X169670000Y-54295198D01*
X169670000Y-47625000D01*
X169612148Y-47334161D01*
X169447401Y-47087599D01*
X168812401Y-46452599D01*
X168565839Y-46287852D01*
X168275000Y-46230000D01*
X167867440Y-46230000D01*
X167867440Y-46140000D01*
X167823162Y-45904683D01*
X167778805Y-45835750D01*
X171000000Y-45835750D01*
X171000000Y-46276309D01*
X171096673Y-46509698D01*
X171275301Y-46688327D01*
X171508690Y-46785000D01*
X171799250Y-46785000D01*
X171958000Y-46626250D01*
X171958000Y-45677000D01*
X171158750Y-45677000D01*
X171000000Y-45835750D01*
X167778805Y-45835750D01*
X167684090Y-45688559D01*
X167471890Y-45543569D01*
X167220000Y-45492560D01*
X165520000Y-45492560D01*
X165284683Y-45536838D01*
X165068559Y-45675910D01*
X164923569Y-45888110D01*
X164912159Y-45944454D01*
X164909147Y-45939946D01*
X164427378Y-45618039D01*
X163859093Y-45505000D01*
X163800907Y-45505000D01*
X163232622Y-45618039D01*
X162750853Y-45939946D01*
X162428946Y-46421715D01*
X162364502Y-46745696D01*
X161387599Y-47722599D01*
X161222852Y-47969161D01*
X161165000Y-48260000D01*
X161165000Y-50872537D01*
X161132808Y-50904673D01*
X160990162Y-51248201D01*
X160989838Y-51620167D01*
X161131883Y-51963943D01*
X161394673Y-52227192D01*
X161738201Y-52369838D01*
X162110167Y-52370162D01*
X162453943Y-52228117D01*
X162485112Y-52197002D01*
X162503748Y-52197002D01*
X162345000Y-52355750D01*
X162345000Y-53046309D01*
X162441673Y-53279698D01*
X162620301Y-53458327D01*
X162794777Y-53530597D01*
X162750853Y-53559946D01*
X162607159Y-53775000D01*
X157825868Y-53775000D01*
X156610127Y-52559259D01*
X156610179Y-52500029D01*
X156452942Y-52119485D01*
X156162046Y-51828081D01*
X155781777Y-51670180D01*
X155370029Y-51669821D01*
X154989485Y-51827058D01*
X154698081Y-52117954D01*
X154540180Y-52498223D01*
X154539821Y-52909971D01*
X154697058Y-53290515D01*
X154746288Y-53339831D01*
X154698081Y-53387954D01*
X154540180Y-53768223D01*
X154539821Y-54179971D01*
X154697058Y-54560515D01*
X154987954Y-54851919D01*
X155368223Y-55009820D01*
X155429005Y-55009873D01*
X157369132Y-56950000D01*
X116205000Y-56950000D01*
X115885460Y-57013560D01*
X115614566Y-57194566D01*
X115424259Y-57384873D01*
X115365029Y-57384821D01*
X114984485Y-57542058D01*
X114693081Y-57832954D01*
X114535180Y-58213223D01*
X114534821Y-58624971D01*
X107815000Y-58624971D01*
X107815000Y-52540132D01*
X126200132Y-34155000D01*
X161651264Y-34155000D01*
X161740405Y-34244297D01*
X162271311Y-34464748D01*
X162846167Y-34465250D01*
X163377457Y-34245725D01*
X163468341Y-34155000D01*
X164215000Y-34155000D01*
X164215000Y-34266614D01*
X164128569Y-34393110D01*
X164077560Y-34645000D01*
X164077560Y-35845000D01*
X164121838Y-36080317D01*
X164195620Y-36194978D01*
X164128569Y-36293110D01*
X164077560Y-36545000D01*
X164077560Y-37092638D01*
X163910198Y-37260000D01*
X163809466Y-37260000D01*
X163785725Y-37202543D01*
X163379595Y-36795703D01*
X162848689Y-36575252D01*
X162273833Y-36574750D01*
X161742543Y-36794275D01*
X161335703Y-37200405D01*
X161115252Y-37731311D01*
X161114750Y-38306167D01*
X161334275Y-38837457D01*
X161740405Y-39244297D01*
X162271311Y-39464748D01*
X162846167Y-39465250D01*
X163377457Y-39245725D01*
X163784297Y-38839595D01*
X163809043Y-38780000D01*
X164225000Y-38780000D01*
X164515839Y-38722148D01*
X164762401Y-38557401D01*
X164927362Y-38392440D01*
X164952638Y-38392440D01*
X165197599Y-38637401D01*
X165444161Y-38802148D01*
X165735000Y-38860000D01*
X167640000Y-38860000D01*
X167930839Y-38802148D01*
X168177401Y-38637401D01*
X170082401Y-36732401D01*
X170247148Y-36485839D01*
X170305000Y-36195000D01*
X170305000Y-35487463D01*
X170337192Y-35455327D01*
X170479838Y-35111799D01*
X170479872Y-35073274D01*
X170555910Y-35191441D01*
X170768110Y-35336431D01*
X171020000Y-35387440D01*
X172220000Y-35387440D01*
X172455317Y-35343162D01*
X172671441Y-35204090D01*
X172717969Y-35135994D01*
X172860302Y-35278327D01*
X173093691Y-35375000D01*
X173534250Y-35375000D01*
X173693000Y-35216250D01*
X173693000Y-34417000D01*
X173947000Y-34417000D01*
X173947000Y-35216250D01*
X174105750Y-35375000D01*
X174546309Y-35375000D01*
X174779698Y-35278327D01*
X174958327Y-35099699D01*
X175055000Y-34866310D01*
X175055000Y-34575750D01*
X174896250Y-34417000D01*
X173947000Y-34417000D01*
X173693000Y-34417000D01*
X173673000Y-34417000D01*
X173673000Y-34163000D01*
X173693000Y-34163000D01*
X173693000Y-33363750D01*
X173947000Y-33363750D01*
X173947000Y-34163000D01*
X174896250Y-34163000D01*
X175055000Y-34004250D01*
X175055000Y-33713690D01*
X175045188Y-33690000D01*
X180362560Y-33690000D01*
X180362560Y-34890000D01*
X180406838Y-35125317D01*
X180545910Y-35341441D01*
X180758110Y-35486431D01*
X181010000Y-35537440D01*
X182210000Y-35537440D01*
X182445317Y-35493162D01*
X182572636Y-35411234D01*
X182941036Y-35537807D01*
X183431413Y-35507482D01*
X183743617Y-35378164D01*
X183793130Y-35152735D01*
X183110000Y-34469605D01*
X183095858Y-34483748D01*
X182916253Y-34304143D01*
X182930395Y-34290000D01*
X183289605Y-34290000D01*
X183972735Y-34973130D01*
X184198164Y-34923617D01*
X184357807Y-34458964D01*
X184327482Y-33968587D01*
X184198164Y-33656383D01*
X183972735Y-33606870D01*
X183289605Y-34290000D01*
X182930395Y-34290000D01*
X182916253Y-34275858D01*
X183095858Y-34096253D01*
X183110000Y-34110395D01*
X183720395Y-33500000D01*
X188790000Y-33500000D01*
X188958226Y-34345730D01*
X189437294Y-35062706D01*
X190154270Y-35541774D01*
X191000000Y-35710000D01*
X191845730Y-35541774D01*
X192562706Y-35062706D01*
X193041774Y-34345730D01*
X193210000Y-33500000D01*
X193041774Y-32654270D01*
X192562706Y-31937294D01*
X191845730Y-31458226D01*
X191000000Y-31290000D01*
X190154270Y-31458226D01*
X189437294Y-31937294D01*
X188958226Y-32654270D01*
X188790000Y-33500000D01*
X183720395Y-33500000D01*
X183793130Y-33427265D01*
X183743617Y-33201836D01*
X183278964Y-33042193D01*
X182788587Y-33072518D01*
X182566010Y-33164711D01*
X182461890Y-33093569D01*
X182210000Y-33042560D01*
X181010000Y-33042560D01*
X180774683Y-33086838D01*
X180558559Y-33225910D01*
X180413569Y-33438110D01*
X180362560Y-33690000D01*
X175045188Y-33690000D01*
X174958327Y-33480301D01*
X174779698Y-33301673D01*
X174546309Y-33205000D01*
X174105750Y-33205000D01*
X173947000Y-33363750D01*
X173693000Y-33363750D01*
X173534250Y-33205000D01*
X173093691Y-33205000D01*
X172860302Y-33301673D01*
X172719064Y-33442910D01*
X172684090Y-33388559D01*
X172471890Y-33243569D01*
X172220000Y-33192560D01*
X171020000Y-33192560D01*
X170784683Y-33236838D01*
X170568559Y-33375910D01*
X170463274Y-33530000D01*
X170180000Y-33530000D01*
X169961711Y-33573421D01*
X170650132Y-32885000D01*
X175706042Y-32885000D01*
X175744436Y-32923461D01*
X176253298Y-33134759D01*
X176804285Y-33135240D01*
X177313515Y-32924831D01*
X177703461Y-32535564D01*
X177914759Y-32026702D01*
X177915240Y-31475715D01*
X177704831Y-30966485D01*
X177448793Y-30710000D01*
X194183000Y-30710000D01*
X194183000Y-59873170D01*
X194086370Y-59776371D01*
X193573100Y-59563243D01*
X193017339Y-59562758D01*
X192867469Y-59624683D01*
X192905000Y-59436000D01*
X192905000Y-58326484D01*
X193154846Y-58077073D01*
X193404206Y-57476547D01*
X193404774Y-56826306D01*
X193156462Y-56225345D01*
X192697073Y-55765154D01*
X192096547Y-55515794D01*
X191446306Y-55515226D01*
X190845345Y-55763538D01*
X190385154Y-56222927D01*
X190135794Y-56823453D01*
X190135226Y-57473694D01*
X190383538Y-58074655D01*
X190635000Y-58326556D01*
X190635000Y-58965867D01*
X190038050Y-59562818D01*
X189969339Y-59562758D01*
X189730000Y-59661651D01*
X189730000Y-58735000D01*
X189643603Y-58300654D01*
X189397566Y-57932434D01*
X185957295Y-54492163D01*
X190797443Y-54492163D01*
X190896042Y-54758965D01*
X191505582Y-54985401D01*
X192155377Y-54961341D01*
X192643958Y-54758965D01*
X192742557Y-54492163D01*
X191770000Y-53519605D01*
X190797443Y-54492163D01*
X185957295Y-54492163D01*
X184540714Y-53075582D01*
X190124599Y-53075582D01*
X190148659Y-53725377D01*
X190351035Y-54213958D01*
X190617837Y-54312557D01*
X191590395Y-53340000D01*
X191949605Y-53340000D01*
X192922163Y-54312557D01*
X193188965Y-54213958D01*
X193415401Y-53604418D01*
X193391341Y-52954623D01*
X193188965Y-52466042D01*
X192922163Y-52367443D01*
X191949605Y-53340000D01*
X191590395Y-53340000D01*
X190617837Y-52367443D01*
X190351035Y-52466042D01*
X190124599Y-53075582D01*
X184540714Y-53075582D01*
X183652969Y-52187837D01*
X190797443Y-52187837D01*
X191770000Y-53160395D01*
X192742557Y-52187837D01*
X192643958Y-51921035D01*
X192034418Y-51694599D01*
X191384623Y-51718659D01*
X190896042Y-51921035D01*
X190797443Y-52187837D01*
X183652969Y-52187837D01*
X181635000Y-50169868D01*
X181635000Y-50074152D01*
X181750000Y-50097440D01*
X185250000Y-50097440D01*
X185485317Y-50053162D01*
X185701441Y-49914090D01*
X185846431Y-49701890D01*
X185897440Y-49450000D01*
X185897440Y-45950000D01*
X185853162Y-45714683D01*
X185714090Y-45498559D01*
X185547891Y-45385000D01*
X186214250Y-45385000D01*
X186373000Y-45226250D01*
X186373000Y-43127000D01*
X186627000Y-43127000D01*
X186627000Y-45226250D01*
X186785750Y-45385000D01*
X188376309Y-45385000D01*
X188609698Y-45288327D01*
X188788327Y-45109699D01*
X188885000Y-44876310D01*
X188885000Y-43285750D01*
X188726250Y-43127000D01*
X186627000Y-43127000D01*
X186373000Y-43127000D01*
X184273750Y-43127000D01*
X184115000Y-43285750D01*
X184115000Y-44876310D01*
X184211673Y-45109699D01*
X184390302Y-45288327D01*
X184424663Y-45302560D01*
X182563955Y-45302560D01*
X182701441Y-45214090D01*
X182846431Y-45001890D01*
X182897440Y-44750000D01*
X182897440Y-41250000D01*
X182873674Y-41123690D01*
X184115000Y-41123690D01*
X184115000Y-42714250D01*
X184273750Y-42873000D01*
X186373000Y-42873000D01*
X186373000Y-40773750D01*
X186627000Y-40773750D01*
X186627000Y-42873000D01*
X188726250Y-42873000D01*
X188885000Y-42714250D01*
X188885000Y-41123690D01*
X188788327Y-40890301D01*
X188609698Y-40711673D01*
X188376309Y-40615000D01*
X186785750Y-40615000D01*
X186627000Y-40773750D01*
X186373000Y-40773750D01*
X186214250Y-40615000D01*
X184623691Y-40615000D01*
X184390302Y-40711673D01*
X184211673Y-40890301D01*
X184115000Y-41123690D01*
X182873674Y-41123690D01*
X182853162Y-41014683D01*
X182714090Y-40798559D01*
X182501890Y-40653569D01*
X182250000Y-40602560D01*
X178750000Y-40602560D01*
X178514683Y-40646838D01*
X178298559Y-40785910D01*
X178153569Y-40998110D01*
X178102560Y-41250000D01*
X178102560Y-44750000D01*
X178146838Y-44985317D01*
X178285910Y-45201441D01*
X178498110Y-45346431D01*
X178750000Y-45397440D01*
X179365000Y-45397440D01*
X179365000Y-49385198D01*
X176458461Y-46478659D01*
X176687192Y-46250327D01*
X176829838Y-45906799D01*
X176830162Y-45534833D01*
X176688117Y-45191057D01*
X176642042Y-45144902D01*
X176671431Y-45101890D01*
X176722440Y-44850000D01*
X176722440Y-44050000D01*
X176678162Y-43814683D01*
X176539090Y-43598559D01*
X176326890Y-43453569D01*
X176075000Y-43402560D01*
X175175000Y-43402560D01*
X174939683Y-43446838D01*
X174780388Y-43549342D01*
X174722440Y-43494291D01*
X174722440Y-43100000D01*
X174678162Y-42864683D01*
X174539090Y-42648559D01*
X174326890Y-42503569D01*
X174241673Y-42486312D01*
X174282440Y-42285000D01*
X174282440Y-41535000D01*
X174238162Y-41299683D01*
X174099090Y-41083559D01*
X174055540Y-41053803D01*
X174162401Y-40982401D01*
X174180766Y-40954916D01*
X174236441Y-40919090D01*
X174381431Y-40706890D01*
X174432440Y-40455000D01*
X174432440Y-39555000D01*
X174388162Y-39319683D01*
X174249090Y-39103559D01*
X174036890Y-38958569D01*
X173785000Y-38907560D01*
X172585000Y-38907560D01*
X172349683Y-38951838D01*
X172133559Y-39090910D01*
X172085866Y-39160711D01*
X172049090Y-39103559D01*
X171836890Y-38958569D01*
X171585000Y-38907560D01*
X170385000Y-38907560D01*
X170366995Y-38910948D01*
X170338117Y-38841057D01*
X170075327Y-38577808D01*
X169731799Y-38435162D01*
X169359833Y-38434838D01*
X169016057Y-38576883D01*
X168752808Y-38839673D01*
X168610162Y-39183201D01*
X168610121Y-39230077D01*
X167960198Y-39880000D01*
X159385000Y-39880000D01*
X159094161Y-39937852D01*
X158847599Y-40102599D01*
X149957599Y-48992599D01*
X149792852Y-49239161D01*
X149735000Y-49530000D01*
X149735000Y-54047537D01*
X149702808Y-54079673D01*
X149560162Y-54423201D01*
X149559838Y-54795167D01*
X149701883Y-55138943D01*
X149964673Y-55402192D01*
X150308201Y-55544838D01*
X150680167Y-55545162D01*
X150935430Y-55439690D01*
X150830162Y-55693201D01*
X150829838Y-56065167D01*
X150971883Y-56408943D01*
X151234673Y-56672192D01*
X151578201Y-56814838D01*
X151950167Y-56815162D01*
X152293943Y-56673117D01*
X152557192Y-56410327D01*
X152699838Y-56066799D01*
X152700162Y-55694833D01*
X152558117Y-55351057D01*
X152525000Y-55317882D01*
X152525000Y-49844802D01*
X159699802Y-42670000D01*
X168445000Y-42670000D01*
X168735839Y-42612148D01*
X168982401Y-42447401D01*
X169900000Y-41529802D01*
X169900000Y-41624250D01*
X170058750Y-41783000D01*
X171008000Y-41783000D01*
X171008000Y-41763000D01*
X171262000Y-41763000D01*
X171262000Y-41783000D01*
X171282000Y-41783000D01*
X171282000Y-42037000D01*
X171262000Y-42037000D01*
X171262000Y-42057000D01*
X171008000Y-42057000D01*
X171008000Y-42037000D01*
X170058750Y-42037000D01*
X169900000Y-42195750D01*
X169900000Y-42411310D01*
X169996673Y-42644699D01*
X170175302Y-42823327D01*
X170408691Y-42920000D01*
X170849250Y-42920000D01*
X170987560Y-42781690D01*
X170987560Y-43950000D01*
X171031838Y-44185317D01*
X171170910Y-44401441D01*
X171239006Y-44447969D01*
X171096673Y-44590302D01*
X171000000Y-44823691D01*
X171000000Y-45264250D01*
X171158750Y-45423000D01*
X171958000Y-45423000D01*
X171958000Y-45403000D01*
X172212000Y-45403000D01*
X172212000Y-45423000D01*
X172232000Y-45423000D01*
X172232000Y-45677000D01*
X172212000Y-45677000D01*
X172212000Y-46626250D01*
X172370750Y-46785000D01*
X172661310Y-46785000D01*
X172894699Y-46688327D01*
X173073327Y-46509698D01*
X173104268Y-46435000D01*
X173339250Y-46435000D01*
X173498000Y-46276250D01*
X173498000Y-45527000D01*
X173478000Y-45527000D01*
X173478000Y-45273000D01*
X173498000Y-45273000D01*
X173498000Y-45253000D01*
X173752000Y-45253000D01*
X173752000Y-45273000D01*
X173772000Y-45273000D01*
X173772000Y-45527000D01*
X173752000Y-45527000D01*
X173752000Y-46276250D01*
X173910750Y-46435000D01*
X174201309Y-46435000D01*
X174246485Y-46416287D01*
X177279233Y-49449035D01*
X176836670Y-49265267D01*
X176226009Y-49264735D01*
X175661629Y-49497932D01*
X175259677Y-49899182D01*
X174860643Y-49499449D01*
X174296670Y-49265267D01*
X173686009Y-49264735D01*
X173121629Y-49497932D01*
X172953387Y-49665880D01*
X172953162Y-49664683D01*
X172814090Y-49448559D01*
X172601890Y-49303569D01*
X172350000Y-49252560D01*
X170550000Y-49252560D01*
X170314683Y-49296838D01*
X170098559Y-49435910D01*
X169953569Y-49648110D01*
X169902560Y-49900000D01*
X169902560Y-51700000D01*
X169946838Y-51935317D01*
X170085910Y-52151441D01*
X170298110Y-52296431D01*
X170550000Y-52347440D01*
X172350000Y-52347440D01*
X172585317Y-52303162D01*
X172801441Y-52164090D01*
X172946431Y-51951890D01*
X172950567Y-51931466D01*
X173119357Y-52100551D01*
X173683330Y-52334733D01*
X174293991Y-52335265D01*
X174858371Y-52102068D01*
X175260323Y-51700818D01*
X175659357Y-52100551D01*
X175695000Y-52115351D01*
X175695000Y-54936026D01*
X175648559Y-54965910D01*
X175503569Y-55178110D01*
X175452560Y-55430000D01*
X175452560Y-56330000D01*
X175496838Y-56565317D01*
X175635910Y-56781441D01*
X175848110Y-56926431D01*
X176100000Y-56977440D01*
X177300000Y-56977440D01*
X177535317Y-56933162D01*
X177751441Y-56794090D01*
X177797969Y-56725994D01*
X177940302Y-56868327D01*
X178173691Y-56965000D01*
X178614250Y-56965000D01*
X178773000Y-56806250D01*
X178773000Y-56007000D01*
X179027000Y-56007000D01*
X179027000Y-56806250D01*
X179185750Y-56965000D01*
X179626309Y-56965000D01*
X179859698Y-56868327D01*
X180038327Y-56689699D01*
X180135000Y-56456310D01*
X180135000Y-56165750D01*
X179976250Y-56007000D01*
X179027000Y-56007000D01*
X178773000Y-56007000D01*
X178753000Y-56007000D01*
X178753000Y-55753000D01*
X178773000Y-55753000D01*
X178773000Y-54953750D01*
X179027000Y-54953750D01*
X179027000Y-55753000D01*
X179976250Y-55753000D01*
X180135000Y-55594250D01*
X180135000Y-55303690D01*
X180038327Y-55070301D01*
X179859698Y-54891673D01*
X179626309Y-54795000D01*
X179185750Y-54795000D01*
X179027000Y-54953750D01*
X178773000Y-54953750D01*
X178614250Y-54795000D01*
X178173691Y-54795000D01*
X177940302Y-54891673D01*
X177799064Y-55032910D01*
X177764090Y-54978559D01*
X177551890Y-54833569D01*
X177365000Y-54795723D01*
X177365000Y-52115857D01*
X177398371Y-52102068D01*
X177830551Y-51670643D01*
X178064733Y-51106670D01*
X178065265Y-50496009D01*
X177881527Y-50051329D01*
X178310000Y-50479802D01*
X178310000Y-51435000D01*
X178367852Y-51725839D01*
X178532599Y-51972401D01*
X182755000Y-56194802D01*
X182755000Y-58703644D01*
X182731236Y-58727366D01*
X182674090Y-58638559D01*
X182461890Y-58493569D01*
X182210000Y-58442560D01*
X181010000Y-58442560D01*
X180774683Y-58486838D01*
X180558559Y-58625910D01*
X180413569Y-58838110D01*
X180362560Y-59090000D01*
X180362560Y-60290000D01*
X180406838Y-60525317D01*
X180545910Y-60741441D01*
X180758110Y-60886431D01*
X181010000Y-60937440D01*
X182210000Y-60937440D01*
X182445317Y-60893162D01*
X182661441Y-60754090D01*
X182730828Y-60652538D01*
X182814515Y-60736371D01*
X183268266Y-60924785D01*
X183759579Y-60925214D01*
X184213657Y-60737592D01*
X184467638Y-60484054D01*
X184719515Y-60736371D01*
X185173266Y-60924785D01*
X185580338Y-60925140D01*
X186565000Y-61909802D01*
X186565000Y-63799087D01*
X186467592Y-63563343D01*
X186120485Y-63215629D01*
X185666734Y-63027215D01*
X185175421Y-63026786D01*
X184721343Y-63214408D01*
X184373629Y-63561515D01*
X184358390Y-63598215D01*
X183694605Y-64262000D01*
X184357724Y-64925119D01*
X184372408Y-64960657D01*
X184719515Y-65308371D01*
X184971990Y-65413208D01*
X183782599Y-66602599D01*
X183617852Y-66849161D01*
X183560000Y-67140000D01*
X183560000Y-67512666D01*
X183484683Y-67526838D01*
X183268559Y-67665910D01*
X183123569Y-67878110D01*
X183072560Y-68130000D01*
X183072560Y-69030000D01*
X183116838Y-69265317D01*
X183255910Y-69481441D01*
X183468110Y-69626431D01*
X183720000Y-69677440D01*
X184920000Y-69677440D01*
X185155317Y-69633162D01*
X185371441Y-69494090D01*
X185419134Y-69424289D01*
X185455910Y-69481441D01*
X185668110Y-69626431D01*
X185920000Y-69677440D01*
X186712638Y-69677440D01*
X187024878Y-69989680D01*
X187024849Y-70022560D01*
X185920000Y-70022560D01*
X185684683Y-70066838D01*
X185468559Y-70205910D01*
X185420866Y-70275711D01*
X185384090Y-70218559D01*
X185171890Y-70073569D01*
X184920000Y-70022560D01*
X183720000Y-70022560D01*
X183484683Y-70066838D01*
X183268559Y-70205910D01*
X183163274Y-70360000D01*
X181924802Y-70360000D01*
X178337401Y-66772599D01*
X178090839Y-66607852D01*
X177800000Y-66550000D01*
X159699802Y-66550000D01*
X152700122Y-59550320D01*
X152700162Y-59504833D01*
X152558117Y-59161057D01*
X152295327Y-58897808D01*
X151951799Y-58755162D01*
X151579833Y-58754838D01*
X151236057Y-58896883D01*
X150972808Y-59159673D01*
X150830162Y-59503201D01*
X150829838Y-59875167D01*
X150971883Y-60218943D01*
X151234673Y-60482192D01*
X151578201Y-60624838D01*
X151625077Y-60624879D01*
X158847599Y-67847401D01*
X159094160Y-68012148D01*
X159385000Y-68070000D01*
X177485198Y-68070000D01*
X179324734Y-69909536D01*
X178534350Y-69591176D01*
X177523923Y-69601067D01*
X176636353Y-69968711D01*
X176427165Y-70329560D01*
X178054000Y-71956395D01*
X178068143Y-71942253D01*
X178247748Y-72121858D01*
X178233605Y-72136000D01*
X179860440Y-73762835D01*
X180221289Y-73553647D01*
X180598824Y-72616350D01*
X180588933Y-71605923D01*
X180283329Y-70868131D01*
X181072599Y-71657401D01*
X181319161Y-71822148D01*
X181610000Y-71880000D01*
X183164895Y-71880000D01*
X183255910Y-72021441D01*
X183468110Y-72166431D01*
X183560000Y-72185039D01*
X183560000Y-72608903D01*
X183464683Y-72626838D01*
X183248559Y-72765910D01*
X183103569Y-72978110D01*
X183052560Y-73230000D01*
X183052560Y-74430000D01*
X183096838Y-74665317D01*
X183235910Y-74881441D01*
X183304006Y-74927969D01*
X183161673Y-75070302D01*
X183065000Y-75303691D01*
X183065000Y-75744250D01*
X183223750Y-75903000D01*
X184023000Y-75903000D01*
X184023000Y-75883000D01*
X184277000Y-75883000D01*
X184277000Y-75903000D01*
X185076250Y-75903000D01*
X185235000Y-75744250D01*
X185235000Y-75303691D01*
X185138327Y-75070302D01*
X184997090Y-74929064D01*
X185051441Y-74894090D01*
X185196431Y-74681890D01*
X185247440Y-74430000D01*
X185247440Y-73230000D01*
X185203162Y-72994683D01*
X185080000Y-72803284D01*
X185080000Y-72187334D01*
X185155317Y-72173162D01*
X185371441Y-72034090D01*
X185419134Y-71964289D01*
X185455910Y-72021441D01*
X185668110Y-72166431D01*
X185920000Y-72217440D01*
X187120000Y-72217440D01*
X187355317Y-72173162D01*
X187571441Y-72034090D01*
X187676726Y-71880000D01*
X187960000Y-71880000D01*
X188250839Y-71822148D01*
X188294966Y-71792663D01*
X188294838Y-71940167D01*
X188436883Y-72283943D01*
X188699673Y-72547192D01*
X189043201Y-72689838D01*
X189106227Y-72689893D01*
X189304161Y-72822148D01*
X189595000Y-72880000D01*
X189864895Y-72880000D01*
X189955910Y-73021441D01*
X190060000Y-73092563D01*
X190060000Y-73834442D01*
X189834683Y-73876838D01*
X189618559Y-74015910D01*
X189473569Y-74228110D01*
X189422560Y-74480000D01*
X189422560Y-75380000D01*
X189466838Y-75615317D01*
X189605910Y-75831441D01*
X189818110Y-75976431D01*
X190070000Y-76027440D01*
X191270000Y-76027440D01*
X191505317Y-75983162D01*
X191721441Y-75844090D01*
X191769134Y-75774289D01*
X191805910Y-75831441D01*
X192018110Y-75976431D01*
X192270000Y-76027440D01*
X193470000Y-76027440D01*
X193705317Y-75983162D01*
X193921441Y-75844090D01*
X194066431Y-75631890D01*
X194117440Y-75380000D01*
X194117440Y-74480000D01*
X194073162Y-74244683D01*
X193934090Y-74028559D01*
X193721890Y-73883569D01*
X193480000Y-73834585D01*
X193480000Y-73092931D01*
X193571441Y-73034090D01*
X193716431Y-72821890D01*
X193740094Y-72705038D01*
X193842566Y-72602566D01*
X194088603Y-72234346D01*
X194102112Y-72166431D01*
X194175000Y-71800000D01*
X194175000Y-69215000D01*
X194088603Y-68780654D01*
X193842566Y-68412434D01*
X192905000Y-67474868D01*
X192905000Y-67391123D01*
X193014900Y-67436757D01*
X193570661Y-67437242D01*
X194084303Y-67225010D01*
X194183000Y-67126485D01*
X194183000Y-83693000D01*
X191585465Y-83693000D01*
X192345730Y-83541774D01*
X193062706Y-83062706D01*
X193541774Y-82345730D01*
X193710000Y-81500000D01*
X193541774Y-80654270D01*
X193062706Y-79937294D01*
X192345730Y-79458226D01*
X191500000Y-79290000D01*
X190654270Y-79458226D01*
X189937294Y-79937294D01*
X189458226Y-80654270D01*
X189290000Y-81500000D01*
X189458226Y-82345730D01*
X189937294Y-83062706D01*
X190654270Y-83541774D01*
X191414535Y-83693000D01*
X103585465Y-83693000D01*
X104345730Y-83541774D01*
X105062706Y-83062706D01*
X105541774Y-82345730D01*
X105596532Y-82070440D01*
X117499165Y-82070440D01*
X117708353Y-82431289D01*
X118645650Y-82808824D01*
X119656077Y-82798933D01*
X120543647Y-82431289D01*
X120752835Y-82070440D01*
X125627165Y-82070440D01*
X125836353Y-82431289D01*
X126773650Y-82808824D01*
X127784077Y-82798933D01*
X128671647Y-82431289D01*
X128880835Y-82070440D01*
X144169165Y-82070440D01*
X144378353Y-82431289D01*
X145315650Y-82808824D01*
X146326077Y-82798933D01*
X147213647Y-82431289D01*
X147422835Y-82070440D01*
X152297165Y-82070440D01*
X152506353Y-82431289D01*
X153443650Y-82808824D01*
X154454077Y-82798933D01*
X155341647Y-82431289D01*
X155550835Y-82070440D01*
X153924000Y-80443605D01*
X152297165Y-82070440D01*
X147422835Y-82070440D01*
X145796000Y-80443605D01*
X144169165Y-82070440D01*
X128880835Y-82070440D01*
X127254000Y-80443605D01*
X125627165Y-82070440D01*
X120752835Y-82070440D01*
X119126000Y-80443605D01*
X117499165Y-82070440D01*
X105596532Y-82070440D01*
X105710000Y-81500000D01*
X105541774Y-80654270D01*
X105062706Y-79937294D01*
X104832762Y-79783650D01*
X116581176Y-79783650D01*
X116591067Y-80794077D01*
X116958711Y-81681647D01*
X117319560Y-81890835D01*
X118946395Y-80264000D01*
X119305605Y-80264000D01*
X120932440Y-81890835D01*
X121293289Y-81681647D01*
X121670824Y-80744350D01*
X121661420Y-79783650D01*
X124709176Y-79783650D01*
X124719067Y-80794077D01*
X125086711Y-81681647D01*
X125447560Y-81890835D01*
X127074395Y-80264000D01*
X127433605Y-80264000D01*
X129060440Y-81890835D01*
X129421289Y-81681647D01*
X129798824Y-80744350D01*
X129789420Y-79783650D01*
X143251176Y-79783650D01*
X143261067Y-80794077D01*
X143628711Y-81681647D01*
X143989560Y-81890835D01*
X145616395Y-80264000D01*
X145975605Y-80264000D01*
X147602440Y-81890835D01*
X147963289Y-81681647D01*
X148340824Y-80744350D01*
X148331420Y-79783650D01*
X151379176Y-79783650D01*
X151389067Y-80794077D01*
X151756711Y-81681647D01*
X152117560Y-81890835D01*
X153744395Y-80264000D01*
X152117560Y-78637165D01*
X151756711Y-78846353D01*
X151379176Y-79783650D01*
X148331420Y-79783650D01*
X148330933Y-79733923D01*
X147963289Y-78846353D01*
X147602440Y-78637165D01*
X145975605Y-80264000D01*
X145616395Y-80264000D01*
X143989560Y-78637165D01*
X143628711Y-78846353D01*
X143251176Y-79783650D01*
X129789420Y-79783650D01*
X129788933Y-79733923D01*
X129421289Y-78846353D01*
X129060440Y-78637165D01*
X127433605Y-80264000D01*
X127074395Y-80264000D01*
X125447560Y-78637165D01*
X125086711Y-78846353D01*
X124709176Y-79783650D01*
X121661420Y-79783650D01*
X121660933Y-79733923D01*
X121293289Y-78846353D01*
X120932440Y-78637165D01*
X119305605Y-80264000D01*
X118946395Y-80264000D01*
X117319560Y-78637165D01*
X116958711Y-78846353D01*
X116581176Y-79783650D01*
X104832762Y-79783650D01*
X104345730Y-79458226D01*
X103500000Y-79290000D01*
X102654270Y-79458226D01*
X101937294Y-79937294D01*
X101458226Y-80654270D01*
X101290000Y-81500000D01*
X101458226Y-82345730D01*
X101937294Y-83062706D01*
X102654270Y-83541774D01*
X103414535Y-83693000D01*
X100710000Y-83693000D01*
X100710000Y-78457560D01*
X117499165Y-78457560D01*
X119126000Y-80084395D01*
X120752835Y-78457560D01*
X120543647Y-78096711D01*
X119606350Y-77719176D01*
X118595923Y-77729067D01*
X117708353Y-78096711D01*
X117499165Y-78457560D01*
X100710000Y-78457560D01*
X100710000Y-77292735D01*
X111076870Y-77292735D01*
X111126383Y-77518164D01*
X111591036Y-77677807D01*
X112081413Y-77647482D01*
X112393617Y-77518164D01*
X112443130Y-77292735D01*
X111760000Y-76609605D01*
X111076870Y-77292735D01*
X100710000Y-77292735D01*
X100710000Y-74895750D01*
X109480000Y-74895750D01*
X109480000Y-75336309D01*
X109576673Y-75569698D01*
X109755301Y-75748327D01*
X109988690Y-75845000D01*
X110204250Y-75845000D01*
X110363000Y-75686250D01*
X110363000Y-74737000D01*
X109638750Y-74737000D01*
X109480000Y-74895750D01*
X100710000Y-74895750D01*
X100710000Y-33500000D01*
X101290000Y-33500000D01*
X101458226Y-34345730D01*
X101937294Y-35062706D01*
X102654270Y-35541774D01*
X103500000Y-35710000D01*
X104345730Y-35541774D01*
X105062706Y-35062706D01*
X105541774Y-34345730D01*
X105710000Y-33500000D01*
X105541774Y-32654270D01*
X105062706Y-31937294D01*
X104345730Y-31458226D01*
X103500000Y-31290000D01*
X102654270Y-31458226D01*
X101937294Y-31937294D01*
X101458226Y-32654270D01*
X101290000Y-33500000D01*
X100710000Y-33500000D01*
X100710000Y-30710000D01*
X169732779Y-30710000D01*
X169377434Y-30947434D01*
M02*
