G04 #@! TF.FileFunction,Soldermask,Bot*
%FSLAX46Y46*%
G04 Gerber Fmt 4.6, Leading zero omitted, Abs format (unit mm)*
G04 Created by KiCad (PCBNEW 4.0.7+dfsg1-1) date Sun Mar 11 20:01:19 2018*
%MOMM*%
%LPD*%
G01*
G04 APERTURE LIST*
%ADD10C,0.100000*%
%ADD11R,1.600000X1.150000*%
%ADD12R,1.600000X1.600000*%
%ADD13C,1.600000*%
%ADD14R,3.900000X3.900000*%
%ADD15C,4.210000*%
%ADD16C,3.956000*%
%ADD17C,2.020000*%
%ADD18R,2.000000X2.000000*%
%ADD19O,2.000000X2.000000*%
%ADD20R,1.543000X0.908000*%
%ADD21C,1.900000*%
%ADD22C,2.000000*%
%ADD23R,2.100000X2.100000*%
%ADD24O,2.100000X2.100000*%
%ADD25R,1.924000X1.924000*%
%ADD26C,1.924000*%
%ADD27R,2.200000X2.200000*%
%ADD28C,2.200000*%
%ADD29C,2.398980*%
G04 APERTURE END LIST*
D10*
D11*
X182560000Y-62230000D03*
X180660000Y-62230000D03*
X157800000Y-48260000D03*
X159700000Y-48260000D03*
X173040000Y-64770000D03*
X174940000Y-64770000D03*
D12*
X181610000Y-34290000D03*
D13*
X183110000Y-34290000D03*
D12*
X111760000Y-74930000D03*
D13*
X111760000Y-76430000D03*
D11*
X173040000Y-62230000D03*
X174940000Y-62230000D03*
X173040000Y-59690000D03*
X174940000Y-59690000D03*
D14*
X180500000Y-43000000D03*
X186500000Y-43000000D03*
X183500000Y-47700000D03*
D15*
X169926000Y-72136000D03*
D16*
X173990000Y-76200000D03*
D15*
X178054000Y-72136000D03*
X169926000Y-80264000D03*
X178054000Y-80264000D03*
X145796000Y-72136000D03*
D16*
X149860000Y-76200000D03*
D15*
X153924000Y-72136000D03*
X145796000Y-80264000D03*
X153924000Y-80264000D03*
X119126000Y-72136000D03*
D16*
X123190000Y-76200000D03*
D15*
X127254000Y-72136000D03*
X119126000Y-80264000D03*
X127254000Y-80264000D03*
D17*
X162560000Y-38020000D03*
X167560000Y-35520000D03*
X162560000Y-33020000D03*
D18*
X170180000Y-59690000D03*
D19*
X177800000Y-64770000D03*
X170180000Y-62230000D03*
X177800000Y-62230000D03*
X170180000Y-64770000D03*
X177800000Y-59690000D03*
D20*
X160147000Y-51435000D03*
X160147000Y-52705000D03*
X160147000Y-53975000D03*
X160147000Y-55245000D03*
X160147000Y-56515000D03*
X160147000Y-57785000D03*
X160147000Y-59055000D03*
X153797000Y-59055000D03*
X153797000Y-57785000D03*
X153797000Y-55245000D03*
X153797000Y-53975000D03*
X153797000Y-52705000D03*
X153797000Y-51435000D03*
X153797000Y-56515000D03*
X170815000Y-33655000D03*
X170815000Y-34925000D03*
X170815000Y-36195000D03*
X170815000Y-37465000D03*
X177165000Y-37465000D03*
X177165000Y-36195000D03*
X177165000Y-34925000D03*
X177165000Y-33655000D03*
D21*
X162560000Y-69850000D03*
X162560000Y-74730000D03*
D22*
X161290000Y-64770000D03*
X163790000Y-64770000D03*
X163830000Y-80010000D03*
X161330000Y-80010000D03*
D23*
X166370000Y-54610000D03*
D24*
X163830000Y-54610000D03*
D23*
X166370000Y-57150000D03*
D24*
X163830000Y-57150000D03*
D23*
X166370000Y-46990000D03*
D24*
X163830000Y-46990000D03*
D25*
X190246000Y-66040000D03*
D26*
X190246000Y-63500000D03*
X190246000Y-60960000D03*
X193294000Y-60960000D03*
X193294000Y-63500000D03*
X193294000Y-66040000D03*
D13*
X185420000Y-64262000D03*
X183515000Y-64262000D03*
D12*
X181610000Y-64262000D03*
X181610000Y-59690000D03*
D13*
X183515000Y-59690000D03*
X185420000Y-59690000D03*
D27*
X171450000Y-50800000D03*
D28*
X173990000Y-50800000D03*
X176530000Y-50800000D03*
D23*
X166370000Y-49530000D03*
D24*
X163830000Y-49530000D03*
D23*
X163830000Y-52070000D03*
D29*
X191770000Y-57150000D03*
X191770000Y-53340000D03*
M02*
