M48
;DRILL file {KiCad 4.0.7+dfsg1-1} date Sun Mar 11 20:00:07 2018
;FORMAT={2:4/ absolute / inch / suppress leading zeros}
FMAT,2
INCH,TZ
T1C0.016
T2C0.020
T3C0.024
T4C0.031
T5C0.032
T6C0.032
T7C0.035
T8C0.039
T9C0.050
T10C0.060
%
G90
G05
M72
T1
X45500Y-23000
X45500Y-27500
X59250Y-21500
X59750Y-22000
X59750Y-23500
X61000Y-23250
X61250Y-20750
X61250Y-21250
X62500Y-23000
X63000Y-24500
X63750Y-20250
X65000Y-24000
X66750Y-13750
X66750Y-15500
X67000Y-22000
X69250Y-18000
X74000Y-27500
X74500Y-28250
T2
X69500Y-12500
X71500Y-23500
X71500Y-25300
X72250Y-23500
X72250Y-25300
X73000Y-23500
X73000Y-25300
X74500Y-27000
T3
X44000Y-29500
X44000Y-30091
X71500Y-13500
X72091Y-13500
T4
X63500Y-25500
X63516Y-31500
X64000Y-27500
X64000Y-29421
X64484Y-25500
X64500Y-31500
X67000Y-23500
X67000Y-24500
X67000Y-25500
X70000Y-23500
X70000Y-24500
X70000Y-25500
T5
X75500Y-21000
X75500Y-22500
T6
X74900Y-24000
X74900Y-25000
X74900Y-26000
X76100Y-24000
X76100Y-25000
X76100Y-26000
T7
X64000Y-13000
X64000Y-14969
X65969Y-13984
X67500Y-20000
X68500Y-20000
X69500Y-20000
T8
X64500Y-18500
X64500Y-19500
X64500Y-20500
X64500Y-21500
X64500Y-22500
X65500Y-18500
X65500Y-19500
X65500Y-21500
X65500Y-22500
T9
X48500Y-30000
X59000Y-30000
X68500Y-30000
T10
X46900Y-28400
X46900Y-31600
X50100Y-28400
X50100Y-31600
X57400Y-28400
X57400Y-31600
X60600Y-28400
X60600Y-31600
X66900Y-28400
X66900Y-31600
X70100Y-28400
X70100Y-31600
T8
X71063Y-17323G85X71063Y-16535
G05
X72638Y-18780G85X71850Y-18780
G05
X73425Y-17323G85X73425Y-16535
G05
T0
M30
