G04 #@! TF.FileFunction,Soldermask,Top*
%FSLAX46Y46*%
G04 Gerber Fmt 4.6, Leading zero omitted, Abs format (unit mm)*
G04 Created by KiCad (PCBNEW 4.0.7+dfsg1-1) date Sun Mar 11 20:01:19 2018*
%MOMM*%
%LPD*%
G01*
G04 APERTURE LIST*
%ADD10C,0.100000*%
%ADD11R,1.600000X1.150000*%
%ADD12R,1.600000X1.600000*%
%ADD13C,1.600000*%
%ADD14R,1.150000X1.600000*%
%ADD15R,3.900000X3.900000*%
%ADD16C,4.210000*%
%ADD17C,3.956000*%
%ADD18R,1.300000X1.200000*%
%ADD19R,1.200000X1.300000*%
%ADD20R,1.600000X1.300000*%
%ADD21R,1.300000X1.600000*%
%ADD22C,2.020000*%
%ADD23R,2.000000X2.000000*%
%ADD24O,2.000000X2.000000*%
%ADD25R,1.543000X0.908000*%
%ADD26C,1.900000*%
%ADD27C,2.000000*%
%ADD28R,2.100000X2.100000*%
%ADD29O,2.100000X2.100000*%
%ADD30R,1.924000X1.924000*%
%ADD31C,1.924000*%
%ADD32R,2.200000X2.200000*%
%ADD33C,2.200000*%
%ADD34C,2.398980*%
G04 APERTURE END LIST*
D10*
D11*
X173035000Y-41910000D03*
X171135000Y-41910000D03*
D12*
X181610000Y-34290000D03*
D13*
X183110000Y-34290000D03*
D12*
X111760000Y-74930000D03*
D13*
X111760000Y-76430000D03*
D14*
X110490000Y-72710000D03*
X110490000Y-74610000D03*
X165100000Y-35245000D03*
X165100000Y-37145000D03*
D15*
X180500000Y-43000000D03*
X186500000Y-43000000D03*
X183500000Y-47700000D03*
D16*
X169926000Y-72136000D03*
D17*
X173990000Y-76200000D03*
D16*
X178054000Y-72136000D03*
X169926000Y-80264000D03*
X178054000Y-80264000D03*
X145796000Y-72136000D03*
D17*
X149860000Y-76200000D03*
D16*
X153924000Y-72136000D03*
X145796000Y-80264000D03*
X153924000Y-80264000D03*
X119126000Y-72136000D03*
D17*
X123190000Y-76200000D03*
D16*
X127254000Y-72136000D03*
X119126000Y-80264000D03*
X127254000Y-80264000D03*
D18*
X173625000Y-43500000D03*
X173625000Y-45400000D03*
X175625000Y-44450000D03*
D19*
X190820000Y-72120000D03*
X192720000Y-72120000D03*
X191770000Y-70120000D03*
D20*
X176700000Y-55880000D03*
X178900000Y-55880000D03*
X184320000Y-68580000D03*
X186520000Y-68580000D03*
X161460000Y-62230000D03*
X163660000Y-62230000D03*
X173185000Y-40005000D03*
X170985000Y-40005000D03*
D21*
X172085000Y-45550000D03*
X172085000Y-43350000D03*
D20*
X190670000Y-74930000D03*
X192870000Y-74930000D03*
X186520000Y-71120000D03*
X184320000Y-71120000D03*
D21*
X184150000Y-73830000D03*
X184150000Y-76030000D03*
X110490000Y-70950000D03*
X110490000Y-68750000D03*
D20*
X119550000Y-59690000D03*
X121750000Y-59690000D03*
X128100000Y-66040000D03*
X125900000Y-66040000D03*
X121750000Y-66040000D03*
X119550000Y-66040000D03*
X152570000Y-68580000D03*
X154770000Y-68580000D03*
D21*
X123190000Y-69680000D03*
X123190000Y-67480000D03*
D22*
X162560000Y-38020000D03*
X167560000Y-35520000D03*
X162560000Y-33020000D03*
D20*
X171620000Y-34290000D03*
X173820000Y-34290000D03*
X120480000Y-76200000D03*
X118280000Y-76200000D03*
D21*
X149860000Y-70950000D03*
X149860000Y-68750000D03*
X123190000Y-73490000D03*
X123190000Y-71290000D03*
D20*
X125900000Y-76200000D03*
X128100000Y-76200000D03*
X152570000Y-76200000D03*
X154770000Y-76200000D03*
X147150000Y-76200000D03*
X144950000Y-76200000D03*
D23*
X170180000Y-59690000D03*
D24*
X177800000Y-64770000D03*
X170180000Y-62230000D03*
X177800000Y-62230000D03*
X170180000Y-64770000D03*
X177800000Y-59690000D03*
D25*
X117602000Y-67310000D03*
X117602000Y-66040000D03*
X117602000Y-64770000D03*
X117602000Y-63500000D03*
X117602000Y-62230000D03*
X117602000Y-60960000D03*
X117602000Y-59690000D03*
X111252000Y-59690000D03*
X111252000Y-60960000D03*
X111252000Y-63500000D03*
X111252000Y-64770000D03*
X111252000Y-66040000D03*
X111252000Y-67310000D03*
X111252000Y-62230000D03*
D26*
X162560000Y-69850000D03*
X162560000Y-74730000D03*
D27*
X161290000Y-64770000D03*
X163790000Y-64770000D03*
X163830000Y-80010000D03*
X161330000Y-80010000D03*
D28*
X166370000Y-54610000D03*
D29*
X163830000Y-54610000D03*
D28*
X166370000Y-57150000D03*
D29*
X163830000Y-57150000D03*
D28*
X166370000Y-46990000D03*
D29*
X163830000Y-46990000D03*
D30*
X190246000Y-66040000D03*
D31*
X190246000Y-63500000D03*
X190246000Y-60960000D03*
X193294000Y-60960000D03*
X193294000Y-63500000D03*
X193294000Y-66040000D03*
D13*
X185420000Y-64262000D03*
X183515000Y-64262000D03*
D12*
X181610000Y-64262000D03*
X181610000Y-59690000D03*
D13*
X183515000Y-59690000D03*
X185420000Y-59690000D03*
D32*
X171450000Y-50800000D03*
D33*
X173990000Y-50800000D03*
X176530000Y-50800000D03*
D28*
X166370000Y-49530000D03*
D29*
X163830000Y-49530000D03*
D28*
X163830000Y-52070000D03*
D34*
X191770000Y-57150000D03*
X191770000Y-53340000D03*
M02*
