G04 #@! TF.FileFunction,Legend,Bot*
%FSLAX46Y46*%
G04 Gerber Fmt 4.6, Leading zero omitted, Abs format (unit mm)*
G04 Created by KiCad (PCBNEW 4.0.7+dfsg1-1) date Sun Mar 11 20:01:19 2018*
%MOMM*%
%LPD*%
G01*
G04 APERTURE LIST*
%ADD10C,0.100000*%
%ADD11C,0.120000*%
%ADD12C,0.150000*%
G04 APERTURE END LIST*
D10*
D11*
X181960000Y-61630000D02*
X181260000Y-61630000D01*
X181260000Y-62830000D02*
X181960000Y-62830000D01*
X158400000Y-48860000D02*
X159100000Y-48860000D01*
X159100000Y-47660000D02*
X158400000Y-47660000D01*
X173640000Y-65370000D02*
X174340000Y-65370000D01*
X174340000Y-64170000D02*
X173640000Y-64170000D01*
X184206436Y-35269170D02*
G75*
G02X180514004Y-35270000I-1846436J979170D01*
G01*
X184206436Y-33310830D02*
G75*
G03X180514004Y-33310000I-1846436J-979170D01*
G01*
X184206436Y-33310830D02*
G75*
G02X184205996Y-35270000I-1846436J-979170D01*
G01*
X182360000Y-33510000D02*
X182360000Y-32240000D01*
X182360000Y-36340000D02*
X182360000Y-35070000D01*
X182400000Y-36340000D02*
X182400000Y-35070000D01*
X182400000Y-33510000D02*
X182400000Y-32240000D01*
X182440000Y-36339000D02*
X182440000Y-35070000D01*
X182440000Y-33510000D02*
X182440000Y-32241000D01*
X182480000Y-36337000D02*
X182480000Y-35070000D01*
X182480000Y-33510000D02*
X182480000Y-32243000D01*
X182520000Y-36334000D02*
X182520000Y-35070000D01*
X182520000Y-33510000D02*
X182520000Y-32246000D01*
X182560000Y-36331000D02*
X182560000Y-35070000D01*
X182560000Y-33510000D02*
X182560000Y-32249000D01*
X182600000Y-36327000D02*
X182600000Y-35070000D01*
X182600000Y-33510000D02*
X182600000Y-32253000D01*
X182640000Y-36322000D02*
X182640000Y-35070000D01*
X182640000Y-33510000D02*
X182640000Y-32258000D01*
X182680000Y-36316000D02*
X182680000Y-35070000D01*
X182680000Y-33510000D02*
X182680000Y-32264000D01*
X182720000Y-36309000D02*
X182720000Y-35070000D01*
X182720000Y-33510000D02*
X182720000Y-32271000D01*
X182760000Y-36302000D02*
X182760000Y-35070000D01*
X182760000Y-33510000D02*
X182760000Y-32278000D01*
X182800000Y-36294000D02*
X182800000Y-35070000D01*
X182800000Y-33510000D02*
X182800000Y-32286000D01*
X182840000Y-36285000D02*
X182840000Y-35070000D01*
X182840000Y-33510000D02*
X182840000Y-32295000D01*
X182880000Y-36275000D02*
X182880000Y-35070000D01*
X182880000Y-33510000D02*
X182880000Y-32305000D01*
X182920000Y-36264000D02*
X182920000Y-35070000D01*
X182920000Y-33510000D02*
X182920000Y-32316000D01*
X182960000Y-36253000D02*
X182960000Y-35070000D01*
X182960000Y-33510000D02*
X182960000Y-32327000D01*
X183000000Y-36240000D02*
X183000000Y-35070000D01*
X183000000Y-33510000D02*
X183000000Y-32340000D01*
X183040000Y-36227000D02*
X183040000Y-35070000D01*
X183040000Y-33510000D02*
X183040000Y-32353000D01*
X183081000Y-36213000D02*
X183081000Y-35070000D01*
X183081000Y-33510000D02*
X183081000Y-32367000D01*
X183121000Y-36197000D02*
X183121000Y-35070000D01*
X183121000Y-33510000D02*
X183121000Y-32383000D01*
X183161000Y-36181000D02*
X183161000Y-35070000D01*
X183161000Y-33510000D02*
X183161000Y-32399000D01*
X183201000Y-36164000D02*
X183201000Y-35070000D01*
X183201000Y-33510000D02*
X183201000Y-32416000D01*
X183241000Y-36146000D02*
X183241000Y-35070000D01*
X183241000Y-33510000D02*
X183241000Y-32434000D01*
X183281000Y-36127000D02*
X183281000Y-35070000D01*
X183281000Y-33510000D02*
X183281000Y-32453000D01*
X183321000Y-36107000D02*
X183321000Y-35070000D01*
X183321000Y-33510000D02*
X183321000Y-32473000D01*
X183361000Y-36086000D02*
X183361000Y-35070000D01*
X183361000Y-33510000D02*
X183361000Y-32494000D01*
X183401000Y-36063000D02*
X183401000Y-35070000D01*
X183401000Y-33510000D02*
X183401000Y-32517000D01*
X183441000Y-36040000D02*
X183441000Y-35070000D01*
X183441000Y-33510000D02*
X183441000Y-32540000D01*
X183481000Y-36015000D02*
X183481000Y-35070000D01*
X183481000Y-33510000D02*
X183481000Y-32565000D01*
X183521000Y-35989000D02*
X183521000Y-35070000D01*
X183521000Y-33510000D02*
X183521000Y-32591000D01*
X183561000Y-35962000D02*
X183561000Y-35070000D01*
X183561000Y-33510000D02*
X183561000Y-32618000D01*
X183601000Y-35933000D02*
X183601000Y-35070000D01*
X183601000Y-33510000D02*
X183601000Y-32647000D01*
X183641000Y-35903000D02*
X183641000Y-35070000D01*
X183641000Y-33510000D02*
X183641000Y-32677000D01*
X183681000Y-35871000D02*
X183681000Y-35070000D01*
X183681000Y-33510000D02*
X183681000Y-32709000D01*
X183721000Y-35837000D02*
X183721000Y-35070000D01*
X183721000Y-33510000D02*
X183721000Y-32743000D01*
X183761000Y-35802000D02*
X183761000Y-35070000D01*
X183761000Y-33510000D02*
X183761000Y-32778000D01*
X183801000Y-35765000D02*
X183801000Y-35070000D01*
X183801000Y-33510000D02*
X183801000Y-32815000D01*
X183841000Y-35726000D02*
X183841000Y-35070000D01*
X183841000Y-33510000D02*
X183841000Y-32854000D01*
X183881000Y-35685000D02*
X183881000Y-35070000D01*
X183881000Y-33510000D02*
X183881000Y-32895000D01*
X183921000Y-35641000D02*
X183921000Y-32939000D01*
X183961000Y-35595000D02*
X183961000Y-32985000D01*
X184001000Y-35546000D02*
X184001000Y-33034000D01*
X184041000Y-35494000D02*
X184041000Y-33086000D01*
X184081000Y-35438000D02*
X184081000Y-33142000D01*
X184121000Y-35378000D02*
X184121000Y-33202000D01*
X184161000Y-35313000D02*
X184161000Y-33267000D01*
X184201000Y-35242000D02*
X184201000Y-33338000D01*
X184241000Y-35164000D02*
X184241000Y-33416000D01*
X184281000Y-35076000D02*
X184281000Y-33504000D01*
X184321000Y-34976000D02*
X184321000Y-33604000D01*
X184361000Y-34857000D02*
X184361000Y-33723000D01*
X184401000Y-34705000D02*
X184401000Y-33875000D01*
X184441000Y-34455000D02*
X184441000Y-34125000D01*
X179910000Y-34290000D02*
X180810000Y-34290000D01*
X180360000Y-34740000D02*
X180360000Y-33840000D01*
X110780830Y-77526436D02*
G75*
G02X110780000Y-73834004I979170J1846436D01*
G01*
X112739170Y-77526436D02*
G75*
G03X112740000Y-73834004I-979170J1846436D01*
G01*
X112739170Y-77526436D02*
G75*
G02X110780000Y-77525996I-979170J1846436D01*
G01*
X112540000Y-75680000D02*
X113810000Y-75680000D01*
X109710000Y-75680000D02*
X110980000Y-75680000D01*
X109710000Y-75720000D02*
X110980000Y-75720000D01*
X112540000Y-75720000D02*
X113810000Y-75720000D01*
X109711000Y-75760000D02*
X110980000Y-75760000D01*
X112540000Y-75760000D02*
X113809000Y-75760000D01*
X109713000Y-75800000D02*
X110980000Y-75800000D01*
X112540000Y-75800000D02*
X113807000Y-75800000D01*
X109716000Y-75840000D02*
X110980000Y-75840000D01*
X112540000Y-75840000D02*
X113804000Y-75840000D01*
X109719000Y-75880000D02*
X110980000Y-75880000D01*
X112540000Y-75880000D02*
X113801000Y-75880000D01*
X109723000Y-75920000D02*
X110980000Y-75920000D01*
X112540000Y-75920000D02*
X113797000Y-75920000D01*
X109728000Y-75960000D02*
X110980000Y-75960000D01*
X112540000Y-75960000D02*
X113792000Y-75960000D01*
X109734000Y-76000000D02*
X110980000Y-76000000D01*
X112540000Y-76000000D02*
X113786000Y-76000000D01*
X109741000Y-76040000D02*
X110980000Y-76040000D01*
X112540000Y-76040000D02*
X113779000Y-76040000D01*
X109748000Y-76080000D02*
X110980000Y-76080000D01*
X112540000Y-76080000D02*
X113772000Y-76080000D01*
X109756000Y-76120000D02*
X110980000Y-76120000D01*
X112540000Y-76120000D02*
X113764000Y-76120000D01*
X109765000Y-76160000D02*
X110980000Y-76160000D01*
X112540000Y-76160000D02*
X113755000Y-76160000D01*
X109775000Y-76200000D02*
X110980000Y-76200000D01*
X112540000Y-76200000D02*
X113745000Y-76200000D01*
X109786000Y-76240000D02*
X110980000Y-76240000D01*
X112540000Y-76240000D02*
X113734000Y-76240000D01*
X109797000Y-76280000D02*
X110980000Y-76280000D01*
X112540000Y-76280000D02*
X113723000Y-76280000D01*
X109810000Y-76320000D02*
X110980000Y-76320000D01*
X112540000Y-76320000D02*
X113710000Y-76320000D01*
X109823000Y-76360000D02*
X110980000Y-76360000D01*
X112540000Y-76360000D02*
X113697000Y-76360000D01*
X109837000Y-76401000D02*
X110980000Y-76401000D01*
X112540000Y-76401000D02*
X113683000Y-76401000D01*
X109853000Y-76441000D02*
X110980000Y-76441000D01*
X112540000Y-76441000D02*
X113667000Y-76441000D01*
X109869000Y-76481000D02*
X110980000Y-76481000D01*
X112540000Y-76481000D02*
X113651000Y-76481000D01*
X109886000Y-76521000D02*
X110980000Y-76521000D01*
X112540000Y-76521000D02*
X113634000Y-76521000D01*
X109904000Y-76561000D02*
X110980000Y-76561000D01*
X112540000Y-76561000D02*
X113616000Y-76561000D01*
X109923000Y-76601000D02*
X110980000Y-76601000D01*
X112540000Y-76601000D02*
X113597000Y-76601000D01*
X109943000Y-76641000D02*
X110980000Y-76641000D01*
X112540000Y-76641000D02*
X113577000Y-76641000D01*
X109964000Y-76681000D02*
X110980000Y-76681000D01*
X112540000Y-76681000D02*
X113556000Y-76681000D01*
X109987000Y-76721000D02*
X110980000Y-76721000D01*
X112540000Y-76721000D02*
X113533000Y-76721000D01*
X110010000Y-76761000D02*
X110980000Y-76761000D01*
X112540000Y-76761000D02*
X113510000Y-76761000D01*
X110035000Y-76801000D02*
X110980000Y-76801000D01*
X112540000Y-76801000D02*
X113485000Y-76801000D01*
X110061000Y-76841000D02*
X110980000Y-76841000D01*
X112540000Y-76841000D02*
X113459000Y-76841000D01*
X110088000Y-76881000D02*
X110980000Y-76881000D01*
X112540000Y-76881000D02*
X113432000Y-76881000D01*
X110117000Y-76921000D02*
X110980000Y-76921000D01*
X112540000Y-76921000D02*
X113403000Y-76921000D01*
X110147000Y-76961000D02*
X110980000Y-76961000D01*
X112540000Y-76961000D02*
X113373000Y-76961000D01*
X110179000Y-77001000D02*
X110980000Y-77001000D01*
X112540000Y-77001000D02*
X113341000Y-77001000D01*
X110213000Y-77041000D02*
X110980000Y-77041000D01*
X112540000Y-77041000D02*
X113307000Y-77041000D01*
X110248000Y-77081000D02*
X110980000Y-77081000D01*
X112540000Y-77081000D02*
X113272000Y-77081000D01*
X110285000Y-77121000D02*
X110980000Y-77121000D01*
X112540000Y-77121000D02*
X113235000Y-77121000D01*
X110324000Y-77161000D02*
X110980000Y-77161000D01*
X112540000Y-77161000D02*
X113196000Y-77161000D01*
X110365000Y-77201000D02*
X110980000Y-77201000D01*
X112540000Y-77201000D02*
X113155000Y-77201000D01*
X110409000Y-77241000D02*
X113111000Y-77241000D01*
X110455000Y-77281000D02*
X113065000Y-77281000D01*
X110504000Y-77321000D02*
X113016000Y-77321000D01*
X110556000Y-77361000D02*
X112964000Y-77361000D01*
X110612000Y-77401000D02*
X112908000Y-77401000D01*
X110672000Y-77441000D02*
X112848000Y-77441000D01*
X110737000Y-77481000D02*
X112783000Y-77481000D01*
X110808000Y-77521000D02*
X112712000Y-77521000D01*
X110886000Y-77561000D02*
X112634000Y-77561000D01*
X110974000Y-77601000D02*
X112546000Y-77601000D01*
X111074000Y-77641000D02*
X112446000Y-77641000D01*
X111193000Y-77681000D02*
X112327000Y-77681000D01*
X111345000Y-77721000D02*
X112175000Y-77721000D01*
X111595000Y-77761000D02*
X111925000Y-77761000D01*
X111760000Y-73230000D02*
X111760000Y-74130000D01*
X111310000Y-73680000D02*
X112210000Y-73680000D01*
X173640000Y-62830000D02*
X174340000Y-62830000D01*
X174340000Y-61630000D02*
X173640000Y-61630000D01*
X173640000Y-60290000D02*
X174340000Y-60290000D01*
X174340000Y-59090000D02*
X173640000Y-59090000D01*
X185500000Y-47600000D02*
X194300000Y-47600000D01*
X194300000Y-47600000D02*
X194300000Y-38400000D01*
X179600000Y-44900000D02*
X179600000Y-47600000D01*
X179600000Y-47600000D02*
X181500000Y-47600000D01*
X194300000Y-38400000D02*
X179600000Y-38400000D01*
X179600000Y-38400000D02*
X179600000Y-41000000D01*
X168112891Y-34528055D02*
G75*
G03X165060000Y-32310000I-3052891J-991945D01*
G01*
X163504667Y-38327816D02*
G75*
G03X168113000Y-36511000I1555333J2807816D01*
G01*
X162225329Y-34012382D02*
G75*
G03X162225000Y-37027000I2834671J-1507618D01*
G01*
X165116464Y-32310201D02*
G75*
G03X163504000Y-32712000I-56464J-3209799D01*
G01*
X165960000Y-35520000D02*
G75*
G03X165960000Y-35520000I-900000J0D01*
G01*
D12*
X154559000Y-60325000D02*
X159385000Y-60325000D01*
X159385000Y-60325000D02*
X159385000Y-50165000D01*
X159385000Y-50165000D02*
X154559000Y-50165000D01*
X154559000Y-50165000D02*
X154559000Y-60325000D01*
X156337000Y-50165000D02*
X156337000Y-50800000D01*
X156337000Y-50800000D02*
X157607000Y-50800000D01*
X157607000Y-50800000D02*
X157607000Y-50165000D01*
X171704000Y-33020000D02*
X171704000Y-38100000D01*
X171704000Y-38100000D02*
X176276000Y-38100000D01*
X176276000Y-38100000D02*
X176276000Y-33020000D01*
X176276000Y-33020000D02*
X171704000Y-33020000D01*
X173228000Y-33020000D02*
X173228000Y-33528000D01*
X173228000Y-33528000D02*
X174498000Y-33528000D01*
X174498000Y-33528000D02*
X174498000Y-33020000D01*
D11*
X160035000Y-69090000D02*
X160035000Y-75490000D01*
X165085000Y-69090000D02*
X165085000Y-75490000D01*
X165085000Y-69090000D02*
G75*
G03X160035000Y-69090000I-2525000J0D01*
G01*
X165085000Y-75490000D02*
G75*
G02X160035000Y-75490000I-2525000J0D01*
G01*
X161953000Y-65631000D02*
X163127000Y-65631000D01*
X161953000Y-63909000D02*
X163127000Y-63909000D01*
X163167000Y-79149000D02*
X161993000Y-79149000D01*
X163167000Y-80871000D02*
X161993000Y-80871000D01*
X167700000Y-55940000D02*
X162500000Y-55940000D01*
X167700000Y-55880000D02*
X167700000Y-55940000D01*
X162500000Y-53280000D02*
X162500000Y-55940000D01*
X167700000Y-55880000D02*
X165100000Y-55880000D01*
X165100000Y-55880000D02*
X165100000Y-53280000D01*
X165100000Y-53280000D02*
X162500000Y-53280000D01*
X167700000Y-54610000D02*
X167700000Y-53280000D01*
X167700000Y-53280000D02*
X166370000Y-53280000D01*
X167700000Y-58480000D02*
X162500000Y-58480000D01*
X167700000Y-58420000D02*
X167700000Y-58480000D01*
X162500000Y-55820000D02*
X162500000Y-58480000D01*
X167700000Y-58420000D02*
X165100000Y-58420000D01*
X165100000Y-58420000D02*
X165100000Y-55820000D01*
X165100000Y-55820000D02*
X162500000Y-55820000D01*
X167700000Y-57150000D02*
X167700000Y-55820000D01*
X167700000Y-55820000D02*
X166370000Y-55820000D01*
X167700000Y-48320000D02*
X162500000Y-48320000D01*
X167700000Y-48260000D02*
X167700000Y-48320000D01*
X162500000Y-45660000D02*
X162500000Y-48320000D01*
X167700000Y-48260000D02*
X165100000Y-48260000D01*
X165100000Y-48260000D02*
X165100000Y-45660000D01*
X165100000Y-45660000D02*
X162500000Y-45660000D01*
X167700000Y-46990000D02*
X167700000Y-45660000D01*
X167700000Y-45660000D02*
X166370000Y-45660000D01*
D12*
X194056000Y-59690000D02*
X189484000Y-59690000D01*
X194056000Y-67310000D02*
X189484000Y-67310000D01*
X194310000Y-67310000D02*
X194310000Y-59690000D01*
X189230000Y-59690000D02*
X189230000Y-67310000D01*
D11*
X167700000Y-50860000D02*
X162500000Y-50860000D01*
X167700000Y-50800000D02*
X167700000Y-50860000D01*
X162500000Y-48200000D02*
X162500000Y-50860000D01*
X167700000Y-50800000D02*
X165100000Y-50800000D01*
X165100000Y-50800000D02*
X165100000Y-48200000D01*
X165100000Y-48200000D02*
X162500000Y-48200000D01*
X167700000Y-49530000D02*
X167700000Y-48200000D01*
X167700000Y-48200000D02*
X166370000Y-48200000D01*
X165160000Y-50740000D02*
X165160000Y-53400000D01*
X165100000Y-50740000D02*
X165160000Y-50740000D01*
X165100000Y-53400000D02*
X165160000Y-53400000D01*
X165100000Y-50740000D02*
X165100000Y-53400000D01*
X163830000Y-50740000D02*
X162500000Y-50740000D01*
X162500000Y-50740000D02*
X162500000Y-52070000D01*
D12*
X185586666Y-62587143D02*
X185634285Y-62634762D01*
X185777142Y-62682381D01*
X185872380Y-62682381D01*
X186015238Y-62634762D01*
X186110476Y-62539524D01*
X186158095Y-62444286D01*
X186205714Y-62253810D01*
X186205714Y-62110952D01*
X186158095Y-61920476D01*
X186110476Y-61825238D01*
X186015238Y-61730000D01*
X185872380Y-61682381D01*
X185777142Y-61682381D01*
X185634285Y-61730000D01*
X185586666Y-61777619D01*
X184634285Y-62682381D02*
X185205714Y-62682381D01*
X184920000Y-62682381D02*
X184920000Y-61682381D01*
X185015238Y-61825238D01*
X185110476Y-61920476D01*
X185205714Y-61968095D01*
X155106666Y-48617143D02*
X155154285Y-48664762D01*
X155297142Y-48712381D01*
X155392380Y-48712381D01*
X155535238Y-48664762D01*
X155630476Y-48569524D01*
X155678095Y-48474286D01*
X155725714Y-48283810D01*
X155725714Y-48140952D01*
X155678095Y-47950476D01*
X155630476Y-47855238D01*
X155535238Y-47760000D01*
X155392380Y-47712381D01*
X155297142Y-47712381D01*
X155154285Y-47760000D01*
X155106666Y-47807619D01*
X154201904Y-47712381D02*
X154678095Y-47712381D01*
X154725714Y-48188571D01*
X154678095Y-48140952D01*
X154582857Y-48093333D01*
X154344761Y-48093333D01*
X154249523Y-48140952D01*
X154201904Y-48188571D01*
X154154285Y-48283810D01*
X154154285Y-48521905D01*
X154201904Y-48617143D01*
X154249523Y-48664762D01*
X154344761Y-48712381D01*
X154582857Y-48712381D01*
X154678095Y-48664762D01*
X154725714Y-48617143D01*
X174156666Y-66377143D02*
X174204285Y-66424762D01*
X174347142Y-66472381D01*
X174442380Y-66472381D01*
X174585238Y-66424762D01*
X174680476Y-66329524D01*
X174728095Y-66234286D01*
X174775714Y-66043810D01*
X174775714Y-65900952D01*
X174728095Y-65710476D01*
X174680476Y-65615238D01*
X174585238Y-65520000D01*
X174442380Y-65472381D01*
X174347142Y-65472381D01*
X174204285Y-65520000D01*
X174156666Y-65567619D01*
X173299523Y-65472381D02*
X173490000Y-65472381D01*
X173585238Y-65520000D01*
X173632857Y-65567619D01*
X173728095Y-65710476D01*
X173775714Y-65900952D01*
X173775714Y-66281905D01*
X173728095Y-66377143D01*
X173680476Y-66424762D01*
X173585238Y-66472381D01*
X173394761Y-66472381D01*
X173299523Y-66424762D01*
X173251904Y-66377143D01*
X173204285Y-66281905D01*
X173204285Y-66043810D01*
X173251904Y-65948571D01*
X173299523Y-65900952D01*
X173394761Y-65853333D01*
X173585238Y-65853333D01*
X173680476Y-65900952D01*
X173728095Y-65948571D01*
X173775714Y-66043810D01*
X182526666Y-37957143D02*
X182574285Y-38004762D01*
X182717142Y-38052381D01*
X182812380Y-38052381D01*
X182955238Y-38004762D01*
X183050476Y-37909524D01*
X183098095Y-37814286D01*
X183145714Y-37623810D01*
X183145714Y-37480952D01*
X183098095Y-37290476D01*
X183050476Y-37195238D01*
X182955238Y-37100000D01*
X182812380Y-37052381D01*
X182717142Y-37052381D01*
X182574285Y-37100000D01*
X182526666Y-37147619D01*
X182193333Y-37052381D02*
X181526666Y-37052381D01*
X181955238Y-38052381D01*
X108807143Y-75513334D02*
X108854762Y-75465715D01*
X108902381Y-75322858D01*
X108902381Y-75227620D01*
X108854762Y-75084762D01*
X108759524Y-74989524D01*
X108664286Y-74941905D01*
X108473810Y-74894286D01*
X108330952Y-74894286D01*
X108140476Y-74941905D01*
X108045238Y-74989524D01*
X107950000Y-75084762D01*
X107902381Y-75227620D01*
X107902381Y-75322858D01*
X107950000Y-75465715D01*
X107997619Y-75513334D01*
X108330952Y-76084762D02*
X108283333Y-75989524D01*
X108235714Y-75941905D01*
X108140476Y-75894286D01*
X108092857Y-75894286D01*
X107997619Y-75941905D01*
X107950000Y-75989524D01*
X107902381Y-76084762D01*
X107902381Y-76275239D01*
X107950000Y-76370477D01*
X107997619Y-76418096D01*
X108092857Y-76465715D01*
X108140476Y-76465715D01*
X108235714Y-76418096D01*
X108283333Y-76370477D01*
X108330952Y-76275239D01*
X108330952Y-76084762D01*
X108378571Y-75989524D01*
X108426190Y-75941905D01*
X108521429Y-75894286D01*
X108711905Y-75894286D01*
X108807143Y-75941905D01*
X108854762Y-75989524D01*
X108902381Y-76084762D01*
X108902381Y-76275239D01*
X108854762Y-76370477D01*
X108807143Y-76418096D01*
X108711905Y-76465715D01*
X108521429Y-76465715D01*
X108426190Y-76418096D01*
X108378571Y-76370477D01*
X108330952Y-76275239D01*
X174156666Y-63837143D02*
X174204285Y-63884762D01*
X174347142Y-63932381D01*
X174442380Y-63932381D01*
X174585238Y-63884762D01*
X174680476Y-63789524D01*
X174728095Y-63694286D01*
X174775714Y-63503810D01*
X174775714Y-63360952D01*
X174728095Y-63170476D01*
X174680476Y-63075238D01*
X174585238Y-62980000D01*
X174442380Y-62932381D01*
X174347142Y-62932381D01*
X174204285Y-62980000D01*
X174156666Y-63027619D01*
X173680476Y-63932381D02*
X173490000Y-63932381D01*
X173394761Y-63884762D01*
X173347142Y-63837143D01*
X173251904Y-63694286D01*
X173204285Y-63503810D01*
X173204285Y-63122857D01*
X173251904Y-63027619D01*
X173299523Y-62980000D01*
X173394761Y-62932381D01*
X173585238Y-62932381D01*
X173680476Y-62980000D01*
X173728095Y-63027619D01*
X173775714Y-63122857D01*
X173775714Y-63360952D01*
X173728095Y-63456190D01*
X173680476Y-63503810D01*
X173585238Y-63551429D01*
X173394761Y-63551429D01*
X173299523Y-63503810D01*
X173251904Y-63456190D01*
X173204285Y-63360952D01*
X174632857Y-61297143D02*
X174680476Y-61344762D01*
X174823333Y-61392381D01*
X174918571Y-61392381D01*
X175061429Y-61344762D01*
X175156667Y-61249524D01*
X175204286Y-61154286D01*
X175251905Y-60963810D01*
X175251905Y-60820952D01*
X175204286Y-60630476D01*
X175156667Y-60535238D01*
X175061429Y-60440000D01*
X174918571Y-60392381D01*
X174823333Y-60392381D01*
X174680476Y-60440000D01*
X174632857Y-60487619D01*
X173680476Y-61392381D02*
X174251905Y-61392381D01*
X173966191Y-61392381D02*
X173966191Y-60392381D01*
X174061429Y-60535238D01*
X174156667Y-60630476D01*
X174251905Y-60678095D01*
X172728095Y-61392381D02*
X173299524Y-61392381D01*
X173013810Y-61392381D02*
X173013810Y-60392381D01*
X173109048Y-60535238D01*
X173204286Y-60630476D01*
X173299524Y-60678095D01*
X189283333Y-48202381D02*
X189283333Y-48916667D01*
X189330953Y-49059524D01*
X189426191Y-49154762D01*
X189569048Y-49202381D01*
X189664286Y-49202381D01*
X188283333Y-49202381D02*
X188854762Y-49202381D01*
X188569048Y-49202381D02*
X188569048Y-48202381D01*
X188664286Y-48345238D01*
X188759524Y-48440476D01*
X188854762Y-48488095D01*
X165702857Y-40532381D02*
X166036191Y-40056190D01*
X166274286Y-40532381D02*
X166274286Y-39532381D01*
X165893333Y-39532381D01*
X165798095Y-39580000D01*
X165750476Y-39627619D01*
X165702857Y-39722857D01*
X165702857Y-39865714D01*
X165750476Y-39960952D01*
X165798095Y-40008571D01*
X165893333Y-40056190D01*
X166274286Y-40056190D01*
X164750476Y-40532381D02*
X165321905Y-40532381D01*
X165036191Y-40532381D02*
X165036191Y-39532381D01*
X165131429Y-39675238D01*
X165226667Y-39770476D01*
X165321905Y-39818095D01*
X163845714Y-39532381D02*
X164321905Y-39532381D01*
X164369524Y-40008571D01*
X164321905Y-39960952D01*
X164226667Y-39913333D01*
X163988571Y-39913333D01*
X163893333Y-39960952D01*
X163845714Y-40008571D01*
X163798095Y-40103810D01*
X163798095Y-40341905D01*
X163845714Y-40437143D01*
X163893333Y-40484762D01*
X163988571Y-40532381D01*
X164226667Y-40532381D01*
X164321905Y-40484762D01*
X164369524Y-40437143D01*
X156971905Y-61682381D02*
X156971905Y-62491905D01*
X156924286Y-62587143D01*
X156876667Y-62634762D01*
X156781429Y-62682381D01*
X156590952Y-62682381D01*
X156495714Y-62634762D01*
X156448095Y-62587143D01*
X156400476Y-62491905D01*
X156400476Y-61682381D01*
X155400476Y-62682381D02*
X155971905Y-62682381D01*
X155686191Y-62682381D02*
X155686191Y-61682381D01*
X155781429Y-61825238D01*
X155876667Y-61920476D01*
X155971905Y-61968095D01*
X174751905Y-31202381D02*
X174751905Y-32011905D01*
X174704286Y-32107143D01*
X174656667Y-32154762D01*
X174561429Y-32202381D01*
X174370952Y-32202381D01*
X174275714Y-32154762D01*
X174228095Y-32107143D01*
X174180476Y-32011905D01*
X174180476Y-31202381D01*
X173799524Y-31202381D02*
X173180476Y-31202381D01*
X173513810Y-31583333D01*
X173370952Y-31583333D01*
X173275714Y-31630952D01*
X173228095Y-31678571D01*
X173180476Y-31773810D01*
X173180476Y-32011905D01*
X173228095Y-32107143D01*
X173275714Y-32154762D01*
X173370952Y-32202381D01*
X173656667Y-32202381D01*
X173751905Y-32154762D01*
X173799524Y-32107143D01*
X166346190Y-68103809D02*
X166822381Y-68103809D01*
X165822381Y-67770476D02*
X166346190Y-68103809D01*
X165822381Y-68437143D01*
X166822381Y-69294286D02*
X166822381Y-68722857D01*
X166822381Y-69008571D02*
X165822381Y-69008571D01*
X165965238Y-68913333D01*
X166060476Y-68818095D01*
X166108095Y-68722857D01*
X166536666Y-65127143D02*
X166584285Y-65174762D01*
X166727142Y-65222381D01*
X166822380Y-65222381D01*
X166965238Y-65174762D01*
X167060476Y-65079524D01*
X167108095Y-64984286D01*
X167155714Y-64793810D01*
X167155714Y-64650952D01*
X167108095Y-64460476D01*
X167060476Y-64365238D01*
X166965238Y-64270000D01*
X166822380Y-64222381D01*
X166727142Y-64222381D01*
X166584285Y-64270000D01*
X166536666Y-64317619D01*
X166155714Y-64317619D02*
X166108095Y-64270000D01*
X166012857Y-64222381D01*
X165774761Y-64222381D01*
X165679523Y-64270000D01*
X165631904Y-64317619D01*
X165584285Y-64412857D01*
X165584285Y-64508095D01*
X165631904Y-64650952D01*
X166203333Y-65222381D01*
X165584285Y-65222381D01*
X166536666Y-80367143D02*
X166584285Y-80414762D01*
X166727142Y-80462381D01*
X166822380Y-80462381D01*
X166965238Y-80414762D01*
X167060476Y-80319524D01*
X167108095Y-80224286D01*
X167155714Y-80033810D01*
X167155714Y-79890952D01*
X167108095Y-79700476D01*
X167060476Y-79605238D01*
X166965238Y-79510000D01*
X166822380Y-79462381D01*
X166727142Y-79462381D01*
X166584285Y-79510000D01*
X166536666Y-79557619D01*
X166203333Y-79462381D02*
X165584285Y-79462381D01*
X165917619Y-79843333D01*
X165774761Y-79843333D01*
X165679523Y-79890952D01*
X165631904Y-79938571D01*
X165584285Y-80033810D01*
X165584285Y-80271905D01*
X165631904Y-80367143D01*
X165679523Y-80414762D01*
X165774761Y-80462381D01*
X166060476Y-80462381D01*
X166155714Y-80414762D01*
X166203333Y-80367143D01*
X174235714Y-55062381D02*
X174235714Y-54062381D01*
X173188095Y-54967143D02*
X173235714Y-55014762D01*
X173378571Y-55062381D01*
X173473809Y-55062381D01*
X173616667Y-55014762D01*
X173711905Y-54919524D01*
X173759524Y-54824286D01*
X173807143Y-54633810D01*
X173807143Y-54490952D01*
X173759524Y-54300476D01*
X173711905Y-54205238D01*
X173616667Y-54110000D01*
X173473809Y-54062381D01*
X173378571Y-54062381D01*
X173235714Y-54110000D01*
X173188095Y-54157619D01*
X172807143Y-55014762D02*
X172664286Y-55062381D01*
X172426190Y-55062381D01*
X172330952Y-55014762D01*
X172283333Y-54967143D01*
X172235714Y-54871905D01*
X172235714Y-54776667D01*
X172283333Y-54681429D01*
X172330952Y-54633810D01*
X172426190Y-54586190D01*
X172616667Y-54538571D01*
X172711905Y-54490952D01*
X172759524Y-54443333D01*
X172807143Y-54348095D01*
X172807143Y-54252857D01*
X172759524Y-54157619D01*
X172711905Y-54110000D01*
X172616667Y-54062381D01*
X172378571Y-54062381D01*
X172235714Y-54110000D01*
X171807143Y-55062381D02*
X171807143Y-54062381D01*
X171426190Y-54062381D01*
X171330952Y-54110000D01*
X171283333Y-54157619D01*
X171235714Y-54252857D01*
X171235714Y-54395714D01*
X171283333Y-54490952D01*
X171330952Y-54538571D01*
X171426190Y-54586190D01*
X171807143Y-54586190D01*
X170807143Y-55062381D02*
X170807143Y-54062381D01*
X170569048Y-54062381D01*
X170426190Y-54110000D01*
X170330952Y-54205238D01*
X170283333Y-54300476D01*
X170235714Y-54490952D01*
X170235714Y-54633810D01*
X170283333Y-54824286D01*
X170330952Y-54919524D01*
X170426190Y-55014762D01*
X170569048Y-55062381D01*
X170807143Y-55062381D01*
X169854762Y-54776667D02*
X169378571Y-54776667D01*
X169950000Y-55062381D02*
X169616667Y-54062381D01*
X169283333Y-55062381D01*
X169092857Y-54062381D02*
X168521428Y-54062381D01*
X168807143Y-55062381D02*
X168807143Y-54062381D01*
X174330952Y-57602381D02*
X174330952Y-56602381D01*
X173283333Y-57507143D02*
X173330952Y-57554762D01*
X173473809Y-57602381D01*
X173569047Y-57602381D01*
X173711905Y-57554762D01*
X173807143Y-57459524D01*
X173854762Y-57364286D01*
X173902381Y-57173810D01*
X173902381Y-57030952D01*
X173854762Y-56840476D01*
X173807143Y-56745238D01*
X173711905Y-56650000D01*
X173569047Y-56602381D01*
X173473809Y-56602381D01*
X173330952Y-56650000D01*
X173283333Y-56697619D01*
X172902381Y-57554762D02*
X172759524Y-57602381D01*
X172521428Y-57602381D01*
X172426190Y-57554762D01*
X172378571Y-57507143D01*
X172330952Y-57411905D01*
X172330952Y-57316667D01*
X172378571Y-57221429D01*
X172426190Y-57173810D01*
X172521428Y-57126190D01*
X172711905Y-57078571D01*
X172807143Y-57030952D01*
X172854762Y-56983333D01*
X172902381Y-56888095D01*
X172902381Y-56792857D01*
X172854762Y-56697619D01*
X172807143Y-56650000D01*
X172711905Y-56602381D01*
X172473809Y-56602381D01*
X172330952Y-56650000D01*
X171902381Y-57602381D02*
X171902381Y-56602381D01*
X171521428Y-56602381D01*
X171426190Y-56650000D01*
X171378571Y-56697619D01*
X171330952Y-56792857D01*
X171330952Y-56935714D01*
X171378571Y-57030952D01*
X171426190Y-57078571D01*
X171521428Y-57126190D01*
X171902381Y-57126190D01*
X170330952Y-57507143D02*
X170378571Y-57554762D01*
X170521428Y-57602381D01*
X170616666Y-57602381D01*
X170759524Y-57554762D01*
X170854762Y-57459524D01*
X170902381Y-57364286D01*
X170950000Y-57173810D01*
X170950000Y-57030952D01*
X170902381Y-56840476D01*
X170854762Y-56745238D01*
X170759524Y-56650000D01*
X170616666Y-56602381D01*
X170521428Y-56602381D01*
X170378571Y-56650000D01*
X170330952Y-56697619D01*
X169426190Y-57602381D02*
X169902381Y-57602381D01*
X169902381Y-56602381D01*
X169092857Y-57602381D02*
X169092857Y-56602381D01*
X168521428Y-57602381D02*
X168950000Y-57030952D01*
X168521428Y-56602381D02*
X169092857Y-57173810D01*
X170243333Y-46442381D02*
X169910000Y-47442381D01*
X169576666Y-46442381D01*
X169243333Y-47442381D02*
X169243333Y-46442381D01*
X168862380Y-46442381D01*
X168767142Y-46490000D01*
X168719523Y-46537619D01*
X168671904Y-46632857D01*
X168671904Y-46775714D01*
X168719523Y-46870952D01*
X168767142Y-46918571D01*
X168862380Y-46966190D01*
X169243333Y-46966190D01*
X168243333Y-47442381D02*
X168243333Y-46442381D01*
X167862380Y-46442381D01*
X167767142Y-46490000D01*
X167719523Y-46537619D01*
X167671904Y-46632857D01*
X167671904Y-46775714D01*
X167719523Y-46870952D01*
X167767142Y-46918571D01*
X167862380Y-46966190D01*
X168243333Y-46966190D01*
X188872762Y-62166667D02*
X188920381Y-62309524D01*
X188920381Y-62547620D01*
X188872762Y-62642858D01*
X188825143Y-62690477D01*
X188729905Y-62738096D01*
X188634667Y-62738096D01*
X188539429Y-62690477D01*
X188491810Y-62642858D01*
X188444190Y-62547620D01*
X188396571Y-62357143D01*
X188348952Y-62261905D01*
X188301333Y-62214286D01*
X188206095Y-62166667D01*
X188110857Y-62166667D01*
X188015619Y-62214286D01*
X187968000Y-62261905D01*
X187920381Y-62357143D01*
X187920381Y-62595239D01*
X187968000Y-62738096D01*
X187920381Y-63071429D02*
X188920381Y-63309524D01*
X188206095Y-63500001D01*
X188920381Y-63690477D01*
X187920381Y-63928572D01*
X188920381Y-64833334D02*
X188920381Y-64261905D01*
X188920381Y-64547619D02*
X187920381Y-64547619D01*
X188063238Y-64452381D01*
X188158476Y-64357143D01*
X188206095Y-64261905D01*
X170243333Y-48982381D02*
X169910000Y-49982381D01*
X169576666Y-48982381D01*
X169243333Y-49982381D02*
X169243333Y-48982381D01*
X169005238Y-48982381D01*
X168862380Y-49030000D01*
X168767142Y-49125238D01*
X168719523Y-49220476D01*
X168671904Y-49410952D01*
X168671904Y-49553810D01*
X168719523Y-49744286D01*
X168767142Y-49839524D01*
X168862380Y-49934762D01*
X169005238Y-49982381D01*
X169243333Y-49982381D01*
X168243333Y-49982381D02*
X168243333Y-48982381D01*
X168005238Y-48982381D01*
X167862380Y-49030000D01*
X167767142Y-49125238D01*
X167719523Y-49220476D01*
X167671904Y-49410952D01*
X167671904Y-49553810D01*
X167719523Y-49744286D01*
X167767142Y-49839524D01*
X167862380Y-49934762D01*
X168005238Y-49982381D01*
X168243333Y-49982381D01*
X168401904Y-51570000D02*
X168497142Y-51522381D01*
X168639999Y-51522381D01*
X168782857Y-51570000D01*
X168878095Y-51665238D01*
X168925714Y-51760476D01*
X168973333Y-51950952D01*
X168973333Y-52093810D01*
X168925714Y-52284286D01*
X168878095Y-52379524D01*
X168782857Y-52474762D01*
X168639999Y-52522381D01*
X168544761Y-52522381D01*
X168401904Y-52474762D01*
X168354285Y-52427143D01*
X168354285Y-52093810D01*
X168544761Y-52093810D01*
X167925714Y-52522381D02*
X167925714Y-51522381D01*
X167354285Y-52522381D01*
X167354285Y-51522381D01*
X166878095Y-52522381D02*
X166878095Y-51522381D01*
X166640000Y-51522381D01*
X166497142Y-51570000D01*
X166401904Y-51665238D01*
X166354285Y-51760476D01*
X166306666Y-51950952D01*
X166306666Y-52093810D01*
X166354285Y-52284286D01*
X166401904Y-52379524D01*
X166497142Y-52474762D01*
X166640000Y-52522381D01*
X166878095Y-52522381D01*
X189698095Y-57078571D02*
X189555238Y-57126190D01*
X189507619Y-57173810D01*
X189460000Y-57269048D01*
X189460000Y-57411905D01*
X189507619Y-57507143D01*
X189555238Y-57554762D01*
X189650476Y-57602381D01*
X190031429Y-57602381D01*
X190031429Y-56602381D01*
X189698095Y-56602381D01*
X189602857Y-56650000D01*
X189555238Y-56697619D01*
X189507619Y-56792857D01*
X189507619Y-56888095D01*
X189555238Y-56983333D01*
X189602857Y-57030952D01*
X189698095Y-57078571D01*
X190031429Y-57078571D01*
X189079048Y-57316667D02*
X188602857Y-57316667D01*
X189174286Y-57602381D02*
X188840953Y-56602381D01*
X188507619Y-57602381D01*
X188317143Y-56602381D02*
X187745714Y-56602381D01*
X188031429Y-57602381D02*
X188031429Y-56602381D01*
X187555238Y-56602381D02*
X186983809Y-56602381D01*
X187269524Y-57602381D02*
X187269524Y-56602381D01*
X186650476Y-57221429D02*
X185888571Y-57221429D01*
X186269523Y-57602381D02*
X186269523Y-56840476D01*
X189698095Y-53268571D02*
X189555238Y-53316190D01*
X189507619Y-53363810D01*
X189460000Y-53459048D01*
X189460000Y-53601905D01*
X189507619Y-53697143D01*
X189555238Y-53744762D01*
X189650476Y-53792381D01*
X190031429Y-53792381D01*
X190031429Y-52792381D01*
X189698095Y-52792381D01*
X189602857Y-52840000D01*
X189555238Y-52887619D01*
X189507619Y-52982857D01*
X189507619Y-53078095D01*
X189555238Y-53173333D01*
X189602857Y-53220952D01*
X189698095Y-53268571D01*
X190031429Y-53268571D01*
X189079048Y-53506667D02*
X188602857Y-53506667D01*
X189174286Y-53792381D02*
X188840953Y-52792381D01*
X188507619Y-53792381D01*
X188317143Y-52792381D02*
X187745714Y-52792381D01*
X188031429Y-53792381D02*
X188031429Y-52792381D01*
X187555238Y-52792381D02*
X186983809Y-52792381D01*
X187269524Y-53792381D02*
X187269524Y-52792381D01*
X186650476Y-53411429D02*
X185888571Y-53411429D01*
M02*
