M48
;DRILL file {KiCad 4.0.7+dfsg1-1} date Sun Mar 11 19:06:48 2018
;FORMAT={-:-/ absolute / inch / decimal}
FMAT,2
INCH,TZ
T1C0.016
T2C0.020
T3C0.024
T4C0.031
T5C0.032
T6C0.032
T7C0.035
T8C0.039
T9C0.050
T10C0.060
%
G90
G05
M72
T1
X4.55Y-2.3
X4.55Y-2.75
X5.925Y-2.15
X5.975Y-2.2
X5.975Y-2.35
X6.1Y-2.325
X6.125Y-2.075
X6.125Y-2.125
X6.25Y-2.3
X6.3Y-2.45
X6.375Y-2.025
X6.5Y-2.4
X6.675Y-1.375
X6.675Y-1.55
X6.7Y-2.2
X6.925Y-1.8
X7.4Y-2.75
X7.45Y-2.825
T2
X6.95Y-1.25
X7.15Y-2.35
X7.15Y-2.53
X7.225Y-2.35
X7.225Y-2.53
X7.3Y-2.35
X7.3Y-2.53
X7.45Y-2.7
T3
X4.4Y-2.95
X4.4Y-3.0091
X7.15Y-1.35
X7.2091Y-1.35
T4
X6.35Y-2.55
X6.3516Y-3.15
X6.4Y-2.75
X6.4Y-2.9421
X6.4484Y-2.55
X6.45Y-3.15
X6.7Y-2.35
X6.7Y-2.45
X6.7Y-2.55
X7.Y-2.35
X7.Y-2.45
X7.Y-2.55
T5
X7.55Y-2.1
X7.55Y-2.25
T6
X7.49Y-2.4
X7.49Y-2.5
X7.49Y-2.6
X7.61Y-2.4
X7.61Y-2.5
X7.61Y-2.6
T7
X6.4Y-1.3
X6.4Y-1.4969
X6.5969Y-1.3984
X6.75Y-2.
X6.85Y-2.
X6.95Y-2.
T8
X6.45Y-1.85
X6.45Y-1.95
X6.45Y-2.05
X6.45Y-2.15
X6.45Y-2.25
X6.55Y-1.85
X6.55Y-1.95
X6.55Y-2.15
X6.55Y-2.25
T9
X4.85Y-3.
X5.9Y-3.
X6.85Y-3.
T10
X4.69Y-2.84
X4.69Y-3.16
X5.01Y-2.84
X5.01Y-3.16
X5.74Y-2.84
X5.74Y-3.16
X6.06Y-2.84
X6.06Y-3.16
X6.69Y-2.84
X6.69Y-3.16
X7.01Y-2.84
X7.01Y-3.16
T8
X7.1063Y-1.7323G85X7.1063Y-1.6535
G05
X7.2638Y-1.878G85X7.185Y-1.878
G05
X7.3425Y-1.7323G85X7.3425Y-1.6535
G05
T0
M30
